{
DisplayStrings = (
"Helvetica New",
t,
a,
"\U00A1"
);
customParameters = (
{
name = description;
value = "Helvetica (Latin for Swiss) has the objective and functional style which was associated with Swiss typography in the 1950s and 1960s. It is perfect for international correspondence: no ornament, no emotion, just clear presentation of information. Helvetica is still one of the best selling sans-serif fonts.";
},
{
name = vendorID;
value = LINO;
},
{
name = glyphOrder;
value = (
    ".notdef",
    uni0000,
    uni000D,
    space,
    exclam,
    quotedbl,
    numbersign,
    dollar,
    percent,
    ampersand,
    quotesingle,
    parenleft,
    parenright,
    asterisk,
    plus,
    comma,
    hyphen,
    period,
    slash,
    zero,
    one,
    two,
    three,
    four,
    five,
    six,
    seven,
    eight,
    nine,
    colon,
    semicolon,
    less,
    equal,
    greater,
    question,
    at,
    A,
    B,
    C,
    D,
    E,
    F,
    G,
    H,
    I,
    J,
    K,
    L,
    M,
    N,
    O,
    P,
    Q,
    R,
    S,
    T,
    U,
    V,
    W,
    X,
    Y,
    Z,
    bracketleft,
    backslash,
    bracketright,
    asciicircum,
    underscore,
    grave,
    a,
    b,
    c,
    d,
    e,
    f,
    g,
    h,
    i,
    j,
    k,
    l,
    m,
    n,
    o,
    p,
    q,
    r,
    s,
    t,
    u,
    v,
    w,
    x,
    y,
    z,
    braceleft,
    bar,
    braceright,
    asciitilde,
    "uni007F.controlDEL",
    uni00A0,
    exclamdown,
    cent,
    sterling,
    currency,
    yen,
    brokenbar,
    section,
    dieresis,
    copyright,
    ordfeminine,
    guillemotleft,
    logicalnot,
    uni00AD,
    registered,
    macron,
    degree,
    plusminus,
    twosuperior,
    threesuperior,
    acute,
    mu,
    paragraph,
    periodcentered,
    cedilla,
    onesuperior,
    ordmasculine,
    guillemotright,
    onequarter,
    onehalf,
    threequarters,
    questiondown,
    Agrave,
    Aacute,
    Acircumflex,
    Atilde,

glyphs = (
{
glyphname = .notdef;
layers = (
{
layerId = "54BFC50A-6637-4CB7-8178-55EF9B54D6CA";
name = Regular;
paths = (
{
closed = 1;
nodes = (
"512 50 LINE",
"512 667 LINE",
"100 667 LINE",
"100 50 LINE"
);
},
{
closed = 1;
nodes = (
"562 714 LINE",
"562 0 LINE",
"50 0 LINE",
"50 714 LINE"
);
}
);
width = 600;
}
);
note = .notdef;
},
{
glyphname = exclam;
lastChange = "2016-01-24 01:02:40 +0000";
layers = (
{
layerId = "54BFC50A-6637-4CB7-8178-55EF9B54D6CA";
name = Regular;
paths = (
{
closed = 1;
nodes = (
"72 125 LINE",
"206 125 LINE",
"206 0 LINE",
"72 0 LINE"
);
},
{
closed = 1;
nodes = (
"77 714 LINE",
"202 714 LINE",
"202 508 LINE",
"179 199 LINE",
"100 199 LINE",
"77 508 LINE"
);
}
);
width = 278;
}
);
note = exclam;
unicode = 0021;
},
{
glyphname = quotedbl;
layers = (
{
layerId = "54BFC50A-6637-4CB7-8178-55EF9B54D6CA";
name = Regular;
paths = (
{
closed = 1;
nodes = (
"259 714 LINE",
"361 714 LINE",
"361 432 LINE",
"259 432 LINE"
);
},
{
closed = 1;
nodes = (
"83 714 LINE",
"185 714 LINE",
"185 432 LINE",
"83 432 LINE"
);
}
);
width = 444;
}
);
note = quotedbl;
unicode = 0022;
},
{
glyphname = numbersign;
layers = (
{
layerId = "54BFC50A-6637-4CB7-8178-55EF9B54D6CA";
name = Regular;
paths = (
{
closed = 1;
nodes = (
"237 415 LINE",
"219 285 LINE",
"330 285 LINE",
"348 415 LINE"
);
},
{
closed = 1;
nodes = (
"495 210 LINE",
"400 210 LINE",
"370 0 LINE",
"290 0 LINE",
"319 210 LINE",
"209 210 LINE",
"179 0 LINE",
"99 0 LINE",
"128 210 LINE",
"34 210 LINE",
"34 285 LINE",
"139 285 LINE",
"157 415 LINE",
"63 415 LINE",
"63 490 LINE",
"167 490 LINE",
"196 700 LINE",
"277 700 LINE",
"247 490 LINE",
"358 490 LINE",
"387 700 LINE",
"468 700 LINE",
"438 490 LINE",
"524 490 LINE",
"524 415 LINE",
"428 415 LINE",
"410 285 LINE",
"495 285 LINE"
);
}
);
width = 556;
}
);
note = numbersign;
unicode = 0023;
},
{
glyphname = dollar;
lastChange = "2016-01-24 01:03:08 +0000";
layers = (
{
layerId = "54BFC50A-6637-4CB7-8178-55EF9B54D6CA";
name = Regular;
paths = (
{
closed = 1;
nodes = (
"249 641 LINE",
"177 641 OFFCURVE",
"146 614 OFFCURVE",
"146 543 CURVE SMOOTH",
"146 511 OFFCURVE",
"161 489 OFFCURVE",
"182 473 CURVE SMOOTH",
"202 457 OFFCURVE",
"221 448 OFFCURVE",
"249 441 CURVE"
);
},
{
closed = 1;
nodes = (
"131 217 LINE",
"130 129 OFFCURVE",
"157 76 OFFCURVE",
"249 73 CURVE",
"249 315 LINE",
"194 330 OFFCURVE",
"148 349 OFFCURVE",
"105 382 CURVE SMOOTH",
"61 414 OFFCURVE",
"32 462 OFFCURVE",
"32 535 CURVE SMOOTH",
"32 599 OFFCURVE",
"59 648 OFFCURVE",
"101 681 CURVE SMOOTH",
"143 713 OFFCURVE",
"189 731 OFFCURVE",
"249 731 CURVE",
"249 809 LINE",
"312 809 LINE",
"312 731 LINE",
"372 731 OFFCURVE",
"417 715 OFFCURVE",
"457 683 CURVE SMOOTH",
"496 651 OFFCURVE",
"521 601 OFFCURVE",
"521 536 CURVE",
"407 536 LINE",
"404 604 OFFCURVE",
"384 641 OFFCURVE",
"312 641 CURVE",
"312 430 LINE",
"372 414 OFFCURVE",
"422 394 OFFCURVE",
"466 361 CURVE SMOOTH",
"510 328 OFFCURVE",
"539 280 OFFCURVE",
"539 208 CURVE SMOOTH",
"539 133 OFFCURVE",
"513 78 OFFCURVE",
"470 42 CURVE SMOOTH",
"427 5 OFFCURVE",
"369 -14 OFFCURVE",
"302 -17 CURVE",
"302 -95 LINE",
"259 -95 LINE",
"259 -17 LINE",
"187 -16 OFFCURVE",
"126 6 OFFCURVE",
"83 46 CURVE SMOOTH",
"40 85 OFFCURVE",
"16 142 OFFCURVE",
"17 217 CURVE"
);
},
{
closed = 1;
nodes = (
"312 73 LINE",
"384 78 OFFCURVE",
"425 112 OFFCURVE",
"425 192 CURVE SMOOTH",
"425 229 OFFCURVE",
"410 254 OFFCURVE",
"387 271 CURVE SMOOTH",
"363 288 OFFCURVE",
"343 298 OFFCURVE",
"312 306 CURVE"
);
}
);
width = 556;
}
);
note = dollar;
unicode = 0024;
},
{
glyphname = percent;
layers = (
{
layerId = "54BFC50A-6637-4CB7-8178-55EF9B54D6CA";
name = Regular;
paths = (
{
closed = 1;
nodes = (
"172 478 OFFCURVE",
"177 444 OFFCURVE",
"189 420 CURVE SMOOTH",
"201 396 OFFCURVE",
"220 381 OFFCURVE",
"248 381 CURVE SMOOTH",
"276 381 OFFCURVE",
"296 396 OFFCURVE",
"308 420 CURVE SMOOTH",
"320 444 OFFCURVE",
"326 478 OFFCURVE",
"326 515 CURVE SMOOTH",
"326 548 OFFCURVE",
"322 582 OFFCURVE",
"310 607 CURVE SMOOTH",
"298 632 OFFCURVE",
"279 649 OFFCURVE",
"248 649 CURVE SMOOTH",
"217 649 OFFCURVE",
"198 632 OFFCURVE",
"187 607 CURVE SMOOTH",
"175 582 OFFCURVE",
"172 548 OFFCURVE",
"172 515 CURVE SMOOTH"
);
},
{
closed = 1;
nodes = (
"189 316 OFFCURVE",
"147 339 OFFCURVE",
"120 375 CURVE SMOOTH",
"93 411 OFFCURVE",
"82 460 OFFCURVE",
"82 515 CURVE SMOOTH",
"82 568 OFFCURVE",
"94 619 OFFCURVE",
"122 655 CURVE SMOOTH",
"149 691 OFFCURVE",
"190 714 OFFCURVE",
"249 714 CURVE SMOOTH",
"308 714 OFFCURVE",
"349 691 OFFCURVE",
"377 655 CURVE SMOOTH",
"404 619 OFFCURVE",
"416 568 OFFCURVE",
"416 515 CURVE SMOOTH",
"416 460 OFFCURVE",
"405 411 OFFCURVE",
"378 375 CURVE SMOOTH",
"351 339 OFFCURVE",
"309 316 OFFCURVE",
"249 316 CURVE SMOOTH"
);
},
{
closed = 1;
nodes = (
"674 148 OFFCURVE",
"679 114 OFFCURVE",
"691 90 CURVE SMOOTH",
"703 66 OFFCURVE",
"722 51 OFFCURVE",
"750 51 CURVE SMOOTH",
"778 51 OFFCURVE",
"798 66 OFFCURVE",
"810 90 CURVE SMOOTH",
"822 114 OFFCURVE",
"828 148 OFFCURVE",
"828 185 CURVE SMOOTH",
"828 218 OFFCURVE",
"824 252 OFFCURVE",
"812 277 CURVE SMOOTH",
"800 302 OFFCURVE",
"781 319 OFFCURVE",
"750 319 CURVE SMOOTH",
"719 319 OFFCURVE",
"700 302 OFFCURVE",
"689 277 CURVE SMOOTH",
"677 252 OFFCURVE",
"674 218 OFFCURVE",
"674 185 CURVE SMOOTH"
);
},
{
closed = 1;
nodes = (
"691 -14 OFFCURVE",
"649 9 OFFCURVE",
"622 45 CURVE SMOOTH",
"595 81 OFFCURVE",
"584 130 OFFCURVE",
"584 185 CURVE SMOOTH",
"584 238 OFFCURVE",
"596 289 OFFCURVE",
"624 325 CURVE SMOOTH",
"651 361 OFFCURVE",
"692 384 OFFCURVE",
"751 384 CURVE SMOOTH",
"810 384 OFFCURVE",
"851 361 OFFCURVE",
"879 325 CURVE SMOOTH",
"906 289 OFFCURVE",
"918 238 OFFCURVE",
"918 185 CURVE SMOOTH",
"918 130 OFFCURVE",
"907 81 OFFCURVE",
"880 45 CURVE SMOOTH",
"853 9 OFFCURVE",
"811 -14 OFFCURVE",
"751 -14 CURVE SMOOTH"
);
},
{
closed = 1;
nodes = (
"649 724 LINE",
"725 724 LINE",
"338 -24 LINE",
"260 -24 LINE"
);
}
);
width = 1000;
}
);
note = percent;
unicode = 0025;
},
{
glyphname = ampersand;
layers = (
{
layerId = "54BFC50A-6637-4CB7-8178-55EF9B54D6CA";
name = Regular;
paths = (
{
closed = 1;
nodes = (
"457 80 LINE",
"404 15 OFFCURVE",
"341 -14 OFFCURVE",
"257 -14 CURVE SMOOTH",
"192 -14 OFFCURVE",
"135 6 OFFCURVE",
"95 42 CURVE SMOOTH",
"55 78 OFFCURVE",
"32 131 OFFCURVE",
"32 198 CURVE SMOOTH",
"32 249 OFFCURVE",
"52 290 OFFCURVE",
"83 324 CURVE SMOOTH",
"114 358 OFFCURVE",
"155 384 OFFCURVE",
"196 405 CURVE",
"177 429 OFFCURVE",
"159 452 OFFCURVE",
"146 477 CURVE SMOOTH",
"133 502 OFFCURVE",
"124 530 OFFCURVE",
"124 561 CURVE SMOOTH",
"124 613 OFFCURVE",
"143 655 OFFCURVE",
"175 685 CURVE SMOOTH",
"207 715 OFFCURVE",
"251 731 OFFCURVE",
"299 731 CURVE SMOOTH",
"344 731 OFFCURVE",
"390 717 OFFCURVE",
"423 689 CURVE SMOOTH",
"455 660 OFFCURVE",
"477 617 OFFCURVE",
"477 560 CURVE SMOOTH",
"477 517 OFFCURVE",
"462 482 OFFCURVE",
"439 452 CURVE SMOOTH",
"415 422 OFFCURVE",
"383 398 OFFCURVE",
"348 379 CURVE",
"459 245 LINE",
"467 268 OFFCURVE",
"476 294 OFFCURVE",
"481 341 CURVE",
"581 341 LINE",
"574 278 OFFCURVE",
"557 217 OFFCURVE",
"525 166 CURVE",
"662 0 LINE",
"522 0 LINE"
);
},
{
closed = 1;
nodes = (
"256 330 LINE",
"245 323 OFFCURVE",
"234 317 OFFCURVE",
"221 310 CURVE SMOOTH",
"196 297 OFFCURVE",
"173 277 OFFCURVE",
"158 249 CURVE SMOOTH",
"150 235 OFFCURVE",
"146 217 OFFCURVE",
"146 196 CURVE SMOOTH",
"146 119 OFFCURVE",
"194 76 OFFCURVE",
"261 76 CURVE SMOOTH",
"302 76 OFFCURVE",
"331 89 OFFCURVE",
"352 105 CURVE SMOOTH",
"372 121 OFFCURVE",
"385 141 OFFCURVE",
"396 156 CURVE"
);
},
{
closed = 1;
nodes = (
"259 646 OFFCURVE",
"226 615 OFFCURVE",
"226 567 CURVE SMOOTH",
"226 543 OFFCURVE",
"236 523 OFFCURVE",
"249 504 CURVE",
"255 494 OFFCURVE",
"262 484 OFFCURVE",
"270 475 CURVE",
"277 466 OFFCURVE",
"284 457 OFFCURVE",
"291 448 CURVE",
"312 463 OFFCURVE",
"333 478 OFFCURVE",
"349 496 CURVE SMOOTH",
"365 514 OFFCURVE",
"375 536 OFFCURVE",
"375 564 CURVE SMOOTH",
"375 611 OFFCURVE",
"346 646 OFFCURVE",
"302 646 CURVE SMOOTH"
);
}
);
width = 648;
}
);
note = ampersand;
unicode = 0026;
},
{
glyphname = quotesingle;
layers = (
{
layerId = "54BFC50A-6637-4CB7-8178-55EF9B54D6CA";
name = Regular;
paths = (
{
closed = 1;
nodes = (
"88 714 LINE",
"190 714 LINE",
"190 432 LINE",
"88 432 LINE"
);
}
);
width = 278;
}
);
note = quotesingle;
unicode = 0027;
},
{
glyphname = parenleft;
layers = (
{
layerId = "54BFC50A-6637-4CB7-8178-55EF9B54D6CA";
name = Regular;
paths = (
{
closed = 1;
nodes = (
"193 -191 LINE",
"153 -127 OFFCURVE",
"117 -60 OFFCURVE",
"91 16 CURVE SMOOTH",
"65 91 OFFCURVE",
"49 174 OFFCURVE",
"49 270 CURVE SMOOTH",
"49 431 OFFCURVE",
"101 590 OFFCURVE",
"193 731 CURVE",
"286 731 LINE",
"206 587 OFFCURVE",
"163 438 OFFCURVE",
"163 270 CURVE SMOOTH",
"163 102 OFFCURVE",
"202 -48 OFFCURVE",
"286 -191 CURVE"
);
}
);
width = 278;
}
);
note = parenleft;
unicode = 0028;
},
{
glyphname = parenright;
layers = (
{
layerId = "54BFC50A-6637-4CB7-8178-55EF9B54D6CA";
name = Regular;
paths = (
{
closed = 1;
nodes = (
"85 731 LINE",
"125 667 OFFCURVE",
"161 599 OFFCURVE",
"187 524 CURVE SMOOTH",
"213 448 OFFCURVE",
"229 365 OFFCURVE",
"229 269 CURVE SMOOTH",
"229 108 OFFCURVE",
"177 -51 OFFCURVE",
"85 -191 CURVE",
"-8 -191 LINE",
"72 -48 OFFCURVE",
"115 101 OFFCURVE",
"115 269 CURVE SMOOTH",
"115 437 OFFCURVE",
"76 587 OFFCURVE",
"-8 731 CURVE"
);
}
);
width = 278;
}
);
note = parenright;
unicode = 0029;
},
{
glyphname = asterisk;
layers = (
{
layerId = "54BFC50A-6637-4CB7-8178-55EF9B54D6CA";
name = Regular;
paths = (
{
closed = 1;
nodes = (
"19 572 LINE",
"41 637 LINE",
"151 594 LINE",
"151 714 LINE",
"219 714 LINE",
"219 594 LINE",
"328 637 LINE",
"352 572 LINE",
"238 534 LINE",
"308 440 LINE",
"255 401 LINE",
"184 499 LINE",
"116 401 LINE",
"60 440 LINE",
"130 534 LINE"
);
}
);
width = 370;
}
);
note = asterisk;
unicode = 002A;
},
{
glyphname = plus;
layers = (
{
layerId = "54BFC50A-6637-4CB7-8178-55EF9B54D6CA";
name = Regular;
paths = (
{
closed = 1;
nodes = (
"249 506 LINE",
"351 506 LINE",
"351 304 LINE",
"552 304 LINE",
"552 202 LINE",
"351 202 LINE",
"351 0 LINE",
"249 0 LINE",
"249 202 LINE",
"48 202 LINE",
"48 304 LINE",
"249 304 LINE"
);
}
);
width = 600;
}
);
note = plus;
unicode = 002B;
},
{
glyphname = comma;
layers = (
{
layerId = "54BFC50A-6637-4CB7-8178-55EF9B54D6CA";
name = Regular;
paths = (
{
closed = 1;
nodes = (
"69 135 LINE",
"208 135 LINE",
"208 0 LINE SMOOTH",
"207 -83 OFFCURVE",
"153 -142 OFFCURVE",
"73 -158 CURVE",
"73 -97 LINE",
"117 -86 OFFCURVE",
"139 -43 OFFCURVE",
"138 0 CURVE",
"69 0 LINE"
);
}
);
width = 278;
}
);
note = comma;
unicode = 002C;
},
{
glyphname = hyphen;
layers = (
{
layerId = "54BFC50A-6637-4CB7-8178-55EF9B54D6CA";
name = Regular;
paths = (
{
closed = 1;
nodes = (
"49 326 LINE",
"340 326 LINE",
"340 218 LINE",
"49 218 LINE"
);
}
);
width = 389;
}
);
note = hyphen;
unicode = 002D;
},
{
glyphname = period;
layers = (
{
layerId = "54BFC50A-6637-4CB7-8178-55EF9B54D6CA";
name = Regular;
paths = (
{
closed = 1;
nodes = (
"69 135 LINE",
"208 135 LINE",
"208 0 LINE",
"69 0 LINE"
);
}
);
width = 278;
}
);
note = period;
unicode = 002E;
},
{
glyphname = slash;
layers = (
{
layerId = "54BFC50A-6637-4CB7-8178-55EF9B54D6CA";
name = Regular;
paths = (
{
closed = 1;
nodes = (
"265 731 LINE",
"374 731 LINE",
"87 -17 LINE",
"-22 -17 LINE"
);
}
);
width = 352;
}
);
note = slash;
unicode = 002F;
},
{
glyphname = zero;
layers = (
{
layerId = "54BFC50A-6637-4CB7-8178-55EF9B54D6CA";
name = Regular;
paths = (
{
closed = 1;
nodes = (
"378 714 OFFCURVE",
"439 663 OFFCURVE",
"475 592 CURVE SMOOTH",
"510 520 OFFCURVE",
"520 430 OFFCURVE",
"520 350 CURVE SMOOTH",
"520 270 OFFCURVE",
"510 180 OFFCURVE",
"475 109 CURVE SMOOTH",
"439 37 OFFCURVE",
"378 -14 OFFCURVE",
"278 -14 CURVE SMOOTH",
"178 -14 OFFCURVE",
"117 37 OFFCURVE",
"82 109 CURVE SMOOTH",
"46 180 OFFCURVE",
"36 270 OFFCURVE",
"36 350 CURVE SMOOTH",
"36 430 OFFCURVE",
"46 520 OFFCURVE",
"82 592 CURVE SMOOTH",
"117 663 OFFCURVE",
"178 714 OFFCURVE",
"278 714 CURVE SMOOTH"
);
},
{
closed = 1;
nodes = (
"327 81 OFFCURVE",
"360 112 OFFCURVE",
"380 161 CURVE SMOOTH",
"399 209 OFFCURVE",
"406 277 OFFCURVE",
"406 350 CURVE SMOOTH",
"406 423 OFFCURVE",
"399 490 OFFCURVE",
"380 539 CURVE SMOOTH",
"360 588 OFFCURVE",
"327 619 OFFCURVE",
"278 619 CURVE SMOOTH",
"227 619 OFFCURVE",
"196 588 OFFCURVE",
"177 539 CURVE SMOOTH",
"157 490 OFFCURVE",
"150 423 OFFCURVE",
"150 350 CURVE SMOOTH",
"150 277 OFFCURVE",
"157 209 OFFCURVE",
"177 161 CURVE SMOOTH",
"196 112 OFFCURVE",
"227 81 OFFCURVE",
"278 81 CURVE SMOOTH"
);
}
);
width = 556;
}
);
note = zero;
unicode = 0030;
},
{
glyphname = one;
layers = (
{
layerId = "54BFC50A-6637-4CB7-8178-55EF9B54D6CA";
name = Regular;
paths = (
{
closed = 1;
nodes = (
"53 584 LINE",
"101 584 OFFCURVE",
"148 591 OFFCURVE",
"185 610 CURVE SMOOTH",
"221 629 OFFCURVE",
"249 657 OFFCURVE",
"257 700 CURVE",
"350 700 LINE",
"350 0 LINE",
"225 0 LINE",
"225 494 LINE",
"53 494 LINE"
);
}
);
width = 556;
}
);
note = one;
unicode = 0031;
},
{
glyphname = two;
layers = (
{
layerId = "54BFC50A-6637-4CB7-8178-55EF9B54D6CA";
name = Regular;
paths = (
{
closed = 1;
nodes = (
"517 0 LINE",
"39 0 LINE",
"40 116 OFFCURVE",
"98 201 OFFCURVE",
"193 265 CURVE",
"216 282 OFFCURVE",
"239 298 OFFCURVE",
"264 314 CURVE SMOOTH",
"313 345 OFFCURVE",
"356 381 OFFCURVE",
"383 423 CURVE SMOOTH",
"396 444 OFFCURVE",
"403 468 OFFCURVE",
"404 495 CURVE",
"404 520 OFFCURVE",
"399 551 OFFCURVE",
"382 576 CURVE SMOOTH",
"365 600 OFFCURVE",
"335 619 OFFCURVE",
"286 619 CURVE SMOOTH",
"241 619 OFFCURVE",
"212 600 OFFCURVE",
"194 569 CURVE SMOOTH",
"176 537 OFFCURVE",
"167 493 OFFCURVE",
"166 444 CURVE",
"52 444 LINE",
"52 521 OFFCURVE",
"73 589 OFFCURVE",
"114 637 CURVE SMOOTH",
"155 685 OFFCURVE",
"214 714 OFFCURVE",
"293 714 CURVE SMOOTH",
"378 714 OFFCURVE",
"434 683 OFFCURVE",
"470 640 CURVE SMOOTH",
"505 597 OFFCURVE",
"518 544 OFFCURVE",
"518 499 CURVE SMOOTH",
"518 443 OFFCURVE",
"499 399 OFFCURVE",
"470 361 CURVE SMOOTH",
"441 323 OFFCURVE",
"402 291 OFFCURVE",
"362 263 CURVE SMOOTH",
"342 249 OFFCURVE",
"322 236 OFFCURVE",
"302 223 CURVE SMOOTH",
"262 198 OFFCURVE",
"227 173 OFFCURVE",
"202 146 CURVE SMOOTH",
"189 132 OFFCURVE",
"181 117 OFFCURVE",
"176 102 CURVE",
"517 102 LINE"
);
}
);
width = 556;
}
);
note = two;
unicode = 0032;
},
{
glyphname = three;
layers = (
{
layerId = "54BFC50A-6637-4CB7-8178-55EF9B54D6CA";
name = Regular;
paths = (
{
closed = 1;
nodes = (
"228 410 LINE",
"265 409 OFFCURVE",
"305 415 OFFCURVE",
"334 432 CURVE SMOOTH",
"363 448 OFFCURVE",
"383 477 OFFCURVE",
"383 520 CURVE SMOOTH",
"383 580 OFFCURVE",
"338 619 OFFCURVE",
"274 619 CURVE SMOOTH",
"234 619 OFFCURVE",
"205 602 OFFCURVE",
"186 575 CURVE SMOOTH",
"166 547 OFFCURVE",
"157 512 OFFCURVE",
"158 476 CURVE",
"44 476 LINE",
"47 544 OFFCURVE",
"70 603 OFFCURVE",
"110 646 CURVE SMOOTH",
"149 689 OFFCURVE",
"205 714 OFFCURVE",
"276 714 CURVE SMOOTH",
"331 714 OFFCURVE",
"386 698 OFFCURVE",
"428 667 CURVE SMOOTH",
"470 636 OFFCURVE",
"497 588 OFFCURVE",
"497 527 CURVE SMOOTH",
"497 456 OFFCURVE",
"466 401 OFFCURVE",
"398 377 CURVE",
"398 375 LINE",
"478 359 OFFCURVE",
"525 291 OFFCURVE",
"525 200 CURVE SMOOTH",
"525 133 OFFCURVE",
"496 80 OFFCURVE",
"451 44 CURVE SMOOTH",
"406 7 OFFCURVE",
"344 -14 OFFCURVE",
"277 -14 CURVE SMOOTH",
"196 -14 OFFCURVE",
"135 10 OFFCURVE",
"95 53 CURVE SMOOTH",
"54 96 OFFCURVE",
"32 157 OFFCURVE",
"31 230 CURVE",
"145 230 LINE",
"142 145 OFFCURVE",
"188 81 OFFCURVE",
"277 81 CURVE SMOOTH",
"353 81 OFFCURVE",
"411 126 OFFCURVE",
"411 206 CURVE SMOOTH",
"411 261 OFFCURVE",
"388 291 OFFCURVE",
"353 308 CURVE SMOOTH",
"318 324 OFFCURVE",
"273 326 OFFCURVE",
"228 325 CURVE"
);
}
);
width = 556;
}
);
note = three;
unicode = 0033;
},
{
glyphname = four;
layers = (
{
layerId = "54BFC50A-6637-4CB7-8178-55EF9B54D6CA";
name = Regular;
paths = (
{
closed = 1;
nodes = (
"112 256 LINE",
"324 256 LINE",
"324 564 LINE",
"322 564 LINE"
);
},
{
closed = 1;
nodes = (
"522 166 LINE",
"432 166 LINE",
"432 0 LINE",
"324 0 LINE",
"324 166 LINE",
"24 166 LINE",
"24 279 LINE",
"324 700 LINE",
"432 700 LINE",
"432 256 LINE",
"522 256 LINE"
);
}
);
width = 556;
}
);
note = four;
unicode = 0034;
},
{
glyphname = five;
layers = (
{
layerId = "54BFC50A-6637-4CB7-8178-55EF9B54D6CA";
name = Regular;
paths = (
{
closed = 1;
nodes = (
"123 700 LINE",
"485 700 LINE",
"485 598 LINE",
"208 598 LINE",
"172 420 LINE",
"174 418 LINE",
"205 453 OFFCURVE",
"256 471 OFFCURVE",
"303 471 CURVE SMOOTH",
"372 471 OFFCURVE",
"428 447 OFFCURVE",
"465 405 CURVE SMOOTH",
"502 363 OFFCURVE",
"522 304 OFFCURVE",
"522 237 CURVE SMOOTH",
"522 181 OFFCURVE",
"505 118 OFFCURVE",
"466 70 CURVE SMOOTH",
"426 21 OFFCURVE",
"365 -14 OFFCURVE",
"280 -14 CURVE SMOOTH",
"212 -14 OFFCURVE",
"153 4 OFFCURVE",
"109 40 CURVE SMOOTH",
"65 76 OFFCURVE",
"38 128 OFFCURVE",
"35 199 CURVE",
"149 199 LINE",
"156 123 OFFCURVE",
"203 81 OFFCURVE",
"278 81 CURVE SMOOTH",
"326 81 OFFCURVE",
"359 98 OFFCURVE",
"380 126 CURVE SMOOTH",
"400 154 OFFCURVE",
"408 192 OFFCURVE",
"408 235 CURVE SMOOTH",
"408 274 OFFCURVE",
"397 310 OFFCURVE",
"376 337 CURVE SMOOTH",
"355 364 OFFCURVE",
"320 381 OFFCURVE",
"275 381 CURVE SMOOTH",
"227 381 OFFCURVE",
"181 366 OFFCURVE",
"162 317 CURVE",
"48 317 LINE"
);
}
);
width = 556;
}
);
note = five;
unicode = 0035;
},
{
glyphname = six;
layers = (
{
layerId = "54BFC50A-6637-4CB7-8178-55EF9B54D6CA";
name = Regular;
paths = (
{
closed = 1;
nodes = (
"395 523 LINE",
"390 580 OFFCURVE",
"353 619 OFFCURVE",
"293 619 CURVE SMOOTH",
"252 619 OFFCURVE",
"222 602 OFFCURVE",
"202 577 CURVE SMOOTH",
"181 552 OFFCURVE",
"169 518 OFFCURVE",
"161 482 CURVE SMOOTH",
"153 446 OFFCURVE",
"151 410 OFFCURVE",
"148 379 CURVE",
"150 377 LINE",
"181 433 OFFCURVE",
"238 460 OFFCURVE",
"301 460 CURVE SMOOTH",
"370 460 OFFCURVE",
"426 435 OFFCURVE",
"464 393 CURVE SMOOTH",
"502 351 OFFCURVE",
"522 292 OFFCURVE",
"522 225 CURVE SMOOTH",
"522 157 OFFCURVE",
"499 98 OFFCURVE",
"458 55 CURVE SMOOTH",
"417 11 OFFCURVE",
"358 -14 OFFCURVE",
"289 -14 CURVE SMOOTH",
"186 -14 OFFCURVE",
"123 27 OFFCURVE",
"85 93 CURVE SMOOTH",
"47 159 OFFCURVE",
"34 249 OFFCURVE",
"34 352 CURVE SMOOTH",
"34 436 OFFCURVE",
"51 526 OFFCURVE",
"92 596 CURVE SMOOTH",
"133 666 OFFCURVE",
"199 714 OFFCURVE",
"298 714 CURVE SMOOTH",
"354 714 OFFCURVE",
"405 694 OFFCURVE",
"443 661 CURVE SMOOTH",
"481 628 OFFCURVE",
"506 580 OFFCURVE",
"509 523 CURVE"
);
},
{
closed = 1;
nodes = (
"326 81 OFFCURVE",
"357 99 OFFCURVE",
"378 126 CURVE SMOOTH",
"398 153 OFFCURVE",
"408 190 OFFCURVE",
"408 227 CURVE SMOOTH",
"408 264 OFFCURVE",
"398 301 OFFCURVE",
"378 327 CURVE SMOOTH",
"357 353 OFFCURVE",
"326 370 OFFCURVE",
"285 370 CURVE SMOOTH",
"244 370 OFFCURVE",
"212 354 OFFCURVE",
"191 328 CURVE SMOOTH",
"170 302 OFFCURVE",
"159 266 OFFCURVE",
"159 227 CURVE SMOOTH",
"159 188 OFFCURVE",
"170 153 OFFCURVE",
"191 126 CURVE SMOOTH",
"212 98 OFFCURVE",
"244 81 OFFCURVE",
"285 81 CURVE SMOOTH"
);
}
);
width = 556;
}
);
note = six;
unicode = 0036;
},
{
glyphname = seven;
lastChange = "2016-01-24 01:03:42 +0000";
layers = (
{
layerId = "54BFC50A-6637-4CB7-8178-55EF9B54D6CA";
name = Regular;
paths = (
{
closed = 1;
nodes = (
"35 700 LINE",
"514 700 LINE",
"514 598 LINE",
"253 0 LINE",
"128 0 LINE",
"398 598 LINE",
"35 598 LINE"
);
}
);
width = 556;
}
);
note = seven;
unicode = 0037;
},
{
glyphname = eight;
layers = (
{
layerId = "54BFC50A-6637-4CB7-8178-55EF9B54D6CA";
name = Regular;
paths = (
{
closed = 1;
nodes = (
"217 624 OFFCURVE",
"168 586 OFFCURVE",
"168 517 CURVE SMOOTH",
"168 450 OFFCURVE",
"214 414 OFFCURVE",
"278 414 CURVE SMOOTH",
"342 414 OFFCURVE",
"388 450 OFFCURVE",
"388 517 CURVE SMOOTH",
"388 586 OFFCURVE",
"339 624 OFFCURVE",
"278 624 CURVE SMOOTH"
);
},
{
closed = 1;
nodes = (
"207 -14 OFFCURVE",
"145 7 OFFCURVE",
"101 45 CURVE SMOOTH",
"57 83 OFFCURVE",
"31 138 OFFCURVE",
"31 206 CURVE SMOOTH",
"31 294 OFFCURVE",
"80 357 OFFCURVE",
"159 377 CURVE",
"159 379 LINE",
"95 403 OFFCURVE",
"60 455 OFFCURVE",
"60 523 CURVE SMOOTH",
"60 643 OFFCURVE",
"138 714 OFFCURVE",
"278 714 CURVE SMOOTH",
"418 714 OFFCURVE",
"496 643 OFFCURVE",
"496 523 CURVE SMOOTH",
"496 455 OFFCURVE",
"461 403 OFFCURVE",
"397 379 CURVE",
"397 377 LINE",
"476 357 OFFCURVE",
"525 294 OFFCURVE",
"525 206 CURVE SMOOTH",
"525 138 OFFCURVE",
"499 83 OFFCURVE",
"455 45 CURVE SMOOTH",
"411 7 OFFCURVE",
"349 -14 OFFCURVE",
"278 -14 CURVE SMOOTH"
);
},
{
closed = 1;
nodes = (
"354 76 OFFCURVE",
"411 123 OFFCURVE",
"411 206 CURVE SMOOTH",
"411 283 OFFCURVE",
"354 329 OFFCURVE",
"278 329 CURVE SMOOTH",
"202 329 OFFCURVE",
"145 283 OFFCURVE",
"145 206 CURVE SMOOTH",
"145 123 OFFCURVE",
"202 76 OFFCURVE",
"278 76 CURVE SMOOTH"
);
}
);
width = 556;
}
);
note = eight;
unicode = 0038;
},
{
glyphname = nine;
layers = (
{
layerId = "54BFC50A-6637-4CB7-8178-55EF9B54D6CA";
name = Regular;
paths = (
{
closed = 1;
nodes = (
"161 177 LINE",
"166 120 OFFCURVE",
"203 81 OFFCURVE",
"263 81 CURVE SMOOTH",
"324 81 OFFCURVE",
"359 118 OFFCURVE",
"379 167 CURVE SMOOTH",
"399 215 OFFCURVE",
"404 274 OFFCURVE",
"408 321 CURVE",
"406 323 LINE",
"375 268 OFFCURVE",
"319 239 OFFCURVE",
"255 239 CURVE SMOOTH",
"188 239 OFFCURVE",
"134 263 OFFCURVE",
"95 304 CURVE SMOOTH",
"56 344 OFFCURVE",
"34 403 OFFCURVE",
"34 475 CURVE SMOOTH",
"34 543 OFFCURVE",
"56 602 OFFCURVE",
"97 646 CURVE SMOOTH",
"138 689 OFFCURVE",
"199 714 OFFCURVE",
"275 714 CURVE SMOOTH",
"374 714 OFFCURVE",
"436 674 OFFCURVE",
"473 608 CURVE SMOOTH",
"509 542 OFFCURVE",
"522 449 OFFCURVE",
"522 348 CURVE SMOOTH",
"522 264 OFFCURVE",
"505 175 OFFCURVE",
"464 105 CURVE SMOOTH",
"423 35 OFFCURVE",
"357 -14 OFFCURVE",
"258 -14 CURVE SMOOTH",
"202 -14 OFFCURVE",
"152 6 OFFCURVE",
"114 39 CURVE SMOOTH",
"76 72 OFFCURVE",
"50 120 OFFCURVE",
"47 177 CURVE"
);
},
{
closed = 1;
nodes = (
"229 619 OFFCURVE",
"198 603 OFFCURVE",
"178 576 CURVE SMOOTH",
"158 549 OFFCURVE",
"148 513 OFFCURVE",
"148 476 CURVE SMOOTH",
"148 437 OFFCURVE",
"158 401 OFFCURVE",
"178 374 CURVE SMOOTH",
"198 347 OFFCURVE",
"229 329 OFFCURVE",
"270 329 CURVE SMOOTH",
"313 329 OFFCURVE",
"345 346 OFFCURVE",
"366 374 CURVE SMOOTH",
"386 401 OFFCURVE",
"397 437 OFFCURVE",
"397 476 CURVE SMOOTH",
"397 513 OFFCURVE",
"386 550 OFFCURVE",
"366 576 CURVE SMOOTH",
"345 602 OFFCURVE",
"313 619 OFFCURVE",
"270 619 CURVE SMOOTH"
);
}
);
width = 556;
}
);
note = nine;
unicode = 0039;
},
{
glyphname = colon;
layers = (
{
layerId = "54BFC50A-6637-4CB7-8178-55EF9B54D6CA";
name = Regular;
paths = (
{
closed = 1;
nodes = (
"69 135 LINE",
"208 135 LINE",
"208 0 LINE",
"69 0 LINE"
);
},
{
closed = 1;
nodes = (
"69 506 LINE",
"208 506 LINE",
"208 371 LINE",
"69 371 LINE"
);
}
);
width = 278;
}
);
note = colon;
unicode = 003A;
},
{
glyphname = semicolon;
layers = (
{
layerId = "54BFC50A-6637-4CB7-8178-55EF9B54D6CA";
name = Regular;
paths = (
{
closed = 1;
nodes = (
"69 506 LINE",
"208 506 LINE",
"208 371 LINE",
"69 371 LINE"
);
},
{
closed = 1;
nodes = (
"69 135 LINE",
"208 135 LINE",
"208 0 LINE SMOOTH",
"207 -83 OFFCURVE",
"153 -142 OFFCURVE",
"73 -158 CURVE",
"73 -97 LINE",
"117 -86 OFFCURVE",
"139 -43 OFFCURVE",
"138 0 CURVE",
"69 0 LINE"
);
}
);
width = 278;
}
);
note = semicolon;
unicode = 003B;
},
{
glyphname = less;
layers = (
{
layerId = "54BFC50A-6637-4CB7-8178-55EF9B54D6CA";
name = Regular;
paths = (
{
closed = 1;
nodes = (
"554 -8 LINE",
"46 217 LINE",
"46 289 LINE",
"554 514 LINE",
"554 412 LINE",
"180 253 LINE",
"554 94 LINE"
);
}
);
width = 600;
}
);
note = less;
unicode = 003C;
},
{
glyphname = equal;
layers = (
{
layerId = "54BFC50A-6637-4CB7-8178-55EF9B54D6CA";
name = Regular;
paths = (
{
closed = 1;
nodes = (
"552 101 LINE",
"48 101 LINE",
"48 203 LINE",
"552 203 LINE"
);
},
{
closed = 1;
nodes = (
"552 303 LINE",
"48 303 LINE",
"48 405 LINE",
"552 405 LINE"
);
}
);
width = 600;
}
);
note = equal;
unicode = 003D;
},
{
glyphname = greater;
layers = (
{
layerId = "54BFC50A-6637-4CB7-8178-55EF9B54D6CA";
name = Regular;
paths = (
{
closed = 1;
nodes = (
"420 253 LINE",
"46 412 LINE",
"46 514 LINE",
"554 289 LINE",
"554 217 LINE",
"46 -8 LINE",
"46 94 LINE"
);
}
);
width = 600;
}
);
note = greater;
unicode = 003E;
},
{
glyphname = question;
layers = (
{
layerId = "54BFC50A-6637-4CB7-8178-55EF9B54D6CA";
name = Regular;
paths = (
{
closed = 1;
nodes = (
"208 125 LINE",
"342 125 LINE",
"342 0 LINE",
"208 0 LINE"
);
},
{
closed = 1;
nodes = (
"49 487 LINE",
"49 560 OFFCURVE",
"72 621 OFFCURVE",
"114 664 CURVE SMOOTH",
"156 707 OFFCURVE",
"216 731 OFFCURVE",
"289 731 CURVE SMOOTH",
"350 731 OFFCURVE",
"404 713 OFFCURVE",
"444 679 CURVE SMOOTH",
"483 645 OFFCURVE",
"507 593 OFFCURVE",
"507 529 CURVE SMOOTH",
"507 482 OFFCURVE",
"496 449 OFFCURVE",
"480 425 CURVE SMOOTH",
"463 400 OFFCURVE",
"440 382 OFFCURVE",
"419 363 CURVE",
"394 342 OFFCURVE",
"372 323 OFFCURVE",
"356 299 CURVE SMOOTH",
"340 274 OFFCURVE",
"331 242 OFFCURVE",
"331 194 CURVE",
"223 194 LINE",
"223 253 OFFCURVE",
"229 291 OFFCURVE",
"242 322 CURVE SMOOTH",
"255 353 OFFCURVE",
"274 374 OFFCURVE",
"301 397 CURVE SMOOTH",
"312 406 OFFCURVE",
"322 415 OFFCURVE",
"332 423 CURVE SMOOTH",
"351 439 OFFCURVE",
"367 458 OFFCURVE",
"376 482 CURVE",
"380 494 OFFCURVE",
"382 508 OFFCURVE",
"382 525 CURVE SMOOTH",
"382 565 OFFCURVE",
"366 594 OFFCURVE",
"346 611 CURVE SMOOTH",
"326 628 OFFCURVE",
"301 636 OFFCURVE",
"284 636 CURVE SMOOTH",
"201 636 OFFCURVE",
"163 578 OFFCURVE",
"163 487 CURVE"
);
}
);
width = 556;
}
);
note = question;
unicode = 003F;
},
{
glyphname = at;
layers = (
{
layerId = "54BFC50A-6637-4CB7-8178-55EF9B54D6CA";
name = Regular;
paths = (
{
closed = 1;
nodes = (
"543 279 LINE",
"538 263 OFFCURVE",
"534 246 OFFCURVE",
"534 233 CURVE SMOOTH",
"534 220 OFFCURVE",
"540 210 OFFCURVE",
"553 210 CURVE SMOOTH",
"584 210 OFFCURVE",
"617 233 OFFCURVE",
"642 272 CURVE SMOOTH",
"666 311 OFFCURVE",
"683 365 OFFCURVE",
"683 426 CURVE SMOOTH",
"683 501 OFFCURVE",
"653 561 OFFCURVE",
"605 602 CURVE SMOOTH",
"556 643 OFFCURVE",
"489 666 OFFCURVE",
"416 666 CURVE SMOOTH",
"331 666 OFFCURVE",
"260 633 OFFCURVE",
"209 579 CURVE SMOOTH",
"158 525 OFFCURVE",
"129 450 OFFCURVE",
"129 366 CURVE SMOOTH",
"129 269 OFFCURVE",
"161 189 OFFCURVE",
"214 134 CURVE SMOOTH",
"266 79 OFFCURVE",
"341 48 OFFCURVE",
"425 48 CURVE SMOOTH",
"513 48 OFFCURVE",
"595 84 OFFCURVE",
"650 147 CURVE",
"720 147 LINE",
"656 43 OFFCURVE",
"545 -17 OFFCURVE",
"421 -17 CURVE SMOOTH",
"318 -17 OFFCURVE",
"225 23 OFFCURVE",
"158 91 CURVE SMOOTH",
"90 159 OFFCURVE",
"49 255 OFFCURVE",
"49 370 CURVE SMOOTH",
"49 471 OFFCURVE",
"91 561 OFFCURVE",
"158 626 CURVE SMOOTH",
"225 691 OFFCURVE",
"316 731 OFFCURVE",
"416 731 CURVE SMOOTH",
"505 731 OFFCURVE",
"589 701 OFFCURVE",
"650 649 CURVE SMOOTH",
"711 597 OFFCURVE",
"751 523 OFFCURVE",
"751 438 CURVE SMOOTH",
"751 338 OFFCURVE",
"712 263 OFFCURVE",
"664 214 CURVE SMOOTH",
"615 165 OFFCURVE",
"555 140 OFFCURVE",
"515 140 CURVE SMOOTH",
"484 140 OFFCURVE",
"459 159 OFFCURVE",
"456 198 CURVE",
"454 198 LINE",
"427 167 OFFCURVE",
"385 141 OFFCURVE",
"342 141 CURVE SMOOTH",
"301 141 OFFCURVE",
"264 159 OFFCURVE",
"238 188 CURVE SMOOTH",
"212 216 OFFCURVE",
"196 255 OFFCURVE",
"196 298 CURVE SMOOTH",
"196 362 OFFCURVE",
"219 426 OFFCURVE",
"257 475 CURVE SMOOTH",
"295 524 OFFCURVE",
"350 557 OFFCURVE",
"415 557 CURVE SMOOTH",
"462 557 OFFCURVE",
"502 536 OFFCURVE",
"527 485 CURVE",
"545 542 LINE",
"615 542 LINE"
);
},
{
closed = 1;
nodes = (
"401 216 OFFCURVE",
"435 242 OFFCURVE",
"459 278 CURVE SMOOTH",
"483 313 OFFCURVE",
"498 358 OFFCURVE",
"498 394 CURVE SMOOTH",
"498 418 OFFCURVE",
"489 440 OFFCURVE",
"475 456 CURVE SMOOTH",
"461 472 OFFCURVE",
"440 482 OFFCURVE",
"419 482 CURVE SMOOTH",
"378 482 OFFCURVE",
"343 457 OFFCURVE",
"319 423 CURVE SMOOTH",
"295 389 OFFCURVE",
"281 344 OFFCURVE",
"281 307 CURVE SMOOTH",
"281 254 OFFCURVE",
"312 216 OFFCURVE",
"361 216 CURVE SMOOTH"
);
}
);
width = 800;
}
);
note = at;
unicode = 0040;
},
{
glyphname = A;
layers = (
{
layerId = "54BFC50A-6637-4CB7-8178-55EF9B54D6CA";
name = Regular;
paths = (
{
closed = 1;
nodes = (
"267 714 LINE",
"400 714 LINE",
"675 0 LINE",
"541 0 LINE",
"474 189 LINE",
"189 189 LINE",
"122 0 LINE",
"-7 0 LINE"
);
},
{
closed = 1;
nodes = (
"223 284 LINE",
"441 284 LINE",
"334 591 LINE",
"331 591 LINE"
);
}
);
width = 667;
}
);
note = A;
unicode = 0041;
},
{
glyphname = B;
layers = (
{
layerId = "54BFC50A-6637-4CB7-8178-55EF9B54D6CA";
name = Regular;
paths = (
{
closed = 1;
nodes = (
"201 415 LINE",
"405 415 LINE SMOOTH",
"465 415 OFFCURVE",
"510 450 OFFCURVE",
"510 514 CURVE SMOOTH",
"510 586 OFFCURVE",
"473 612 OFFCURVE",
"405 612 CURVE SMOOTH",
"201 612 LINE"
);
},
{
closed = 1;
nodes = (
"76 714 LINE",
"423 714 LINE SMOOTH",
"551 714 OFFCURVE",
"635 656 OFFCURVE",
"635 537 CURVE SMOOTH",
"635 465 OFFCURVE",
"598 413 OFFCURVE",
"533 385 CURVE",
"533 383 LINE",
"621 364 OFFCURVE",
"667 296 OFFCURVE",
"667 199 CURVE SMOOTH",
"667 143 OFFCURVE",
"648 93 OFFCURVE",
"605 58 CURVE SMOOTH",
"562 22 OFFCURVE",
"496 0 OFFCURVE",
"404 0 CURVE SMOOTH",
"76 0 LINE"
);
},
{
closed = 1;
nodes = (
"201 102 LINE",
"422 102 LINE SMOOTH",
"498 102 OFFCURVE",
"542 143 OFFCURVE",
"542 215 CURVE SMOOTH",
"542 286 OFFCURVE",
"498 325 OFFCURVE",
"422 325 CURVE SMOOTH",
"201 325 LINE"
);
}
);
width = 704;
}
);
note = B;
unicode = 0042;
},
{
glyphname = C;
lastChange = "2016-01-24 02:50:33 +0000";
layers = (
{
layerId = "54BFC50A-6637-4CB7-8178-55EF9B54D6CA";
name = Regular;
paths = (
{
closed = 1;
nodes = (
"558 497 LINE",
"547 538 OFFCURVE",
"529 564 OFFCURVE",
"500 589 CURVE SMOOTH",
"471 614 OFFCURVE",
"432 629 OFFCURVE",
"380 629 CURVE SMOOTH",
"304 629 OFFCURVE",
"249 596 OFFCURVE",
"214 545 CURVE SMOOTH",
"178 493 OFFCURVE",
"162 425 OFFCURVE",
"162 357 CURVE SMOOTH",
"162 289 OFFCURVE",
"178 221 OFFCURVE",
"214 170 CURVE SMOOTH",
"250 119 OFFCURVE",
"304 85 OFFCURVE",
"380 85 CURVE SMOOTH",
"436 85 OFFCURVE",
"478 106 OFFCURVE",
"509 140 CURVE SMOOTH",
"540 174 OFFCURVE",
"557 210 OFFCURVE",
"562 262 CURVE",
"684 262 LINE",
"679 177 OFFCURVE",
"646 115 OFFCURVE",
"593 64 CURVE SMOOTH",
"540 12 OFFCURVE",
"467 -17 OFFCURVE",
"380 -17 CURVE SMOOTH",
"273 -17 OFFCURVE",
"188 25 OFFCURVE",
"129 93 CURVE SMOOTH",
"70 161 OFFCURVE",
"38 254 OFFCURVE",
"38 357 CURVE SMOOTH",
"38 458 OFFCURVE",
"70 552 OFFCURVE",
"129 620 CURVE SMOOTH",
"188 688 OFFCURVE",
"273 731 OFFCURVE",
"380 731 CURVE SMOOTH",
"460 731 OFFCURVE",
"532 709 OFFCURVE",
"586 667 CURVE SMOOTH",
"640 625 OFFCURVE",
"674 574 OFFCURVE",
"682 497 CURVE"
);
}
);
width = 722;
}
);
note = C;
unicode = 0043;
},
{
glyphname = D;
layers = (
{
layerId = "54BFC50A-6637-4CB7-8178-55EF9B54D6CA";
name = Regular;
paths = (
{
closed = 1;
nodes = (
"76 714 LINE",
"372 714 LINE SMOOTH",
"481 714 OFFCURVE",
"561 674 OFFCURVE",
"612 610 CURVE SMOOTH",
"663 545 OFFCURVE",
"687 456 OFFCURVE",
"687 357 CURVE SMOOTH",
"687 258 OFFCURVE",
"663 169 OFFCURVE",
"612 105 CURVE SMOOTH",
"561 40 OFFCURVE",
"481 0 OFFCURVE",
"372 0 CURVE SMOOTH",
"76 0 LINE"
);
},
{
closed = 1;
nodes = (
"201 102 LINE",
"324 102 LINE SMOOTH",
"421 102 OFFCURVE",
"481 130 OFFCURVE",
"517 176 CURVE SMOOTH",
"552 222 OFFCURVE",
"562 285 OFFCURVE",
"562 357 CURVE SMOOTH",
"562 429 OFFCURVE",
"552 493 OFFCURVE",
"517 539 CURVE SMOOTH",
"481 585 OFFCURVE",
"421 612 OFFCURVE",
"324 612 CURVE SMOOTH",
"201 612 LINE"
);
}
);
width = 722;
}
);
note = D;
unicode = 0044;
},
{
glyphname = E;
layers = (
{
layerId = "54BFC50A-6637-4CB7-8178-55EF9B54D6CA";
name = Regular;
paths = (
{
closed = 1;
nodes = (
"76 714 LINE",
"590 714 LINE",
"590 606 LINE",
"201 606 LINE",
"201 419 LINE",
"561 419 LINE",
"561 317 LINE",
"201 317 LINE",
"201 108 LINE",
"597 108 LINE",
"597 0 LINE",
"76 0 LINE"
);
}
);
width = 630;
}
);
note = E;
unicode = 0045;
},
{
glyphname = F;
layers = (
{
layerId = "54BFC50A-6637-4CB7-8178-55EF9B54D6CA";
name = Regular;
paths = (
{
closed = 1;
nodes = (
"76 714 LINE",
"569 714 LINE",
"569 606 LINE",
"201 606 LINE",
"201 419 LINE",
"524 419 LINE",
"524 317 LINE",
"201 317 LINE",
"201 0 LINE",
"76 0 LINE"
);
}
);
width = 593;
}
);
note = F;
unicode = 0046;
},
{
glyphname = G;
lastChange = "2016-01-24 01:02:16 +0000";
layers = (
{
layerId = "54BFC50A-6637-4CB7-8178-55EF9B54D6CA";
name = Regular;
paths = (
{
closed = 1;
nodes = (
"699 0 LINE",
"600 0 LINE",
"600 84 LINE",
"533 8 OFFCURVE",
"472 -17 OFFCURVE",
"385 -17 CURVE SMOOTH",
"278 -17 OFFCURVE",
"193 25 OFFCURVE",
"134 93 CURVE SMOOTH",
"75 161 OFFCURVE",
"43 254 OFFCURVE",
"43 357 CURVE SMOOTH",
"43 458 OFFCURVE",
"75 552 OFFCURVE",
"134 620 CURVE SMOOTH",
"193 688 OFFCURVE",
"278 731 OFFCURVE",
"385 731 CURVE SMOOTH",
"462 731 OFFCURVE",
"534 710 OFFCURVE",
"589 670 CURVE SMOOTH",
"644 629 OFFCURVE",
"682 567 OFFCURVE",
"691 487 CURVE",
"569 487 LINE",
"562 534 OFFCURVE",
"539 569 OFFCURVE",
"506 593 CURVE SMOOTH",
"473 617 OFFCURVE",
"430 629 OFFCURVE",
"385 629 CURVE SMOOTH",
"309 629 OFFCURVE",
"254 596 OFFCURVE",
"219 545 CURVE SMOOTH",
"184 493 OFFCURVE",
"168 425 OFFCURVE",
"168 357 CURVE SMOOTH",
"168 289 OFFCURVE",
"184 221 OFFCURVE",
"219 170 CURVE SMOOTH",
"254 118 OFFCURVE",
"309 85 OFFCURVE",
"385 85 CURVE SMOOTH",
"449 84 OFFCURVE",
"499 103 OFFCURVE",
"533 137 CURVE SMOOTH",
"567 171 OFFCURVE",
"584 221 OFFCURVE",
"585 281 CURVE",
"395 281 LINE",
"395 376 LINE",
"699 376 LINE"
);
}
);
width = 759;
}
);
note = G;
unicode = 0047;
},
{
glyphname = H;
layers = (
{
layerId = "54BFC50A-6637-4CB7-8178-55EF9B54D6CA";
name = Regular;
paths = (
{
closed = 1;
nodes = (
"73 714 LINE",
"198 714 LINE",
"198 430 LINE",
"523 430 LINE",
"523 714 LINE",
"648 714 LINE",
"648 0 LINE",
"523 0 LINE",
"523 322 LINE",
"198 322 LINE",
"198 0 LINE",
"73 0 LINE"
);
}
);
width = 722;
}
);
note = H;
unicode = 0048;
},
{
glyphname = I;
layers = (
{
layerId = "54BFC50A-6637-4CB7-8178-55EF9B54D6CA";
name = Regular;
paths = (
{
closed = 1;
nodes = (
"76 714 LINE",
"201 714 LINE",
"201 0 LINE",
"76 0 LINE"
);
}
);
width = 278;
}
);
note = I;
unicode = 0049;
},
{
glyphname = J;
lastChange = "2016-01-24 01:05:27 +0000";
layers = (
{
layerId = "54BFC50A-6637-4CB7-8178-55EF9B54D6CA";
name = Regular;
paths = (
{
closed = 1;
nodes = (
"461 230 LINE SMOOTH",
"461 167 OFFCURVE",
"453 107 OFFCURVE",
"421 60 CURVE SMOOTH",
"388 13 OFFCURVE",
"329 -17 OFFCURVE",
"226 -17 CURVE SMOOTH",
"150 -17 OFFCURVE",
"98 8 OFFCURVE",
"63 49 CURVE SMOOTH",
"28 89 OFFCURVE",
"13 137 OFFCURVE",
"13 202 CURVE SMOOTH",
"13 240 LINE",
"138 240 LINE",
"138 203 LINE SMOOTH",
"138 122 OFFCURVE",
"160 85 OFFCURVE",
"236 85 CURVE SMOOTH",
"276 85 OFFCURVE",
"301 97 OFFCURVE",
"317 121 CURVE SMOOTH",
"332 144 OFFCURVE",
"336 179 OFFCURVE",
"336 223 CURVE SMOOTH",
"336 714 LINE",
"461 714 LINE"
);
}
);
width = 537;
}
);
note = J;
unicode = 004A;
},
{
glyphname = K;
layers = (
{
layerId = "54BFC50A-6637-4CB7-8178-55EF9B54D6CA";
name = Regular;
paths = (
{
closed = 1;
nodes = (
"76 714 LINE",
"201 714 LINE",
"201 389 LINE",
"519 714 LINE",
"673 714 LINE",
"388 429 LINE",
"693 0 LINE",
"537 0 LINE",
"303 341 LINE",
"201 240 LINE",
"201 0 LINE",
"76 0 LINE"
);
}
);
width = 685;
}
);
note = K;
unicode = 004B;
},
{
glyphname = L;
layers = (
{
layerId = "54BFC50A-6637-4CB7-8178-55EF9B54D6CA";
name = Regular;
paths = (
{
closed = 1;
nodes = (
"76 714 LINE",
"201 714 LINE",
"201 108 LINE",
"564 108 LINE",
"564 0 LINE",
"76 0 LINE"
);
}
);
width = 574;
}
);
note = L;
unicode = 004C;
},
{
glyphname = M;
layers = (
{
layerId = "54BFC50A-6637-4CB7-8178-55EF9B54D6CA";
name = Regular;
paths = (
{
closed = 1;
nodes = (
"74 714 LINE",
"250 714 LINE",
"447 155 LINE",
"449 155 LINE",
"641 714 LINE",
"815 714 LINE",
"815 0 LINE",
"696 0 LINE",
"696 551 LINE",
"694 551 LINE",
"496 0 LINE",
"393 0 LINE",
"195 551 LINE",
"193 551 LINE",
"193 0 LINE",
"74 0 LINE"
);
}
);
width = 889;
}
);
note = M;
unicode = 004D;
},
{
glyphname = N;
layers = (
{
layerId = "54BFC50A-6637-4CB7-8178-55EF9B54D6CA";
name = Regular;
paths = (
{
closed = 1;
nodes = (
"71 714 LINE",
"203 714 LINE",
"529 188 LINE",
"531 188 LINE",
"531 714 LINE",
"650 714 LINE",
"650 0 LINE",
"518 0 LINE",
"193 525 LINE",
"190 525 LINE",
"190 0 LINE",
"71 0 LINE"
);
}
);
width = 722;
}
);
note = N;
unicode = 004E;
},
{
glyphname = O;
layers = (
{
layerId = "54BFC50A-6637-4CB7-8178-55EF9B54D6CA";
name = Regular;
paths = (
{
closed = 1;
nodes = (
"304 629 OFFCURVE",
"249 596 OFFCURVE",
"214 545 CURVE SMOOTH",
"179 493 OFFCURVE",
"163 425 OFFCURVE",
"163 357 CURVE SMOOTH",
"163 289 OFFCURVE",
"179 221 OFFCURVE",
"214 170 CURVE SMOOTH",
"249 118 OFFCURVE",
"304 85 OFFCURVE",
"380 85 CURVE SMOOTH",
"456 85 OFFCURVE",
"511 118 OFFCURVE",
"546 170 CURVE SMOOTH",
"581 221 OFFCURVE",
"597 289 OFFCURVE",
"597 357 CURVE SMOOTH",
"597 425 OFFCURVE",
"581 493 OFFCURVE",
"546 545 CURVE SMOOTH",
"511 596 OFFCURVE",
"456 629 OFFCURVE",
"380 629 CURVE SMOOTH"
);
},
{
closed = 1;
nodes = (
"487 731 OFFCURVE",
"572 688 OFFCURVE",
"631 620 CURVE SMOOTH",
"690 552 OFFCURVE",
"722 458 OFFCURVE",
"722 357 CURVE SMOOTH",
"722 254 OFFCURVE",
"690 161 OFFCURVE",
"631 93 CURVE SMOOTH",
"572 25 OFFCURVE",
"487 -17 OFFCURVE",
"380 -17 CURVE SMOOTH",
"273 -17 OFFCURVE",
"188 25 OFFCURVE",
"129 93 CURVE SMOOTH",
"70 161 OFFCURVE",
"38 254 OFFCURVE",
"38 357 CURVE SMOOTH",
"38 458 OFFCURVE",
"70 552 OFFCURVE",
"129 620 CURVE SMOOTH",
"188 688 OFFCURVE",
"273 731 OFFCURVE",
"380 731 CURVE SMOOTH"
);
}
);
width = 760;
}
);
note = O;
unicode = 004F;
},
{
glyphname = P;
layers = (
{
layerId = "54BFC50A-6637-4CB7-8178-55EF9B54D6CA";
name = Regular;
paths = (
{
closed = 1;
nodes = (
"76 714 LINE",
"391 714 LINE SMOOTH",
"492 714 OFFCURVE",
"554 681 OFFCURVE",
"589 637 CURVE SMOOTH",
"624 593 OFFCURVE",
"634 537 OFFCURVE",
"634 493 CURVE SMOOTH",
"634 449 OFFCURVE",
"624 394 OFFCURVE",
"589 350 CURVE SMOOTH",
"554 306 OFFCURVE",
"492 274 OFFCURVE",
"391 274 CURVE SMOOTH",
"201 274 LINE",
"201 0 LINE",
"76 0 LINE"
);
},
{
closed = 1;
nodes = (
"201 376 LINE",
"384 376 LINE SMOOTH",
"412 376 OFFCURVE",
"443 384 OFFCURVE",
"468 402 CURVE SMOOTH",
"492 420 OFFCURVE",
"509 449 OFFCURVE",
"509 494 CURVE SMOOTH",
"509 541 OFFCURVE",
"495 571 OFFCURVE",
"472 589 CURVE SMOOTH",
"449 607 OFFCURVE",
"419 612 OFFCURVE",
"386 612 CURVE SMOOTH",
"201 612 LINE"
);
}
);
width = 667;
}
);
note = P;
unicode = 0050;
},
{
glyphname = Q;
lastChange = "2016-01-24 03:02:57 +0000";
layers = (
{
layerId = "54BFC50A-6637-4CB7-8178-55EF9B54D6CA";
name = Regular;
paths = (
{
closed = 1;
nodes = (
"698 18 LINE",
"637 -50 LINE",
"548 26 LINE",
"495 -5 OFFCURVE",
"436 -17 OFFCURVE",
"380 -17 CURVE SMOOTH",
"273 -17 OFFCURVE",
"188 25 OFFCURVE",
"129 93 CURVE SMOOTH",
"70 161 OFFCURVE",
"38 254 OFFCURVE",
"38 357 CURVE SMOOTH",
"38 458 OFFCURVE",
"70 552 OFFCURVE",
"129 620 CURVE SMOOTH",
"188 688 OFFCURVE",
"273 731 OFFCURVE",
"380 731 CURVE SMOOTH",
"487 731 OFFCURVE",
"572 688 OFFCURVE",
"631 620 CURVE SMOOTH",
"690 552 OFFCURVE",
"722 458 OFFCURVE",
"722 357 CURVE SMOOTH",
"722 308 OFFCURVE",
"714 257 OFFCURVE",
"698 209 CURVE SMOOTH",
"682 161 OFFCURVE",
"657 116 OFFCURVE",
"621 83 CURVE"
);
},
{
closed = 1;
nodes = (
"388 165 LINE",
"448 234 LINE",
"535 158 LINE",
"580 213 OFFCURVE",
"597 285 OFFCURVE",
"597 357 CURVE SMOOTH",
"597 425 OFFCURVE",
"581 493 OFFCURVE",
"546 545 CURVE SMOOTH",
"511 596 OFFCURVE",
"456 629 OFFCURVE",
"380 629 CURVE SMOOTH",
"304 629 OFFCURVE",
"249 596 OFFCURVE",
"214 545 CURVE SMOOTH",
"179 493 OFFCURVE",
"163 425 OFFCURVE",
"163 357 CURVE SMOOTH",
"163 289 OFFCURVE",
"179 221 OFFCURVE",
"214 170 CURVE SMOOTH",
"249 118 OFFCURVE",
"304 85 OFFCURVE",
"380 85 CURVE SMOOTH",
"407 85 OFFCURVE",
"435 90 OFFCURVE",
"460 102 CURVE"
);
}
);
width = 760;
}
);
note = Q;
unicode = 0051;
},
{
glyphname = R;
lastChange = "2016-01-24 02:42:49 +0000";
layers = (
{
layerId = "54BFC50A-6637-4CB7-8178-55EF9B54D6CA";
name = Regular;
paths = (
{
closed = 1;
nodes = (
"85 714 LINE",
"419 714 LINE SMOOTH",
"572 714 OFFCURVE",
"644 642 OFFCURVE",
"644 521 CURVE SMOOTH",
"644 453 OFFCURVE",
"637 414 OFFCURVE",
"611 387 CURVE SMOOTH",
"584 359 OFFCURVE",
"563 349 OFFCURVE",
"551 345 CURVE",
"551 343 LINE",
"572 340 OFFCURVE",
"595 331 OFFCURVE",
"616 308 CURVE SMOOTH",
"637 284 OFFCURVE",
"644 244 OFFCURVE",
"644 188 CURVE",
"644 0 LINE",
"529 0 LINE",
"529 105 LINE",
"529 170 OFFCURVE",
"529 217 OFFCURVE",
"508 249 CURVE SMOOTH",
"487 280 OFFCURVE",
"444 294 OFFCURVE",
"387 294 CURVE SMOOTH",
"201 294 LINE",
"201 0 LINE",
"85 0 LINE"
);
},
{
closed = 1;
nodes = (
"201 389 LINE",
"412 389 LINE SMOOTH",
"492 389 OFFCURVE",
"534 427 OFFCURVE",
"534 503 CURVE SMOOTH",
"534 548 OFFCURVE",
"520 576 OFFCURVE",
"497 592 CURVE SMOOTH",
"473 608 OFFCURVE",
"442 612 OFFCURVE",
"410 612 CURVE SMOOTH",
"201 612 LINE"
);
}
);
width = 704;
}
);
note = R;
unicode = 0052;
},
{
glyphname = S;
lastChange = "2016-01-24 01:07:06 +0000";
layers = (
{
layerId = "54BFC50A-6637-4CB7-8178-55EF9B54D6CA";
name = Regular;
paths = (
{
closed = 1;
nodes = (
"158 228 LINE",
"158 173 OFFCURVE",
"178 145 OFFCURVE",
"211 121 CURVE SMOOTH",
"244 96 OFFCURVE",
"288 85 OFFCURVE",
"339 85 CURVE SMOOTH",
"394 85 OFFCURVE",
"432 99 OFFCURVE",
"456 119 CURVE SMOOTH",
"480 139 OFFCURVE",
"490 166 OFFCURVE",
"490 193 CURVE SMOOTH",
"490 248 OFFCURVE",
"460 270 OFFCURVE",
"431 281 CURVE SMOOTH",
"406 290 OFFCURVE",
"376 299 OFFCURVE",
"343 308 CURVE",
"275 324 OFFCURVE",
"182 346 OFFCURVE",
"142 372 CURVE SMOOTH",
"101 398 OFFCURVE",
"78 430 OFFCURVE",
"68 466 CURVE SMOOTH",
"63 484 OFFCURVE",
"60 502 OFFCURVE",
"60 521 CURVE SMOOTH",
"60 593 OFFCURVE",
"93 645 OFFCURVE",
"142 680 CURVE SMOOTH",
"191 715 OFFCURVE",
"257 731 OFFCURVE",
"321 731 CURVE SMOOTH",
"396 731 OFFCURVE",
"464 712 OFFCURVE",
"514 673 CURVE SMOOTH",
"564 634 OFFCURVE",
"595 588 OFFCURVE",
"595 513 CURVE",
"470 513 LINE",
"463 605 OFFCURVE",
"403 629 OFFCURVE",
"316 629 CURVE SMOOTH",
"287 629 OFFCURVE",
"254 624 OFFCURVE",
"229 610 CURVE SMOOTH",
"204 596 OFFCURVE",
"185 572 OFFCURVE",
"185 536 CURVE SMOOTH",
"185 485 OFFCURVE",
"219 459 OFFCURVE",
"270 444 CURVE",
"273 443 OFFCURVE",
"283 441 OFFCURVE",
"302 436 CURVE SMOOTH",
"338 426 OFFCURVE",
"386 413 OFFCURVE",
"430 402 CURVE SMOOTH",
"473 390 OFFCURVE",
"502 384 OFFCURVE",
"537 359 CURVE SMOOTH",
"572 334 OFFCURVE",
"595 300 OFFCURVE",
"607 263 CURVE",
"612 244 OFFCURVE",
"615 226 OFFCURVE",
"615 207 CURVE SMOOTH",
"615 127 OFFCURVE",
"579 71 OFFCURVE",
"526 35 CURVE SMOOTH",
"473 -1 OFFCURVE",
"402 -17 OFFCURVE",
"331 -17 CURVE SMOOTH",
"250 -17 OFFCURVE",
"175 3 OFFCURVE",
"122 44 CURVE SMOOTH",
"69 85 OFFCURVE",
"34 140 OFFCURVE",
"33 228 CURVE"
);
}
);
width = 648;
}
);
note = S;
unicode = 0053;
},
{
glyphname = T;
layers = (
{
layerId = "54BFC50A-6637-4CB7-8178-55EF9B54D6CA";
name = Regular;
paths = (
{
closed = 1;
nodes = (
"8 714 LINE",
"586 714 LINE",
"586 606 LINE",
"359 606 LINE",
"359 0 LINE",
"234 0 LINE",
"234 606 LINE",
"8 606 LINE"
);
}
);
width = 593;
}
);
note = T;
unicode = 0054;
},
{
glyphname = U;
layers = (
{
layerId = "54BFC50A-6637-4CB7-8178-55EF9B54D6CA";
name = Regular;
paths = (
{
closed = 1;
nodes = (
"68 714 LINE",
"193 714 LINE",
"193 298 LINE SMOOTH",
"193 250 OFFCURVE",
"195 198 OFFCURVE",
"217 159 CURVE SMOOTH",
"239 119 OFFCURVE",
"280 91 OFFCURVE",
"361 91 CURVE SMOOTH",
"442 91 OFFCURVE",
"484 119 OFFCURVE",
"506 159 CURVE SMOOTH",
"528 198 OFFCURVE",
"529 250 OFFCURVE",
"529 298 CURVE SMOOTH",
"529 714 LINE",
"654 714 LINE",
"654 257 LINE SMOOTH",
"654 165 OFFCURVE",
"625 98 OFFCURVE",
"574 52 CURVE SMOOTH",
"522 6 OFFCURVE",
"449 -17 OFFCURVE",
"361 -17 CURVE SMOOTH",
"273 -17 OFFCURVE",
"200 6 OFFCURVE",
"149 52 CURVE SMOOTH",
"97 98 OFFCURVE",
"68 165 OFFCURVE",
"68 257 CURVE SMOOTH"
);
}
);
width = 722;
}
);
note = U;
unicode = 0055;
},
{
glyphname = V;
layers = (
{
layerId = "54BFC50A-6637-4CB7-8178-55EF9B54D6CA";
name = Regular;
paths = (
{
closed = 1;
nodes = (
"-5 714 LINE",
"125 714 LINE",
"304 149 LINE",
"306 149 LINE",
"489 714 LINE",
"616 714 LINE",
"372 0 LINE",
"233 0 LINE"
);
}
);
width = 611;
}
);
note = V;
unicode = 0056;
},
{
glyphname = W;
layers = (
{
layerId = "54BFC50A-6637-4CB7-8178-55EF9B54D6CA";
name = Regular;
paths = (
{
closed = 1;
nodes = (
"6 714 LINE",
"133 714 LINE",
"262 168 LINE",
"264 168 LINE",
"408 714 LINE",
"536 714 LINE",
"676 168 LINE",
"678 168 LINE",
"811 714 LINE",
"938 714 LINE",
"741 0 LINE",
"614 0 LINE",
"471 546 LINE",
"469 546 LINE",
"323 0 LINE",
"194 0 LINE"
);
}
);
width = 944;
}
);
note = W;
unicode = 0057;
},
{
glyphname = X;
layers = (
{
layerId = "54BFC50A-6637-4CB7-8178-55EF9B54D6CA";
name = Regular;
paths = (
{
closed = 1;
nodes = (
"14 714 LINE",
"163 714 LINE",
"325 462 LINE",
"494 714 LINE",
"634 714 LINE",
"398 370 LINE",
"651 0 LINE",
"499 0 LINE",
"321 273 LINE",
"140 0 LINE",
"-3 0 LINE",
"250 370 LINE"
);
}
);
width = 648;
}
);
note = X;
unicode = 0058;
},
{
glyphname = Y;
layers = (
{
layerId = "54BFC50A-6637-4CB7-8178-55EF9B54D6CA";
name = Regular;
paths = (
{
closed = 1;
nodes = (
"262 280 LINE",
"-6 714 LINE",
"139 714 LINE",
"328 394 LINE",
"514 714 LINE",
"654 714 LINE",
"387 280 LINE",
"387 0 LINE",
"262 0 LINE"
);
}
);
width = 648;
}
);
note = Y;
unicode = 0059;
},
{
glyphname = Z;
layers = (
{
layerId = "54BFC50A-6637-4CB7-8178-55EF9B54D6CA";
name = Regular;
paths = (
{
closed = 1;
nodes = (
"55 714 LINE",
"598 714 LINE",
"598 619 LINE",
"182 108 LINE",
"608 108 LINE",
"608 0 LINE",
"23 0 LINE",
"23 102 LINE",
"439 606 LINE",
"55 606 LINE"
);
}
);
width = 630;
}
);
note = Z;
unicode = 005A;
},
{
glyphname = bracketleft;
layers = (
{
layerId = "54BFC50A-6637-4CB7-8178-55EF9B54D6CA";
name = Regular;
paths = (
{
closed = 1;
nodes = (
"72 731 LINE",
"295 731 LINE",
"295 641 LINE",
"180 641 LINE",
"180 -101 LINE",
"295 -101 LINE",
"295 -191 LINE",
"72 -191 LINE"
);
}
);
width = 296;
}
);
note = bracketleft;
unicode = 005B;
},
{
glyphname = backslash;
layers = (
{
layerId = "54BFC50A-6637-4CB7-8178-55EF9B54D6CA";
name = Regular;
paths = (
{
closed = 1;
nodes = (
"374 -17 LINE",
"265 -17 LINE",
"-22 731 LINE",
"87 731 LINE"
);
}
);
width = 352;
}
);
note = backslash;
unicode = 005C;
},
{
glyphname = bracketright;
layers = (
{
layerId = "54BFC50A-6637-4CB7-8178-55EF9B54D6CA";
name = Regular;
paths = (
{
closed = 1;
nodes = (
"224 -191 LINE",
"1 -191 LINE",
"1 -101 LINE",
"116 -101 LINE",
"116 641 LINE",
"1 641 LINE",
"1 731 LINE",
"224 731 LINE"
);
}
);
width = 296;
}
);
note = bracketright;
unicode = 005D;
},
{
glyphname = asciicircum;
layers = (
{
layerId = "54BFC50A-6637-4CB7-8178-55EF9B54D6CA";
name = Regular;
paths = (
{
closed = 1;
nodes = (
"84 335 LINE",
"264 700 LINE",
"336 700 LINE",
"516 335 LINE",
"414 335 LINE",
"300 582 LINE",
"186 335 LINE"
);
}
);
width = 600;
}
);
note = asciicircum;
unicode = 005E;
},
{
glyphname = underscore;
layers = (
{
layerId = "54BFC50A-6637-4CB7-8178-55EF9B54D6CA";
name = Regular;
paths = (
{
closed = 1;
nodes = (
"0 -125 LINE",
"0 -75 LINE",
"500 -75 LINE",
"500 -125 LINE"
);
}
);
width = 500;
}
);
note = underscore;
unicode = 005F;
},
{
glyphname = grave;
layers = (
{
layerId = "54BFC50A-6637-4CB7-8178-55EF9B54D6CA";
name = Regular;
paths = (
{
closed = 1;
nodes = (
"105 732 LINE",
"196 589 LINE",
"113 589 LINE",
"-29 732 LINE"
);
}
);
width = 241;
}
);
note = grave;
unicode = 0060;
},
{
glyphname = a;
lastChange = "2016-01-24 16:28:01 +0000";
layers = (
{
layerId = "54BFC50A-6637-4CB7-8178-55EF9B54D6CA";
name = Regular;
paths = (
{
closed = 1;
nodes = (
"493 -3 LINE",
"388 -3 LINE",
"388 49 LINE",
"343 5 OFFCURVE",
"270 -11 OFFCURVE",
"209 -11 CURVE SMOOTH",
"162 -11 OFFCURVE",
"121 2 OFFCURVE",
"89 27 CURVE SMOOTH",
"56 51 OFFCURVE",
"35 86 OFFCURVE",
"35 137 CURVE SMOOTH",
"35 201 OFFCURVE",
"61 239 OFFCURVE",
"99 262 CURVE SMOOTH",
"137 285 OFFCURVE",
"183 293 OFFCURVE",
"231 298 CURVE",
"252 302 OFFCURVE",
"271 305 OFFCURVE",
"290 307 CURVE SMOOTH",
"327 310 OFFCURVE",
"357 317 OFFCURVE",
"374 334 CURVE SMOOTH",
"382 342 OFFCURVE",
"386 354 OFFCURVE",
"386 371 CURVE SMOOTH",
"386 400 OFFCURVE",
"370 419 OFFCURVE",
"350 429 CURVE SMOOTH",
"329 439 OFFCURVE",
"302 441 OFFCURVE",
"279 441 CURVE SMOOTH",
"215 441 OFFCURVE",
"170 425 OFFCURVE",
"165 369 CURVE",
"51 369 LINE",
"55 436 OFFCURVE",
"85 468 OFFCURVE",
"129 495 CURVE SMOOTH",
"172 522 OFFCURVE",
"229 531 OFFCURVE",
"286 531 CURVE SMOOTH",
"337 531 OFFCURVE",
"388 521 OFFCURVE",
"428 497 CURVE SMOOTH",
"467 473 OFFCURVE",
"493 436 OFFCURVE",
"493 381 CURVE SMOOTH"
);
},
{
closed = 1;
nodes = (
"379 259 LINE",
"362 248 OFFCURVE",
"340 241 OFFCURVE",
"315 239 CURVE",
"290 236 OFFCURVE",
"262 233 OFFCURVE",
"237 228 CURVE SMOOTH",
"213 224 OFFCURVE",
"189 217 OFFCURVE",
"172 205 CURVE",
"155 192 OFFCURVE",
"144 171 OFFCURVE",
"144 142 CURVE SMOOTH",
"144 117 OFFCURVE",
"161 100 OFFCURVE",
"182 90 CURVE SMOOTH",
"202 80 OFFCURVE",
"229 76 OFFCURVE",
"249 76 CURVE SMOOTH",
"274 76 OFFCURVE",
"308 82 OFFCURVE",
"334 98 CURVE SMOOTH",
"360 114 OFFCURVE",
"379 138 OFFCURVE",
"379 174 CURVE SMOOTH"
);
}
);
width = 543;
}
);
note = a;
unicode = 0061;
},
{
glyphname = b;
layers = (
{
layerId = "54BFC50A-6637-4CB7-8178-55EF9B54D6CA";
name = Regular;
paths = (
{
closed = 1;
nodes = (
"63 714 LINE",
"177 714 LINE",
"177 450 LINE",
"179 450 LINE",
"195 475 OFFCURVE",
"218 496 OFFCURVE",
"246 510 CURVE SMOOTH",
"273 524 OFFCURVE",
"304 531 OFFCURVE",
"333 531 CURVE SMOOTH",
"414 531 OFFCURVE",
"475 501 OFFCURVE",
"515 451 CURVE SMOOTH",
"555 401 OFFCURVE",
"575 332 OFFCURVE",
"575 256 CURVE SMOOTH",
"575 187 OFFCURVE",
"557 119 OFFCURVE",
"521 69 CURVE SMOOTH",
"484 19 OFFCURVE",
"428 -14 OFFCURVE",
"352 -14 CURVE SMOOTH",
"317 -14 OFFCURVE",
"281 -10 OFFCURVE",
"249 3 CURVE SMOOTH",
"217 16 OFFCURVE",
"190 36 OFFCURVE",
"173 71 CURVE",
"171 71 LINE",
"171 0 LINE",
"63 0 LINE"
);
},
{
closed = 1;
nodes = (
"461 305 OFFCURVE",
"449 351 OFFCURVE",
"425 385 CURVE SMOOTH",
"401 419 OFFCURVE",
"365 441 OFFCURVE",
"318 441 CURVE SMOOTH",
"222 441 OFFCURVE",
"173 369 OFFCURVE",
"173 258 CURVE SMOOTH",
"173 206 OFFCURVE",
"186 160 OFFCURVE",
"211 128 CURVE SMOOTH",
"236 96 OFFCURVE",
"271 76 OFFCURVE",
"318 76 CURVE SMOOTH",
"370 76 OFFCURVE",
"405 100 OFFCURVE",
"429 134 CURVE SMOOTH",
"452 168 OFFCURVE",
"461 213 OFFCURVE",
"461 258 CURVE SMOOTH"
);
}
);
width = 611;
}
);
note = b;
unicode = 0062;
},
{
glyphname = c;
lastChange = "2016-01-24 01:34:16 +0000";
layers = (
{
layerId = "54BFC50A-6637-4CB7-8178-55EF9B54D6CA";
name = Regular;
paths = (
{
closed = 1;
nodes = (
"409 344 LINE",
"400 408 OFFCURVE",
"353 440 OFFCURVE",
"291 440 CURVE SMOOTH",
"262 440 OFFCURVE",
"219 432 OFFCURVE",
"191 405 CURVE SMOOTH",
"163 377 OFFCURVE",
"142 331 OFFCURVE",
"142 253 CURVE SMOOTH",
"142 210 OFFCURVE",
"152 165 OFFCURVE",
"174 132 CURVE SMOOTH",
"196 99 OFFCURVE",
"237 76 OFFCURVE",
"286 76 CURVE SMOOTH",
"353 76 OFFCURVE",
"398 116 OFFCURVE",
"409 191 CURVE",
"517 191 LINE",
"496 56 OFFCURVE",
"419 -14 OFFCURVE",
"286 -14 CURVE SMOOTH",
"205 -14 OFFCURVE",
"145 15 OFFCURVE",
"102 63 CURVE SMOOTH",
"59 110 OFFCURVE",
"37 177 OFFCURVE",
"37 253 CURVE SMOOTH",
"37 330 OFFCURVE",
"58 401 OFFCURVE",
"101 451 CURVE SMOOTH",
"144 501 OFFCURVE",
"205 531 OFFCURVE",
"290 531 CURVE SMOOTH",
"350 531 OFFCURVE",
"406 516 OFFCURVE",
"448 485 CURVE SMOOTH",
"490 454 OFFCURVE",
"512 408 OFFCURVE",
"517 344 CURVE"
);
}
);
width = 556;
}
);
note = c;
unicode = 0063;
},
{
glyphname = d;
layers = (
{
layerId = "54BFC50A-6637-4CB7-8178-55EF9B54D6CA";
name = Regular;
paths = (
{
closed = 1;
nodes = (
"547 0 LINE",
"439 0 LINE",
"439 70 LINE",
"437 70 LINE",
"406 10 OFFCURVE",
"342 -14 OFFCURVE",
"277 -14 CURVE SMOOTH",
"196 -14 OFFCURVE",
"135 17 OFFCURVE",
"95 66 CURVE SMOOTH",
"55 115 OFFCURVE",
"35 185 OFFCURVE",
"35 262 CURVE SMOOTH",
"35 355 OFFCURVE",
"63 423 OFFCURVE",
"105 467 CURVE SMOOTH",
"147 511 OFFCURVE",
"203 531 OFFCURVE",
"259 531 CURVE SMOOTH",
"291 531 OFFCURVE",
"325 525 OFFCURVE",
"356 512 CURVE SMOOTH",
"387 499 OFFCURVE",
"414 478 OFFCURVE",
"431 450 CURVE",
"433 450 LINE",
"433 714 LINE",
"547 714 LINE"
);
},
{
closed = 1;
nodes = (
"149 209 OFFCURVE",
"160 164 OFFCURVE",
"184 131 CURVE SMOOTH",
"207 98 OFFCURVE",
"243 76 OFFCURVE",
"292 76 CURVE SMOOTH",
"343 76 OFFCURVE",
"379 99 OFFCURVE",
"403 134 CURVE SMOOTH",
"426 169 OFFCURVE",
"437 214 OFFCURVE",
"437 259 CURVE SMOOTH",
"437 374 OFFCURVE",
"382 441 OFFCURVE",
"294 441 CURVE SMOOTH",
"241 441 OFFCURVE",
"205 417 OFFCURVE",
"182 382 CURVE SMOOTH",
"158 346 OFFCURVE",
"149 300 OFFCURVE",
"149 253 CURVE SMOOTH"
);
}
);
width = 611;
}
);
note = d;
unicode = 0064;
},
{
glyphname = e;
lastChange = "2016-01-24 01:10:03 +0000";
layers = (
{
layerId = "54BFC50A-6637-4CB7-8178-55EF9B54D6CA";
name = Regular;
paths = (
{
closed = 1;
nodes = (
"415 308 LINE",
"412 344 OFFCURVE",
"400 375 OFFCURVE",
"378 400 CURVE SMOOTH",
"356 424 OFFCURVE",
"324 441 OFFCURVE",
"285 441 CURVE SMOOTH",
"245 441 OFFCURVE",
"212 426 OFFCURVE",
"189 402 CURVE SMOOTH",
"165 377 OFFCURVE",
"150 347 OFFCURVE",
"149 308 CURVE"
);
},
{
closed = 1;
nodes = (
"149 233 LINE",
"149 193 OFFCURVE",
"160 150 OFFCURVE",
"183 122 CURVE SMOOTH",
"206 94 OFFCURVE",
"240 76 OFFCURVE",
"288 76 CURVE SMOOTH",
"355 76 OFFCURVE",
"394 101 OFFCURVE",
"414 158 CURVE",
"522 158 LINE",
"510 102 OFFCURVE",
"479 62 OFFCURVE",
"438 32 CURVE SMOOTH",
"397 2 OFFCURVE",
"344 -14 OFFCURVE",
"288 -14 CURVE SMOOTH",
"207 -14 OFFCURVE",
"144 14 OFFCURVE",
"101 62 CURVE SMOOTH",
"57 110 OFFCURVE",
"35 178 OFFCURVE",
"35 258 CURVE SMOOTH",
"35 331 OFFCURVE",
"59 400 OFFCURVE",
"103 450 CURVE SMOOTH",
"146 500 OFFCURVE",
"208 531 OFFCURVE",
"285 531 CURVE SMOOTH",
"366 531 OFFCURVE",
"432 494 OFFCURVE",
"475 438 CURVE SMOOTH",
"518 382 OFFCURVE",
"538 310 OFFCURVE",
"529 233 CURVE"
);
}
);
width = 556;
}
);
note = e;
unicode = 0065;
},
{
glyphname = f;
lastChange = "2016-01-24 01:10:53 +0000";
layers = (
{
layerId = "54BFC50A-6637-4CB7-8178-55EF9B54D6CA";
name = Regular;
paths = (
{
closed = 1;
nodes = (
"9 517 LINE",
"94 517 LINE",
"94 560 LINE SMOOTH",
"94 625 OFFCURVE",
"111 665 OFFCURVE",
"138 687 CURVE SMOOTH",
"165 709 OFFCURVE",
"187 714 OFFCURVE",
"224 714 CURVE SMOOTH",
"261 714 OFFCURVE",
"287 712 OFFCURVE",
"304 707 CURVE",
"304 618 LINE",
"289 622 OFFCURVE",
"274 624 OFFCURVE",
"251 624 CURVE SMOOTH",
"220 624 OFFCURVE",
"208 613 OFFCURVE",
"208 570 CURVE SMOOTH",
"208 517 LINE",
"305 517 LINE",
"305 432 LINE",
"208 432 LINE",
"208 0 LINE",
"94 0 LINE",
"94 432 LINE",
"9 432 LINE"
);
}
);
width = 315;
}
);
note = f;
unicode = 0066;
},
{
glyphname = g;
lastChange = "2016-01-24 01:11:33 +0000";
layers = (
{
layerId = "54BFC50A-6637-4CB7-8178-55EF9B54D6CA";
name = Regular;
paths = (
{
closed = 1;
nodes = (
"538 27 LINE SMOOTH",
"538 -129 OFFCURVE",
"448 -205 OFFCURVE",
"284 -205 CURVE SMOOTH",
"232 -205 OFFCURVE",
"177 -195 OFFCURVE",
"134 -170 CURVE SMOOTH",
"90 -145 OFFCURVE",
"58 -112 OFFCURVE",
"53 -52 CURVE",
"167 -52 LINE",
"174 -84 OFFCURVE",
"191 -100 OFFCURVE",
"213 -106 CURVE",
"235 -118 OFFCURVE",
"262 -120 OFFCURVE",
"291 -120 CURVE SMOOTH",
"383 -120 OFFCURVE",
"424 -73 OFFCURVE",
"424 12 CURVE SMOOTH",
"424 91 LINE",
"422 91 LINE",
"390 34 OFFCURVE",
"331 0 OFFCURVE",
"267 0 CURVE SMOOTH",
"184 0 OFFCURVE",
"128 31 OFFCURVE",
"90 81 CURVE SMOOTH",
"52 131 OFFCURVE",
"35 197 OFFCURVE",
"35 272 CURVE SMOOTH",
"35 341 OFFCURVE",
"57 406 OFFCURVE",
"97 454 CURVE SMOOTH",
"137 501 OFFCURVE",
"196 526 OFFCURVE",
"269 526 CURVE SMOOTH",
"334 526 OFFCURVE",
"393 525 OFFCURVE",
"422 466 CURVE",
"424 466 LINE",
"424 517 LINE",
"538 517 LINE"
);
},
{
closed = 1;
nodes = (
"336 90 OFFCURVE",
"371 113 OFFCURVE",
"393 147 CURVE SMOOTH",
"415 181 OFFCURVE",
"424 226 OFFCURVE",
"424 270 CURVE SMOOTH",
"424 314 OFFCURVE",
"414 357 OFFCURVE",
"392 389 CURVE SMOOTH",
"370 421 OFFCURVE",
"334 441 OFFCURVE",
"285 441 CURVE SMOOTH",
"234 441 OFFCURVE",
"200 418 OFFCURVE",
"179 384 CURVE SMOOTH",
"158 350 OFFCURVE",
"149 304 OFFCURVE",
"149 261 CURVE SMOOTH",
"149 218 OFFCURVE",
"160 176 OFFCURVE",
"182 144 CURVE SMOOTH",
"204 112 OFFCURVE",
"237 90 OFFCURVE",
"285 90 CURVE SMOOTH"
);
}
);
width = 593;
}
);
note = g;
unicode = 0067;
},
{
glyphname = h;
lastChange = "2016-01-24 01:11:46 +0000";
layers = (
{
layerId = "54BFC50A-6637-4CB7-8178-55EF9B54D6CA";
name = Regular;
paths = (
{
closed = 1;
nodes = (
"60 714 LINE",
"174 714 LINE",
"174 469 LINE",
"176 469 LINE",
"204 516 OFFCURVE",
"263 531 OFFCURVE",
"331 531 CURVE SMOOTH",
"444 531 OFFCURVE",
"514 472 OFFCURVE",
"514 355 CURVE SMOOTH",
"514 0 LINE",
"400 0 LINE",
"400 325 LINE",
"397 406 OFFCURVE",
"367 441 OFFCURVE",
"299 441 CURVE SMOOTH",
"260 441 OFFCURVE",
"229 426 OFFCURVE",
"208 402 CURVE SMOOTH",
"187 377 OFFCURVE",
"174 342 OFFCURVE",
"174 305 CURVE SMOOTH",
"174 0 LINE",
"60 0 LINE"
);
}
);
width = 574;
}
);
note = h;
unicode = 0068;
},
{
glyphname = i;
lastChange = "2016-01-24 01:12:07 +0000";
layers = (
{
layerId = "54BFC50A-6637-4CB7-8178-55EF9B54D6CA";
name = Regular;
paths = (
{
closed = 1;
nodes = (
"63 714 LINE",
"177 714 LINE",
"177 616 LINE",
"63 616 LINE"
);
},
{
closed = 1;
nodes = (
"63 517 LINE",
"177 517 LINE",
"177 0 LINE",
"63 0 LINE"
);
}
);
width = 241;
}
);
note = i;
unicode = 0069;
},
{
glyphname = j;
lastChange = "2016-01-24 01:12:26 +0000";
layers = (
{
layerId = "54BFC50A-6637-4CB7-8178-55EF9B54D6CA";
name = Regular;
paths = (
{
closed = 1;
nodes = (
"63 714 LINE",
"177 714 LINE",
"177 616 LINE",
"63 616 LINE"
);
},
{
closed = 1;
nodes = (
"63 517 LINE",
"177 517 LINE",
"177 -44 LINE SMOOTH",
"177 -147 OFFCURVE",
"136 -205 OFFCURVE",
"29 -205 CURVE SMOOTH",
"6 -205 OFFCURVE",
"-7 -204 OFFCURVE",
"-22 -201 CURVE",
"-22 -111 LINE",
"-7 -114 OFFCURVE",
"6 -115 OFFCURVE",
"17 -115 CURVE SMOOTH",
"58 -115 OFFCURVE",
"63 -90 OFFCURVE",
"63 -39 CURVE SMOOTH"
);
}
);
width = 241;
}
);
note = j;
unicode = 006A;
},
{
glyphname = k;
layers = (
{
layerId = "54BFC50A-6637-4CB7-8178-55EF9B54D6CA";
name = Regular;
paths = (
{
closed = 1;
nodes = (
"63 714 LINE",
"177 714 LINE",
"177 308 LINE",
"383 517 LINE",
"523 517 LINE",
"325 327 LINE",
"542 0 LINE",
"403 0 LINE",
"245 251 LINE",
"177 185 LINE",
"177 0 LINE",
"63 0 LINE"
);
}
);
width = 537;
}
);
note = k;
unicode = 006B;
},
{
glyphname = l;
layers = (
{
layerId = "54BFC50A-6637-4CB7-8178-55EF9B54D6CA";
name = Regular;
paths = (
{
closed = 1;
nodes = (
"63 714 LINE",
"177 714 LINE",
"177 0 LINE",
"63 0 LINE"
);
}
);
width = 241;
}
);
note = l;
unicode = 006C;
},
{
glyphname = m;
lastChange = "2016-01-24 01:12:44 +0000";
layers = (
{
layerId = "54BFC50A-6637-4CB7-8178-55EF9B54D6CA";
name = Regular;
paths = (
{
closed = 1;
nodes = (
"60 517 LINE",
"168 517 LINE",
"168 445 LINE",
"171 445 LINE",
"188 470 OFFCURVE",
"208 492 OFFCURVE",
"233 507 CURVE SMOOTH",
"258 522 OFFCURVE",
"289 531 OFFCURVE",
"330 531 CURVE SMOOTH",
"393 531 OFFCURVE",
"452 504 OFFCURVE",
"475 445 CURVE",
"514 498 OFFCURVE",
"561 531 OFFCURVE",
"637 531 CURVE SMOOTH",
"746 531 OFFCURVE",
"810 482 OFFCURVE",
"810 357 CURVE SMOOTH",
"810 0 LINE",
"696 0 LINE",
"696 302 LINE SMOOTH",
"696 343 OFFCURVE",
"695 378 OFFCURVE",
"683 403 CURVE",
"670 427 OFFCURVE",
"646 441 OFFCURVE",
"602 441 CURVE SMOOTH",
"525 441 OFFCURVE",
"492 391 OFFCURVE",
"492 303 CURVE SMOOTH",
"492 0 LINE",
"378 0 LINE",
"378 332 LINE SMOOTH",
"378 404 OFFCURVE",
"356 441 OFFCURVE",
"287 441 CURVE SMOOTH",
"258 441 OFFCURVE",
"229 429 OFFCURVE",
"209 406 CURVE SMOOTH",
"188 383 OFFCURVE",
"174 350 OFFCURVE",
"174 307 CURVE SMOOTH",
"174 0 LINE",
"60 0 LINE"
);
}
);
width = 870;
}
);
note = m;
unicode = 006D;
},
{
glyphname = n;
layers = (
{
layerId = "54BFC50A-6637-4CB7-8178-55EF9B54D6CA";
name = Regular;
paths = (
{
closed = 1;
nodes = (
"60 517 LINE",
"168 517 LINE",
"168 441 LINE",
"170 439 LINE",
"205 496 OFFCURVE",
"263 531 OFFCURVE",
"331 531 CURVE SMOOTH",
"444 531 OFFCURVE",
"514 472 OFFCURVE",
"514 355 CURVE SMOOTH",
"514 0 LINE",
"400 0 LINE",
"400 325 LINE",
"397 406 OFFCURVE",
"367 441 OFFCURVE",
"299 441 CURVE SMOOTH",
"260 441 OFFCURVE",
"229 426 OFFCURVE",
"208 402 CURVE SMOOTH",
"187 377 OFFCURVE",
"174 342 OFFCURVE",
"174 305 CURVE SMOOTH",
"174 0 LINE",
"60 0 LINE"
);
}
);
width = 574;
}
);
note = n;
unicode = 006E;
},
{
glyphname = o;
layers = (
{
layerId = "54BFC50A-6637-4CB7-8178-55EF9B54D6CA";
name = Regular;
paths = (
{
closed = 1;
nodes = (
"214 -14 OFFCURVE",
"149 15 OFFCURVE",
"105 63 CURVE SMOOTH",
"60 111 OFFCURVE",
"36 179 OFFCURVE",
"36 259 CURVE SMOOTH",
"36 338 OFFCURVE",
"60 406 OFFCURVE",
"105 454 CURVE SMOOTH",
"149 502 OFFCURVE",
"214 531 OFFCURVE",
"297 531 CURVE SMOOTH",
"380 531 OFFCURVE",
"445 502 OFFCURVE",
"490 454 CURVE SMOOTH",
"534 406 OFFCURVE",
"558 338 OFFCURVE",
"558 259 CURVE SMOOTH",
"558 179 OFFCURVE",
"534 111 OFFCURVE",
"490 63 CURVE SMOOTH",
"445 15 OFFCURVE",
"380 -14 OFFCURVE",
"297 -14 CURVE SMOOTH"
);
},
{
closed = 1;
nodes = (
"348 76 OFFCURVE",
"385 99 OFFCURVE",
"409 134 CURVE SMOOTH",
"433 169 OFFCURVE",
"444 214 OFFCURVE",
"444 259 CURVE SMOOTH",
"444 303 OFFCURVE",
"433 350 OFFCURVE",
"409 384 CURVE SMOOTH",
"385 418 OFFCURVE",
"348 441 OFFCURVE",
"297 441 CURVE SMOOTH",
"246 441 OFFCURVE",
"209 418 OFFCURVE",
"185 384 CURVE SMOOTH",
"161 350 OFFCURVE",
"150 303 OFFCURVE",
"150 259 CURVE SMOOTH",
"150 214 OFFCURVE",
"161 169 OFFCURVE",
"185 134 CURVE SMOOTH",
"209 99 OFFCURVE",
"246 76 OFFCURVE",
"297 76 CURVE SMOOTH"
);
}
);
width = 593;
}
);
note = o;
unicode = 006F;
},
{
glyphname = p;
layers = (
{
layerId = "54BFC50A-6637-4CB7-8178-55EF9B54D6CA";
name = Regular;
paths = (
{
closed = 1;
nodes = (
"63 517 LINE",
"171 517 LINE",
"171 447 LINE",
"173 447 LINE",
"205 507 OFFCURVE",
"266 531 OFFCURVE",
"333 531 CURVE SMOOTH",
"414 531 OFFCURVE",
"475 501 OFFCURVE",
"515 451 CURVE SMOOTH",
"555 401 OFFCURVE",
"575 332 OFFCURVE",
"575 256 CURVE SMOOTH",
"575 187 OFFCURVE",
"557 119 OFFCURVE",
"521 69 CURVE SMOOTH",
"484 19 OFFCURVE",
"428 -14 OFFCURVE",
"352 -14 CURVE SMOOTH",
"319 -14 OFFCURVE",
"285 -8 OFFCURVE",
"254 5 CURVE SMOOTH",
"223 18 OFFCURVE",
"196 39 OFFCURVE",
"179 67 CURVE",
"177 67 LINE",
"177 -191 LINE",
"63 -191 LINE"
);
},
{
closed = 1;
nodes = (
"461 305 OFFCURVE",
"449 351 OFFCURVE",
"425 385 CURVE SMOOTH",
"401 419 OFFCURVE",
"365 441 OFFCURVE",
"318 441 CURVE SMOOTH",
"222 441 OFFCURVE",
"173 369 OFFCURVE",
"173 258 CURVE SMOOTH",
"173 206 OFFCURVE",
"186 160 OFFCURVE",
"211 128 CURVE SMOOTH",
"236 96 OFFCURVE",
"271 76 OFFCURVE",
"318 76 CURVE SMOOTH",
"370 76 OFFCURVE",
"405 100 OFFCURVE",
"429 134 CURVE SMOOTH",
"452 168 OFFCURVE",
"461 213 OFFCURVE",
"461 258 CURVE SMOOTH"
);
}
);
width = 611;
}
);
note = p;
unicode = 0070;
},
{
glyphname = q;
layers = (
{
layerId = "54BFC50A-6637-4CB7-8178-55EF9B54D6CA";
name = Regular;
paths = (
{
closed = 1;
nodes = (
"547 -191 LINE",
"433 -191 LINE",
"433 67 LINE",
"431 67 LINE",
"412 39 OFFCURVE",
"387 18 OFFCURVE",
"356 5 CURVE SMOOTH",
"325 -8 OFFCURVE",
"291 -14 OFFCURVE",
"258 -14 CURVE SMOOTH",
"182 -14 OFFCURVE",
"126 19 OFFCURVE",
"90 69 CURVE SMOOTH",
"53 119 OFFCURVE",
"35 187 OFFCURVE",
"35 256 CURVE SMOOTH",
"35 332 OFFCURVE",
"55 401 OFFCURVE",
"95 451 CURVE SMOOTH",
"135 501 OFFCURVE",
"196 531 OFFCURVE",
"277 531 CURVE SMOOTH",
"344 531 OFFCURVE",
"405 507 OFFCURVE",
"437 447 CURVE",
"439 447 LINE",
"439 517 LINE",
"547 517 LINE"
);
},
{
closed = 1;
nodes = (
"149 213 OFFCURVE",
"158 168 OFFCURVE",
"182 134 CURVE SMOOTH",
"205 100 OFFCURVE",
"240 76 OFFCURVE",
"292 76 CURVE SMOOTH",
"391 76 OFFCURVE",
"437 150 OFFCURVE",
"437 258 CURVE SMOOTH",
"437 371 OFFCURVE",
"388 441 OFFCURVE",
"292 441 CURVE SMOOTH",
"245 441 OFFCURVE",
"209 419 OFFCURVE",
"185 385 CURVE SMOOTH",
"161 351 OFFCURVE",
"149 305 OFFCURVE",
"149 258 CURVE SMOOTH"
);
}
);
width = 611;
}
);
note = q;
unicode = 0071;
},
{
glyphname = r;
lastChange = "2016-01-24 02:53:09 +0000";
layers = (
{
layerId = "54BFC50A-6637-4CB7-8178-55EF9B54D6CA";
name = Regular;
paths = (
{
closed = 1;
nodes = (
"40 517 LINE",
"147 517 LINE",
"147 417 LINE",
"149 417 LINE",
"156 437 OFFCURVE",
"176 465 OFFCURVE",
"204 487 CURVE SMOOTH",
"231 509 OFFCURVE",
"264 523 OFFCURVE",
"299 523 CURVE SMOOTH",
"312 523 OFFCURVE",
"322 523 OFFCURVE",
"327 522 CURVE SMOOTH",
"332 521 OFFCURVE",
"337 521 OFFCURVE",
"342 520 CURVE",
"342 431 LINE",
"326 434 OFFCURVE",
"309 438 OFFCURVE",
"293 436 CURVE SMOOTH",
"254 431 OFFCURVE",
"220 408 OFFCURVE",
"195 378 CURVE SMOOTH",
"170 348 OFFCURVE",
"154 303 OFFCURVE",
"154 246 CURVE SMOOTH",
"154 0 LINE",
"40 0 LINE"
);
}
);
width = 352;
}
);
note = r;
unicode = 0072;
},
{
glyphname = s;
lastChange = "2016-01-24 01:13:46 +0000";
layers = (
{
layerId = "54BFC50A-6637-4CB7-8178-55EF9B54D6CA";
name = Regular;
paths = (
{
closed = 1;
nodes = (
"146 156 LINE",
"153 89 OFFCURVE",
"202 76 OFFCURVE",
"263 76 CURVE SMOOTH",
"284 76 OFFCURVE",
"314 79 OFFCURVE",
"338 88 CURVE SMOOTH",
"362 97 OFFCURVE",
"379 115 OFFCURVE",
"378 144 CURVE SMOOTH",
"377 173 OFFCURVE",
"355 191 OFFCURVE",
"324 203 CURVE",
"308 208 OFFCURVE",
"290 213 OFFCURVE",
"270 217 CURVE SMOOTH",
"230 225 OFFCURVE",
"187 234 OFFCURVE",
"148 247 CURVE SMOOTH",
"108 260 OFFCURVE",
"76 282 OFFCURVE",
"57 318 CURVE SMOOTH",
"48 335 OFFCURVE",
"43 357 OFFCURVE",
"43 383 CURVE SMOOTH",
"43 439 OFFCURVE",
"74 476 OFFCURVE",
"116 500 CURVE SMOOTH",
"158 523 OFFCURVE",
"212 531 OFFCURVE",
"259 531 CURVE SMOOTH",
"312 531 OFFCURVE",
"362 520 OFFCURVE",
"402 495 CURVE SMOOTH",
"441 470 OFFCURVE",
"468 439 OFFCURVE",
"475 382 CURVE",
"356 382 LINE",
"345 437 OFFCURVE",
"302 441 OFFCURVE",
"251 441 CURVE SMOOTH",
"235 441 OFFCURVE",
"211 439 OFFCURVE",
"192 432 CURVE SMOOTH",
"172 424 OFFCURVE",
"157 411 OFFCURVE",
"157 388 CURVE SMOOTH",
"157 360 OFFCURVE",
"178 344 OFFCURVE",
"210 333 CURVE",
"225 327 OFFCURVE",
"243 322 OFFCURVE",
"263 318 CURVE SMOOTH",
"303 310 OFFCURVE",
"346 301 OFFCURVE",
"386 288 CURVE SMOOTH",
"426 275 OFFCURVE",
"458 253 OFFCURVE",
"478 218 CURVE SMOOTH",
"487 201 OFFCURVE",
"492 179 OFFCURVE",
"492 154 CURVE SMOOTH",
"492 93 OFFCURVE",
"461 51 OFFCURVE",
"417 24 CURVE SMOOTH",
"372 -3 OFFCURVE",
"314 -14 OFFCURVE",
"261 -14 CURVE SMOOTH",
"196 -14 OFFCURVE",
"139 1 OFFCURVE",
"99 31 CURVE SMOOTH",
"58 61 OFFCURVE",
"33 95 OFFCURVE",
"32 156 CURVE"
);
}
);
width = 519;
}
);
note = s;
unicode = 0073;
},
{
glyphname = t;
lastChange = "2016-01-24 03:08:04 +0000";
layers = (
{
layerId = "54BFC50A-6637-4CB7-8178-55EF9B54D6CA";
name = Regular;
paths = (
{
closed = 1;
nodes = (
"28 517 LINE",
"94 517 LINE",
"94 662 LINE",
"208 662 LINE",
"208 517 LINE",
"301 517 LINE",
"301 432 LINE",
"208 432 LINE",
"208 156 LINE SMOOTH",
"208 132 OFFCURVE",
"209 115 OFFCURVE",
"217 103 CURVE",
"224 91 OFFCURVE",
"238 85 OFFCURVE",
"263 85 CURVE SMOOTH",
"279 85 OFFCURVE",
"295 85 OFFCURVE",
"311 89 CURVE",
"311 1 LINE",
"298 0 OFFCURVE",
"286 -2 OFFCURVE",
"274 -3 CURVE SMOOTH",
"262 -4 OFFCURVE",
"250 -5 OFFCURVE",
"237 -5 CURVE SMOOTH",
"177 -5 OFFCURVE",
"142 7 OFFCURVE",
"122 29 CURVE SMOOTH",
"101 51 OFFCURVE",
"95 84 OFFCURVE",
"94 127 CURVE",
"94 432 LINE",
"28 432 LINE"
);
}
);
width = 333;
}
);
note = t;
unicode = 0074;
},
{
glyphname = u;
layers = (
{
layerId = "54BFC50A-6637-4CB7-8178-55EF9B54D6CA";
name = Regular;
paths = (
{
closed = 1;
nodes = (
"514 0 LINE",
"402 0 LINE",
"402 72 LINE",
"400 72 LINE",
"372 20 OFFCURVE",
"310 -14 OFFCURVE",
"253 -14 CURVE SMOOTH",
"117 -14 OFFCURVE",
"60 53 OFFCURVE",
"60 189 CURVE SMOOTH",
"60 517 LINE",
"174 517 LINE",
"174 200 LINE SMOOTH",
"174 109 OFFCURVE",
"210 76 OFFCURVE",
"273 76 CURVE SMOOTH",
"321 76 OFFCURVE",
"352 92 OFFCURVE",
"372 117 CURVE SMOOTH",
"392 141 OFFCURVE",
"400 177 OFFCURVE",
"400 217 CURVE SMOOTH",
"400 517 LINE",
"514 517 LINE"
);
}
);
width = 574;
}
);
note = u;
unicode = 0075;
},
{
glyphname = v;
layers = (
{
layerId = "54BFC50A-6637-4CB7-8178-55EF9B54D6CA";
name = Regular;
paths = (
{
closed = 1;
nodes = (
"9 517 LINE",
"133 517 LINE",
"264 120 LINE",
"266 120 LINE",
"392 517 LINE",
"510 517 LINE",
"325 0 LINE",
"197 0 LINE"
);
}
);
width = 519;
}
);
note = v;
unicode = 0076;
},
{
glyphname = w;
layers = (
{
layerId = "54BFC50A-6637-4CB7-8178-55EF9B54D6CA";
name = Regular;
paths = (
{
closed = 1;
nodes = (
"13 517 LINE",
"134 517 LINE",
"235 131 LINE",
"237 131 LINE",
"334 517 LINE",
"449 517 LINE",
"542 131 LINE",
"544 131 LINE",
"649 517 LINE",
"765 517 LINE",
"603 0 LINE",
"486 0 LINE",
"390 384 LINE",
"388 384 LINE",
"293 0 LINE",
"173 0 LINE"
);
}
);
width = 778;
}
);
note = w;
unicode = 0077;
},
{
glyphname = x;
layers = (
{
layerId = "54BFC50A-6637-4CB7-8178-55EF9B54D6CA";
name = Regular;
paths = (
{
closed = 1;
nodes = (
"199 272 LINE",
"20 517 LINE",
"158 517 LINE",
"266 358 LINE",
"379 517 LINE",
"511 517 LINE",
"335 278 LINE",
"533 0 LINE",
"396 0 LINE",
"265 191 LINE",
"138 0 LINE",
"4 0 LINE"
);
}
);
width = 537;
}
);
note = x;
unicode = 0078;
},
{
glyphname = y;
lastChange = "2016-01-24 03:06:40 +0000";
layers = (
{
layerId = "54BFC50A-6637-4CB7-8178-55EF9B54D6CA";
name = Regular;
paths = (
{
closed = 1;
nodes = (
"3 517 LINE",
"128 517 LINE",
"263 131 LINE",
"265 131 LINE",
"396 517 LINE",
"515 517 LINE",
"314 -28 LINE SMOOTH",
"295 -75 OFFCURVE",
"280 -119 OFFCURVE",
"254 -151 CURVE SMOOTH",
"228 -184 OFFCURVE",
"197 -205 OFFCURVE",
"137 -205 CURVE SMOOTH",
"110 -205 OFFCURVE",
"87 -203 OFFCURVE",
"61 -199 CURVE",
"61 -103 LINE",
"70 -104 OFFCURVE",
"79 -106 OFFCURVE",
"88 -107 CURVE",
"97 -109 OFFCURVE",
"103 -110 OFFCURVE",
"112 -110 CURVE SMOOTH",
"139 -110 OFFCURVE",
"149 -103 OFFCURVE",
"161 -90 CURVE SMOOTH",
"172 -78 OFFCURVE",
"179 -61 OFFCURVE",
"186 -38 CURVE SMOOTH",
"199 2 LINE"
);
}
);
width = 519;
}
);
note = y;
unicode = 0079;
},
{
glyphname = z;
layers = (
{
layerId = "54BFC50A-6637-4CB7-8178-55EF9B54D6CA";
name = Regular;
paths = (
{
closed = 1;
nodes = (
"42 517 LINE",
"462 517 LINE",
"462 437 LINE",
"166 90 LINE",
"477 90 LINE",
"477 0 LINE",
"22 0 LINE",
"22 80 LINE",
"308 427 LINE",
"42 427 LINE"
);
}
);
width = 500;
}
);
note = z;
unicode = 007A;
},
{
glyphname = braceleft;
layers = (
{
layerId = "54BFC50A-6637-4CB7-8178-55EF9B54D6CA";
name = Regular;
paths = (
{
closed = 1;
nodes = (
"-4 315 LINE",
"9 315 OFFCURVE",
"33 318 OFFCURVE",
"53 330 CURVE",
"73 341 OFFCURVE",
"90 359 OFFCURVE",
"90 388 CURVE SMOOTH",
"90 594 LINE SMOOTH",
"90 641 OFFCURVE",
"111 675 OFFCURVE",
"138 698 CURVE SMOOTH",
"165 721 OFFCURVE",
"197 731 OFFCURVE",
"218 731 CURVE SMOOTH",
"309 731 LINE",
"309 641 LINE",
"254 641 LINE SMOOTH",
"229 641 OFFCURVE",
"215 632 OFFCURVE",
"207 618 CURVE SMOOTH",
"199 604 OFFCURVE",
"198 586 OFFCURVE",
"198 571 CURVE SMOOTH",
"198 376 LINE SMOOTH",
"198 336 OFFCURVE",
"180 310 OFFCURVE",
"158 295 CURVE SMOOTH",
"136 279 OFFCURVE",
"110 272 OFFCURVE",
"94 271 CURVE",
"94 269 LINE",
"110 268 OFFCURVE",
"136 264 OFFCURVE",
"158 249 CURVE SMOOTH",
"180 233 OFFCURVE",
"198 206 OFFCURVE",
"198 158 CURVE SMOOTH",
"198 -31 LINE SMOOTH",
"198 -46 OFFCURVE",
"199 -63 OFFCURVE",
"207 -77 CURVE SMOOTH",
"215 -91 OFFCURVE",
"229 -101 OFFCURVE",
"254 -101 CURVE SMOOTH",
"309 -101 LINE",
"309 -191 LINE",
"218 -191 LINE SMOOTH",
"197 -191 OFFCURVE",
"165 -181 OFFCURVE",
"138 -158 CURVE SMOOTH",
"111 -135 OFFCURVE",
"90 -101 OFFCURVE",
"90 -54 CURVE SMOOTH",
"90 144 LINE SMOOTH",
"90 176 OFFCURVE",
"73 197 OFFCURVE",
"53 209 CURVE SMOOTH",
"33 221 OFFCURVE",
"9 225 OFFCURVE",
"-4 225 CURVE"
);
}
);
width = 296;
}
);
note = braceleft;
unicode = 007B;
},
{
glyphname = bar;
layers = (
{
layerId = "54BFC50A-6637-4CB7-8178-55EF9B54D6CA";
name = Regular;
paths = (
{
closed = 1;
nodes = (
"60 786 LINE",
"162 786 LINE",
"162 -214 LINE",
"60 -214 LINE"
);
}
);
width = 222;
}
);
note = bar;
unicode = 007C;
},
{
glyphname = braceright;
layers = (
{
layerId = "54BFC50A-6637-4CB7-8178-55EF9B54D6CA";
name = Regular;
paths = (
{
closed = 1;
nodes = (
"300 225 LINE",
"285 225 OFFCURVE",
"262 221 OFFCURVE",
"242 210 CURVE SMOOTH",
"222 199 OFFCURVE",
"206 181 OFFCURVE",
"206 152 CURVE SMOOTH",
"206 -54 LINE SMOOTH",
"206 -101 OFFCURVE",
"185 -135 OFFCURVE",
"158 -158 CURVE SMOOTH",
"131 -181 OFFCURVE",
"99 -191 OFFCURVE",
"78 -191 CURVE SMOOTH",
"-13 -191 LINE",
"-13 -101 LINE",
"42 -101 LINE SMOOTH",
"67 -101 OFFCURVE",
"81 -91 OFFCURVE",
"89 -77 CURVE SMOOTH",
"97 -63 OFFCURVE",
"98 -46 OFFCURVE",
"98 -31 CURVE SMOOTH",
"98 164 LINE SMOOTH",
"98 204 OFFCURVE",
"117 230 OFFCURVE",
"139 246 CURVE SMOOTH",
"161 261 OFFCURVE",
"186 266 OFFCURVE",
"202 269 CURVE",
"202 271 LINE",
"186 272 OFFCURVE",
"161 276 OFFCURVE",
"139 292 CURVE SMOOTH",
"117 307 OFFCURVE",
"98 334 OFFCURVE",
"98 382 CURVE SMOOTH",
"98 571 LINE SMOOTH",
"98 586 OFFCURVE",
"97 604 OFFCURVE",
"89 618 CURVE SMOOTH",
"81 632 OFFCURVE",
"67 641 OFFCURVE",
"42 641 CURVE SMOOTH",
"-13 641 LINE",
"-13 731 LINE",
"78 731 LINE SMOOTH",
"99 731 OFFCURVE",
"131 721 OFFCURVE",
"158 698 CURVE SMOOTH",
"185 675 OFFCURVE",
"206 641 OFFCURVE",
"206 594 CURVE SMOOTH",
"206 396 LINE SMOOTH",
"206 364 OFFCURVE",
"222 343 OFFCURVE",
"242 331 CURVE SMOOTH",
"262 319 OFFCURVE",
"285 315 OFFCURVE",
"300 315 CURVE"
);
}
);
width = 296;
}
);
note = braceright;
unicode = 007D;
},
{
glyphname = asciitilde;
layers = (
{
layerId = "54BFC50A-6637-4CB7-8178-55EF9B54D6CA";
name = Regular;
paths = (
{
closed = 1;
nodes = (
"531 254 LINE",
"516 233 OFFCURVE",
"500 211 OFFCURVE",
"481 195 CURVE SMOOTH",
"461 179 OFFCURVE",
"437 168 OFFCURVE",
"406 168 CURVE SMOOTH",
"369 168 OFFCURVE",
"337 182 OFFCURVE",
"304 201 CURVE SMOOTH",
"272 220 OFFCURVE",
"236 236 OFFCURVE",
"189 236 CURVE SMOOTH",
"166 236 OFFCURVE",
"151 226 OFFCURVE",
"137 214 CURVE",
"123 201 OFFCURVE",
"113 184 OFFCURVE",
"105 168 CURVE",
"69 252 LINE",
"80 273 OFFCURVE",
"95 295 OFFCURVE",
"115 311 CURVE SMOOTH",
"135 327 OFFCURVE",
"161 338 OFFCURVE",
"194 338 CURVE SMOOTH",
"229 338 OFFCURVE",
"266 323 OFFCURVE",
"305 306 CURVE SMOOTH",
"324 298 OFFCURVE",
"342 290 OFFCURVE",
"360 282 CURVE SMOOTH",
"378 274 OFFCURVE",
"394 270 OFFCURVE",
"407 270 CURVE SMOOTH",
"427 270 OFFCURVE",
"444 280 OFFCURVE",
"458 293 CURVE",
"465 299 OFFCURVE",
"471 306 OFFCURVE",
"477 314 CURVE SMOOTH",
"483 322 OFFCURVE",
"489 330 OFFCURVE",
"495 338 CURVE"
);
}
);
width = 600;
}
);
note = asciitilde;
unicode = 007E;
},
{
glyphname = exclamdown;
lastChange = "2016-01-24 17:20:28 +0000";
layers = (
{
layerId = "54BFC50A-6637-4CB7-8178-55EF9B54D6CA";
name = Regular;
paths = (
{
closed = 1;
nodes = (
"206 406 LINE",
"72 406 LINE",
"72 531 LINE",
"206 531 LINE"
);
},
{
closed = 1;
nodes = (
"202 -183 LINE",
"77 -183 LINE",
"77 21 LINE",
"100 332 LINE",
"179 332 LINE",
"202 21 LINE"
);
}
);
width = 278;
}
);
note = exclamdown;
unicode = 00A1;
},
{
glyphname = cent;
layers = (
{
layerId = "54BFC50A-6637-4CB7-8178-55EF9B54D6CA";
name = Regular;
paths = (
{
closed = 1;
nodes = (
"268 -14 LINE",
"196 -14 OFFCURVE",
"138 17 OFFCURVE",
"98 66 CURVE SMOOTH",
"58 114 OFFCURVE",
"37 181 OFFCURVE",
"37 253 CURVE SMOOTH",
"37 337 OFFCURVE",
"61 407 OFFCURVE",
"102 455 CURVE SMOOTH",
"143 503 OFFCURVE",
"200 531 OFFCURVE",
"268 531 CURVE",
"268 621 LINE",
"311 621 LINE",
"311 531 LINE",
"367 531 OFFCURVE",
"418 513 OFFCURVE",
"456 481 CURVE SMOOTH",
"494 449 OFFCURVE",
"520 401 OFFCURVE",
"524 344 CURVE",
"410 344 LINE",
"403 401 OFFCURVE",
"364 441 OFFCURVE",
"311 441 CURVE",
"311 76 LINE",
"372 87 OFFCURVE",
"406 127 OFFCURVE",
"414 194 CURVE",
"528 194 LINE",
"505 67 OFFCURVE",
"435 -14 OFFCURVE",
"311 -14 CURVE",
"311 -104 LINE",
"268 -104 LINE"
);
},
{
closed = 1;
nodes = (
"268 441 LINE",
"224 437 OFFCURVE",
"195 411 OFFCURVE",
"177 375 CURVE SMOOTH",
"159 339 OFFCURVE",
"151 294 OFFCURVE",
"151 253 CURVE SMOOTH",
"151 213 OFFCURVE",
"159 172 OFFCURVE",
"178 140 CURVE SMOOTH",
"197 107 OFFCURVE",
"225 83 OFFCURVE",
"268 76 CURVE"
);
}
);
width = 556;
}
);
note = cent;
unicode = 00A2;
},
{
glyphname = sterling;
layers = (
{
layerId = "54BFC50A-6637-4CB7-8178-55EF9B54D6CA";
name = Regular;
paths = (
{
closed = 1;
nodes = (
"31 384 LINE",
"94 384 LINE",
"63 421 OFFCURVE",
"47 477 OFFCURVE",
"47 525 CURVE SMOOTH",
"47 588 OFFCURVE",
"76 639 OFFCURVE",
"120 675 CURVE SMOOTH",
"164 711 OFFCURVE",
"222 731 OFFCURVE",
"281 731 CURVE SMOOTH",
"434 731 OFFCURVE",
"531 649 OFFCURVE",
"532 484 CURVE",
"418 484 LINE",
"415 527 OFFCURVE",
"406 565 OFFCURVE",
"386 593 CURVE",
"365 620 OFFCURVE",
"331 636 OFFCURVE",
"283 636 CURVE SMOOTH",
"222 636 OFFCURVE",
"172 595 OFFCURVE",
"172 519 CURVE SMOOTH",
"172 472 OFFCURVE",
"197 423 OFFCURVE",
"218 384 CURVE",
"365 384 LINE",
"365 319 LINE",
"242 319 LINE",
"253 299 OFFCURVE",
"258 277 OFFCURVE",
"258 252 CURVE SMOOTH",
"258 216 OFFCURVE",
"247 185 OFFCURVE",
"228 158 CURVE SMOOTH",
"209 130 OFFCURVE",
"184 108 OFFCURVE",
"157 88 CURVE",
"159 86 LINE",
"174 92 OFFCURVE",
"189 98 OFFCURVE",
"204 104 CURVE SMOOTH",
"219 110 OFFCURVE",
"234 113 OFFCURVE",
"251 113 CURVE SMOOTH",
"286 113 OFFCURVE",
"309 104 OFFCURVE",
"332 96 CURVE",
"355 87 OFFCURVE",
"375 78 OFFCURVE",
"406 78 CURVE SMOOTH",
"443 78 OFFCURVE",
"475 92 OFFCURVE",
"503 116 CURVE",
"554 39 LINE",
"503 -4 OFFCURVE",
"459 -17 OFFCURVE",
"394 -17 CURVE SMOOTH",
"378 -17 OFFCURVE",
"362 -15 OFFCURVE",
"346 -11 CURVE",
"329 -8 OFFCURVE",
"312 -5 OFFCURVE",
"295 -2 CURVE",
"262 9 OFFCURVE",
"227 18 OFFCURVE",
"190 18 CURVE SMOOTH",
"155 18 OFFCURVE",
"114 5 OFFCURVE",
"89 -16 CURVE",
"36 65 LINE",
"60 81 OFFCURVE",
"88 107 OFFCURVE",
"109 136 CURVE SMOOTH",
"129 164 OFFCURVE",
"144 196 OFFCURVE",
"144 227 CURVE SMOOTH",
"144 262 OFFCURVE",
"136 292 OFFCURVE",
"123 319 CURVE",
"31 319 LINE"
);
}
);
width = 556;
}
);
note = sterling;
unicode = 00A3;
},
{
glyphname = currency;
layers = (
{
layerId = "54BFC50A-6637-4CB7-8178-55EF9B54D6CA";
name = Regular;
paths = (
{
closed = 1;
nodes = (
"319 201 OFFCURVE",
"355 218 OFFCURVE",
"380 246 CURVE SMOOTH",
"404 273 OFFCURVE",
"419 311 OFFCURVE",
"419 351 CURVE SMOOTH",
"419 391 OFFCURVE",
"404 427 OFFCURVE",
"380 455 CURVE",
"355 482 OFFCURVE",
"320 499 OFFCURVE",
"280 499 CURVE SMOOTH",
"239 499 OFFCURVE",
"203 482 OFFCURVE",
"177 455 CURVE SMOOTH",
"151 428 OFFCURVE",
"135 390 OFFCURVE",
"135 349 CURVE SMOOTH",
"135 308 OFFCURVE",
"151 271 OFFCURVE",
"177 244 CURVE SMOOTH",
"203 217 OFFCURVE",
"239 201 OFFCURVE",
"279 201 CURVE SMOOTH"
);
},
{
closed = 1;
nodes = (
"20 146 LINE",
"77 207 LINE",
"45 243 OFFCURVE",
"27 293 OFFCURVE",
"27 349 CURVE SMOOTH",
"27 405 OFFCURVE",
"42 460 OFFCURVE",
"77 493 CURVE",
"20 554 LINE",
"77 611 LINE",
"134 555 LINE",
"167 583 OFFCURVE",
"224 601 OFFCURVE",
"280 601 CURVE SMOOTH",
"333 601 OFFCURVE",
"386 583 OFFCURVE",
"417 556 CURVE",
"475 613 LINE",
"536 552 LINE",
"480 494 LINE",
"511 462 OFFCURVE",
"527 407 OFFCURVE",
"527 351 CURVE SMOOTH",
"527 295 OFFCURVE",
"510 242 OFFCURVE",
"479 205 CURVE",
"534 146 LINE",
"479 91 LINE",
"422 149 LINE",
"389 117 OFFCURVE",
"335 99 OFFCURVE",
"279 99 CURVE SMOOTH",
"220 99 OFFCURVE",
"167 116 OFFCURVE",
"132 148 CURVE",
"76 90 LINE"
);
}
);
width = 556;
}
);
note = currency;
unicode = 00A4;
},
{
glyphname = yen;
layers = (
{
layerId = "54BFC50A-6637-4CB7-8178-55EF9B54D6CA";
name = Regular;
paths = (
{
closed = 1;
nodes = (
"221 165 LINE",
"84 165 LINE",
"84 230 LINE",
"221 230 LINE",
"221 298 LINE",
"84 298 LINE",
"84 363 LINE",
"182 363 LINE",
"-5 714 LINE",
"122 714 LINE",
"278 394 LINE",
"437 714 LINE",
"561 714 LINE",
"373 363 LINE",
"472 363 LINE",
"472 298 LINE",
"335 298 LINE",
"335 230 LINE",
"472 230 LINE",
"472 165 LINE",
"335 165 LINE",
"335 0 LINE",
"221 0 LINE"
);
}
);
width = 556;
}
);
note = yen;
unicode = 00A5;
},
{
glyphname = brokenbar;
layers = (
{
layerId = "54BFC50A-6637-4CB7-8178-55EF9B54D6CA";
name = Regular;
paths = (
{
closed = 1;
nodes = (
"60 661 LINE",
"162 661 LINE",
"162 411 LINE",
"60 411 LINE"
);
},
{
closed = 1;
nodes = (
"60 161 LINE",
"162 161 LINE",
"162 -89 LINE",
"60 -89 LINE"
);
}
);
width = 222;
}
);
note = brokenbar;
unicode = 00A6;
},
{
glyphname = section;
layers = (
{
layerId = "54BFC50A-6637-4CB7-8178-55EF9B54D6CA";
name = Regular;
paths = (
{
closed = 1;
nodes = (
"377 542 LINE",
"374 598 OFFCURVE",
"340 641 OFFCURVE",
"283 641 CURVE SMOOTH",
"242 641 OFFCURVE",
"201 611 OFFCURVE",
"201 566 CURVE SMOOTH",
"201 534 OFFCURVE",
"222 511 OFFCURVE",
"253 489 CURVE SMOOTH",
"268 478 OFFCURVE",
"286 467 OFFCURVE",
"306 458 CURVE",
"346 438 OFFCURVE",
"388 417 OFFCURVE",
"428 393 CURVE SMOOTH",
"468 369 OFFCURVE",
"501 339 OFFCURVE",
"521 302 CURVE",
"530 283 OFFCURVE",
"535 262 OFFCURVE",
"535 238 CURVE SMOOTH",
"535 206 OFFCURVE",
"523 175 OFFCURVE",
"504 150 CURVE SMOOTH",
"485 125 OFFCURVE",
"458 103 OFFCURVE",
"429 94 CURVE",
"465 63 OFFCURVE",
"484 27 OFFCURVE",
"484 -34 CURVE SMOOTH",
"484 -90 OFFCURVE",
"460 -133 OFFCURVE",
"424 -161 CURVE SMOOTH",
"387 -190 OFFCURVE",
"338 -205 OFFCURVE",
"286 -205 CURVE SMOOTH",
"225 -205 OFFCURVE",
"172 -187 OFFCURVE",
"134 -152 CURVE SMOOTH",
"96 -117 OFFCURVE",
"71 -67 OFFCURVE",
"70 0 CURVE",
"178 0 LINE",
"183 -71 OFFCURVE",
"215 -115 OFFCURVE",
"283 -115 CURVE SMOOTH",
"334 -115 OFFCURVE",
"370 -93 OFFCURVE",
"370 -34 CURVE SMOOTH",
"370 2 OFFCURVE",
"348 30 OFFCURVE",
"316 54 CURVE",
"300 65 OFFCURVE",
"282 76 OFFCURVE",
"261 87 CURVE SMOOTH",
"240 98 OFFCURVE",
"219 109 OFFCURVE",
"198 120 CURVE",
"154 141 OFFCURVE",
"110 166 OFFCURVE",
"78 197 CURVE SMOOTH",
"45 228 OFFCURVE",
"22 264 OFFCURVE",
"22 312 CURVE SMOOTH",
"22 387 OFFCURVE",
"63 433 OFFCURVE",
"130 461 CURVE",
"101 492 OFFCURVE",
"87 519 OFFCURVE",
"87 562 CURVE SMOOTH",
"87 615 OFFCURVE",
"113 658 OFFCURVE",
"150 687 CURVE SMOOTH",
"186 715 OFFCURVE",
"236 731 OFFCURVE",
"284 731 CURVE SMOOTH",
"341 731 OFFCURVE",
"391 713 OFFCURVE",
"427 681 CURVE SMOOTH",
"463 648 OFFCURVE",
"485 601 OFFCURVE",
"485 542 CURVE"
);
},
{
closed = 1;
nodes = (
"191 405 LINE",
"155 394 OFFCURVE",
"130 364 OFFCURVE",
"130 325 CURVE SMOOTH",
"130 317 OFFCURVE",
"131 306 OFFCURVE",
"139 292 CURVE",
"146 278 OFFCURVE",
"160 262 OFFCURVE",
"185 247 CURVE SMOOTH",
"367 145 LINE",
"402 160 OFFCURVE",
"427 186 OFFCURVE",
"427 227 CURVE SMOOTH",
"427 256 OFFCURVE",
"413 279 OFFCURVE",
"357 310 CURVE SMOOTH"
);
}
);
width = 556;
}
);
note = section;
unicode = 00A7;
},
{
glyphname = dieresis;
layers = (
{
layerId = "54BFC50A-6637-4CB7-8178-55EF9B54D6CA";
name = Regular;
paths = (
{
closed = 1;
nodes = (
"-23 602 LINE",
"-23 710 LINE",
"91 710 LINE",
"91 602 LINE"
);
},
{
closed = 1;
nodes = (
"263 710 LINE",
"263 602 LINE",
"149 602 LINE",
"149 710 LINE"
);
}
);
width = 241;
}
);
note = dieresis;
unicode = 00A8;
},
{
glyphname = copyright;
layers = (
{
layerId = "54BFC50A-6637-4CB7-8178-55EF9B54D6CA";
name = Regular;
paths = (
{
closed = 1;
nodes = (
"590 285 LINE",
"582 237 OFFCURVE",
"559 199 OFFCURVE",
"528 172 CURVE SMOOTH",
"497 145 OFFCURVE",
"457 131 OFFCURVE",
"413 131 CURVE SMOOTH",
"349 131 OFFCURVE",
"296 155 OFFCURVE",
"259 196 CURVE SMOOTH",
"222 236 OFFCURVE",
"201 293 OFFCURVE",
"201 357 CURVE SMOOTH",
"201 417 OFFCURVE",
"221 472 OFFCURVE",
"257 510 CURVE SMOOTH",
"293 548 OFFCURVE",
"346 572 OFFCURVE",
"411 572 CURVE SMOOTH",
"503 572 OFFCURVE",
"576 520 OFFCURVE",
"589 421 CURVE",
"521 421 LINE",
"510 472 OFFCURVE",
"468 507 OFFCURVE",
"411 507 CURVE SMOOTH",
"368 507 OFFCURVE",
"337 490 OFFCURVE",
"315 463 CURVE SMOOTH",
"293 436 OFFCURVE",
"281 398 OFFCURVE",
"281 357 CURVE SMOOTH",
"281 313 OFFCURVE",
"293 273 OFFCURVE",
"317 244 CURVE SMOOTH",
"340 215 OFFCURVE",
"373 196 OFFCURVE",
"413 196 CURVE SMOOTH",
"473 196 OFFCURVE",
"514 233 OFFCURVE",
"521 285 CURVE"
);
},
{
closed = 1;
nodes = (
"687 448 OFFCURVE",
"656 525 OFFCURVE",
"604 580 CURVE SMOOTH",
"552 635 OFFCURVE",
"481 666 OFFCURVE",
"401 666 CURVE SMOOTH",
"320 666 OFFCURVE",
"248 635 OFFCURVE",
"196 580 CURVE SMOOTH",
"144 525 OFFCURVE",
"113 448 OFFCURVE",
"113 357 CURVE SMOOTH",
"113 272 OFFCURVE",
"141 195 OFFCURVE",
"191 139 CURVE SMOOTH",
"241 83 OFFCURVE",
"312 48 OFFCURVE",
"401 48 CURVE SMOOTH",
"481 48 OFFCURVE",
"552 79 OFFCURVE",
"604 134 CURVE SMOOTH",
"656 189 OFFCURVE",
"687 265 OFFCURVE",
"687 357 CURVE SMOOTH"
);
},
{
closed = 1;
nodes = (
"767 245 OFFCURVE",
"725 151 OFFCURVE",
"658 86 CURVE SMOOTH",
"590 21 OFFCURVE",
"498 -17 OFFCURVE",
"401 -17 CURVE SMOOTH",
"293 -17 OFFCURVE",
"201 23 OFFCURVE",
"137 90 CURVE SMOOTH",
"72 157 OFFCURVE",
"33 250 OFFCURVE",
"33 357 CURVE SMOOTH",
"33 469 OFFCURVE",
"75 563 OFFCURVE",
"143 628 CURVE SMOOTH",
"210 693 OFFCURVE",
"302 731 OFFCURVE",
"401 731 CURVE SMOOTH",
"498 731 OFFCURVE",
"590 693 OFFCURVE",
"658 628 CURVE SMOOTH",
"725 563 OFFCURVE",
"767 469 OFFCURVE",
"767 357 CURVE SMOOTH"
);
}
);
width = 800;
}
);
note = copyright;
unicode = 00A9;
},
{
glyphname = ordfeminine;
layers = (
{
layerId = "54BFC50A-6637-4CB7-8178-55EF9B54D6CA";
name = Regular;
paths = (
{
closed = 1;
nodes = (
"331 470 LINE SMOOTH",
"331 455 OFFCURVE",
"333 447 OFFCURVE",
"348 448 CURVE",
"350 448 OFFCURVE",
"352 448 OFFCURVE",
"355 448 CURVE SMOOTH",
"358 448 OFFCURVE",
"361 448 OFFCURVE",
"364 449 CURVE",
"364 381 LINE",
"353 377 OFFCURVE",
"329 373 OFFCURVE",
"317 373 CURVE SMOOTH",
"282 373 OFFCURVE",
"262 385 OFFCURVE",
"255 422 CURVE",
"246 407 OFFCURVE",
"227 395 OFFCURVE",
"205 387 CURVE",
"183 378 OFFCURVE",
"158 373 OFFCURVE",
"138 373 CURVE SMOOTH",
"106 373 OFFCURVE",
"76 381 OFFCURVE",
"53 397 CURVE SMOOTH",
"30 412 OFFCURVE",
"16 435 OFFCURVE",
"16 466 CURVE SMOOTH",
"16 505 OFFCURVE",
"34 527 OFFCURVE",
"60 541 CURVE SMOOTH",
"86 555 OFFCURVE",
"119 561 OFFCURVE",
"151 566 CURVE SMOOTH",
"176 570 OFFCURVE",
"200 574 OFFCURVE",
"217 579 CURVE",
"234 583 OFFCURVE",
"244 591 OFFCURVE",
"244 604 CURVE SMOOTH",
"244 625 OFFCURVE",
"236 637 OFFCURVE",
"224 643 CURVE SMOOTH",
"212 649 OFFCURVE",
"197 649 OFFCURVE",
"184 649 CURVE SMOOTH",
"145 649 OFFCURVE",
"117 640 OFFCURVE",
"114 607 CURVE",
"29 607 LINE",
"33 648 OFFCURVE",
"55 675 OFFCURVE",
"84 692 CURVE SMOOTH",
"113 708 OFFCURVE",
"152 714 OFFCURVE",
"189 714 CURVE SMOOTH",
"224 714 OFFCURVE",
"259 707 OFFCURVE",
"286 692 CURVE SMOOTH",
"313 677 OFFCURVE",
"331 654 OFFCURVE",
"331 621 CURVE SMOOTH"
);
},
{
closed = 1;
nodes = (
"244 535 LINE",
"234 530 OFFCURVE",
"221 526 OFFCURVE",
"206 524 CURVE SMOOTH",
"175 519 OFFCURVE",
"143 515 OFFCURVE",
"120 503 CURVE SMOOTH",
"109 497 OFFCURVE",
"103 486 OFFCURVE",
"103 471 CURVE SMOOTH",
"103 443 OFFCURVE",
"128 438 OFFCURVE",
"159 438 CURVE SMOOTH",
"179 438 OFFCURVE",
"200 440 OFFCURVE",
"216 448 CURVE SMOOTH",
"232 456 OFFCURVE",
"244 468 OFFCURVE",
"244 491 CURVE SMOOTH"
);
}
);
width = 380;
}
);
note = ordfeminine;
unicode = 00AA;
},
{
glyphname = guillemotleft;
layers = (
{
layerId = "54BFC50A-6637-4CB7-8178-55EF9B54D6CA";
name = Regular;
paths = (
{
closed = 1;
nodes = (
"248 216 LINE",
"248 328 LINE",
"403 451 LINE",
"403 348 LINE",
"308 272 LINE",
"403 196 LINE",
"403 93 LINE"
);
},
{
closed = 1;
nodes = (
"50 216 LINE",
"50 328 LINE",
"205 451 LINE",
"205 348 LINE",
"110 272 LINE",
"205 196 LINE",
"205 93 LINE"
);
}
);
width = 463;
}
);
note = guillemotleft;
unicode = 00AB;
},
{
glyphname = logicalnot;
layers = (
{
layerId = "54BFC50A-6637-4CB7-8178-55EF9B54D6CA";
name = Regular;
paths = (
{
closed = 1;
nodes = (
"450 303 LINE",
"48 303 LINE",
"48 405 LINE",
"552 405 LINE",
"552 108 LINE",
"450 108 LINE"
);
}
);
width = 600;
}
);
note = logicalnot;
unicode = 00AC;
},
{
glyphname = uni00AD;
layers = (
{
layerId = "54BFC50A-6637-4CB7-8178-55EF9B54D6CA";
name = Regular;
paths = (
{
closed = 1;
nodes = (
"49 326 LINE",
"340 326 LINE",
"340 218 LINE",
"49 218 LINE"
);
}
);
width = 389;
}
);
note = uni00AD;
unicode = 00AD;
},
{
glyphname = registered;
layers = (
{
layerId = "54BFC50A-6637-4CB7-8178-55EF9B54D6CA";
name = Regular;
paths = (
{
closed = 1;
nodes = (
"687 448 OFFCURVE",
"656 525 OFFCURVE",
"604 580 CURVE SMOOTH",
"552 635 OFFCURVE",
"481 666 OFFCURVE",
"401 666 CURVE SMOOTH",
"320 666 OFFCURVE",
"248 635 OFFCURVE",
"196 580 CURVE SMOOTH",
"144 525 OFFCURVE",
"113 448 OFFCURVE",
"113 357 CURVE SMOOTH",
"113 272 OFFCURVE",
"141 195 OFFCURVE",
"191 139 CURVE SMOOTH",
"241 83 OFFCURVE",
"312 48 OFFCURVE",
"401 48 CURVE SMOOTH",
"481 48 OFFCURVE",
"552 79 OFFCURVE",
"604 134 CURVE SMOOTH",
"656 189 OFFCURVE",
"687 265 OFFCURVE",
"687 357 CURVE SMOOTH"
);
},
{
closed = 1;
nodes = (
"767 245 OFFCURVE",
"725 151 OFFCURVE",
"658 86 CURVE SMOOTH",
"590 21 OFFCURVE",
"498 -17 OFFCURVE",
"401 -17 CURVE SMOOTH",
"293 -17 OFFCURVE",
"201 23 OFFCURVE",
"137 90 CURVE SMOOTH",
"72 157 OFFCURVE",
"33 250 OFFCURVE",
"33 357 CURVE SMOOTH",
"33 469 OFFCURVE",
"75 563 OFFCURVE",
"143 628 CURVE SMOOTH",
"210 693 OFFCURVE",
"302 731 OFFCURVE",
"401 731 CURVE SMOOTH",
"498 731 OFFCURVE",
"590 693 OFFCURVE",
"658 628 CURVE SMOOTH",
"725 563 OFFCURVE",
"767 469 OFFCURVE",
"767 357 CURVE SMOOTH"
);
},
{
closed = 1;
nodes = (
"403 378 LINE SMOOTH",
"428 378 OFFCURVE",
"453 379 OFFCURVE",
"470 388 CURVE SMOOTH",
"487 397 OFFCURVE",
"499 412 OFFCURVE",
"499 443 CURVE SMOOTH",
"499 468 OFFCURVE",
"486 482 OFFCURVE",
"469 490 CURVE SMOOTH",
"452 498 OFFCURVE",
"429 499 OFFCURVE",
"409 499 CURVE SMOOTH",
"327 499 LINE",
"327 378 LINE"
);
},
{
closed = 1;
nodes = (
"327 143 LINE",
"259 143 LINE",
"259 557 LINE",
"416 557 LINE SMOOTH",
"516 557 OFFCURVE",
"567 522 OFFCURVE",
"567 438 CURVE SMOOTH",
"567 363 OFFCURVE",
"520 332 OFFCURVE",
"459 325 CURVE",
"575 143 LINE",
"498 143 LINE",
"391 320 LINE",
"327 320 LINE"
);
}
);
width = 800;
}
);
note = registered;
unicode = 00AE;
},
{
glyphname = macron;
layers = (
{
layerId = "54BFC50A-6637-4CB7-8178-55EF9B54D6CA";
name = Regular;
paths = (
{
closed = 1;
nodes = (
"-23 624 LINE",
"-23 689 LINE",
"265 689 LINE",
"265 624 LINE"
);
}
);
width = 241;
}
);
note = macron;
unicode = 00AF;
},
{
glyphname = degree;
layers = (
{
layerId = "54BFC50A-6637-4CB7-8178-55EF9B54D6CA";
name = Regular;
paths = (
{
closed = 1;
nodes = (
"106 537 OFFCURVE",
"117 514 OFFCURVE",
"134 498 CURVE",
"150 481 OFFCURVE",
"173 470 OFFCURVE",
"200 470 CURVE SMOOTH",
"225 470 OFFCURVE",
"250 481 OFFCURVE",
"267 498 CURVE SMOOTH",
"283 514 OFFCURVE",
"294 537 OFFCURVE",
"294 564 CURVE SMOOTH",
"294 589 OFFCURVE",
"283 614 OFFCURVE",
"267 631 CURVE",
"250 647 OFFCURVE",
"225 658 OFFCURVE",
"200 658 CURVE SMOOTH",
"173 658 OFFCURVE",
"150 647 OFFCURVE",
"134 631 CURVE SMOOTH",
"117 614 OFFCURVE",
"106 589 OFFCURVE",
"106 564 CURVE SMOOTH"
);
},
{
closed = 1;
nodes = (
"50 605 OFFCURVE",
"67 643 OFFCURVE",
"94 670 CURVE SMOOTH",
"121 697 OFFCURVE",
"159 714 OFFCURVE",
"200 714 CURVE SMOOTH",
"241 714 OFFCURVE",
"279 697 OFFCURVE",
"306 670 CURVE SMOOTH",
"333 643 OFFCURVE",
"350 605 OFFCURVE",
"350 564 CURVE SMOOTH",
"350 523 OFFCURVE",
"333 485 OFFCURVE",
"306 458 CURVE SMOOTH",
"279 431 OFFCURVE",
"241 414 OFFCURVE",
"200 414 CURVE SMOOTH",
"159 414 OFFCURVE",
"121 431 OFFCURVE",
"94 458 CURVE SMOOTH",
"67 485 OFFCURVE",
"50 523 OFFCURVE",
"50 564 CURVE SMOOTH"
);
}
);
width = 400;
}
);
note = degree;
unicode = 00B0;
},
{
glyphname = plusminus;
layers = (
{
layerId = "54BFC50A-6637-4CB7-8178-55EF9B54D6CA";
name = Regular;
paths = (
{
closed = 1;
nodes = (
"48 102 LINE",
"552 102 LINE",
"552 0 LINE",
"48 0 LINE"
);
},
{
closed = 1;
nodes = (
"249 506 LINE",
"351 506 LINE",
"351 381 LINE",
"552 381 LINE",
"552 279 LINE",
"351 279 LINE",
"351 154 LINE",
"249 154 LINE",
"249 279 LINE",
"48 279 LINE",
"48 381 LINE",
"249 381 LINE"
);
}
);
width = 600;
}
);
note = plusminus;
unicode = 00B1;
},
{
glyphname = twosuperior;
layers = (
{
layerId = "54BFC50A-6637-4CB7-8178-55EF9B54D6CA";
name = Regular;
paths = (
{
closed = 1;
nodes = (
"336 273 LINE",
"21 273 LINE",
"22 354 OFFCURVE",
"60 405 OFFCURVE",
"121 444 CURVE SMOOTH",
"136 454 OFFCURVE",
"151 464 OFFCURVE",
"168 474 CURVE SMOOTH",
"200 493 OFFCURVE",
"228 514 OFFCURVE",
"245 539 CURVE SMOOTH",
"262 564 OFFCURVE",
"266 609 OFFCURVE",
"237 629 CURVE SMOOTH",
"222 639 OFFCURVE",
"205 644 OFFCURVE",
"186 644 CURVE SMOOTH",
"159 644 OFFCURVE",
"141 632 OFFCURVE",
"130 615 CURVE SMOOTH",
"119 598 OFFCURVE",
"114 575 OFFCURVE",
"113 551 CURVE",
"26 551 LINE",
"26 652 OFFCURVE",
"89 714 OFFCURVE",
"190 714 CURVE SMOOTH",
"231 714 OFFCURVE",
"271 704 OFFCURVE",
"300 684 CURVE",
"328 663 OFFCURVE",
"346 629 OFFCURVE",
"346 584 CURVE SMOOTH",
"346 551 OFFCURVE",
"334 524 OFFCURVE",
"315 501 CURVE SMOOTH",
"295 478 OFFCURVE",
"269 459 OFFCURVE",
"244 443 CURVE",
"231 434 OFFCURVE",
"218 426 OFFCURVE",
"205 419 CURVE",
"179 403 OFFCURVE",
"156 387 OFFCURVE",
"140 371 CURVE",
"132 362 OFFCURVE",
"126 353 OFFCURVE",
"123 343 CURVE",
"336 343 LINE"
);
}
);
width = 360;
}
);
note = twosuperior;
unicode = 00B2;
},
{
glyphname = threesuperior;
layers = (
{
layerId = "54BFC50A-6637-4CB7-8178-55EF9B54D6CA";
name = Regular;
paths = (
{
closed = 1;
nodes = (
"146 533 LINE",
"171 532 OFFCURVE",
"196 536 OFFCURVE",
"215 545 CURVE SMOOTH",
"234 554 OFFCURVE",
"247 570 OFFCURVE",
"247 594 CURVE SMOOTH",
"247 611 OFFCURVE",
"237 624 OFFCURVE",
"224 632 CURVE SMOOTH",
"211 640 OFFCURVE",
"194 644 OFFCURVE",
"178 644 CURVE SMOOTH",
"134 644 OFFCURVE",
"102 612 OFFCURVE",
"105 568 CURVE",
"25 568 LINE",
"29 660 OFFCURVE",
"87 714 OFFCURVE",
"179 714 CURVE SMOOTH",
"216 714 OFFCURVE",
"253 707 OFFCURVE",
"281 688 CURVE SMOOTH",
"309 669 OFFCURVE",
"327 641 OFFCURVE",
"327 598 CURVE SMOOTH",
"327 555 OFFCURVE",
"306 523 OFFCURVE",
"263 508 CURVE",
"263 506 LINE",
"314 497 OFFCURVE",
"345 457 OFFCURVE",
"345 401 CURVE SMOOTH",
"345 357 OFFCURVE",
"327 323 OFFCURVE",
"297 300 CURVE SMOOTH",
"267 276 OFFCURVE",
"225 264 OFFCURVE",
"180 264 CURVE SMOOTH",
"71 264 OFFCURVE",
"19 322 OFFCURVE",
"16 419 CURVE",
"96 419 LINE",
"93 372 OFFCURVE",
"124 334 OFFCURVE",
"180 334 CURVE SMOOTH",
"227 334 OFFCURVE",
"265 361 OFFCURVE",
"265 405 CURVE SMOOTH",
"265 437 OFFCURVE",
"250 455 OFFCURVE",
"228 465 CURVE SMOOTH",
"206 475 OFFCURVE",
"175 476 OFFCURVE",
"146 475 CURVE"
);
}
);
width = 360;
}
);
note = threesuperior;
unicode = 00B3;
},
{
glyphname = acute;
layers = (
{
layerId = "54BFC50A-6637-4CB7-8178-55EF9B54D6CA";
name = Regular;
paths = (
{
closed = 1;
nodes = (
"135 732 LINE",
"270 732 LINE",
"128 589 LINE",
"45 589 LINE"
);
}
);
width = 241;
}
);
note = acute;
unicode = 00B4;
},
{
glyphname = mu;
layers = (
{
layerId = "54BFC50A-6637-4CB7-8178-55EF9B54D6CA";
name = Regular;
paths = (
{
closed = 1;
nodes = (
"514 0 LINE",
"402 0 LINE",
"402 72 LINE",
"400 72 LINE",
"385 45 OFFCURVE",
"363 25 OFFCURVE",
"339 10 CURVE SMOOTH",
"314 -6 OFFCURVE",
"287 -14 OFFCURVE",
"264 -14 CURVE SMOOTH",
"233 -14 OFFCURVE",
"197 -5 OFFCURVE",
"174 22 CURVE",
"174 -191 LINE",
"60 -191 LINE",
"60 517 LINE",
"174 517 LINE",
"174 200 LINE SMOOTH",
"174 109 OFFCURVE",
"210 76 OFFCURVE",
"273 76 CURVE SMOOTH",
"321 76 OFFCURVE",
"352 92 OFFCURVE",
"372 117 CURVE SMOOTH",
"392 141 OFFCURVE",
"400 177 OFFCURVE",
"400 217 CURVE SMOOTH",
"400 517 LINE",
"514 517 LINE"
);
}
);
width = 574;
}
);
note = mu;
unicode = 00B5;
},
{
glyphname = paragraph;
layers = (
{
layerId = "54BFC50A-6637-4CB7-8178-55EF9B54D6CA";
name = Regular;
paths = (
{
closed = 1;
nodes = (
"246 344 LINE",
"181 344 OFFCURVE",
"127 363 OFFCURVE",
"90 396 CURVE SMOOTH",
"53 428 OFFCURVE",
"31 474 OFFCURVE",
"31 526 CURVE SMOOTH",
"31 593 OFFCURVE",
"55 641 OFFCURVE",
"96 671 CURVE SMOOTH",
"136 701 OFFCURVE",
"195 714 OFFCURVE",
"264 714 CURVE SMOOTH",
"523 714 LINE",
"523 -160 LINE",
"443 -160 LINE",
"443 649 LINE",
"326 649 LINE",
"326 -160 LINE",
"246 -160 LINE"
);
}
);
width = 600;
}
);
note = paragraph;
unicode = 00B6;
},
{
glyphname = periodcentered;
layers = (
{
layerId = "54BFC50A-6637-4CB7-8178-55EF9B54D6CA";
name = Regular;
paths = (
{
closed = 1;
nodes = (
"64 322 OFFCURVE",
"73 340 OFFCURVE",
"87 354 CURVE SMOOTH",
"101 368 OFFCURVE",
"119 376 OFFCURVE",
"139 376 CURVE SMOOTH",
"159 376 OFFCURVE",
"178 368 OFFCURVE",
"192 354 CURVE SMOOTH",
"206 340 OFFCURVE",
"214 322 OFFCURVE",
"214 302 CURVE SMOOTH",
"214 262 OFFCURVE",
"180 226 OFFCURVE",
"139 226 CURVE SMOOTH",
"98 226 OFFCURVE",
"64 262 OFFCURVE",
"64 302 CURVE SMOOTH"
);
}
);
width = 278;
}
);
note = periodcentered;
unicode = 00B7;
},
{
glyphname = cedilla;
layers = (
{
layerId = "54BFC50A-6637-4CB7-8178-55EF9B54D6CA";
name = Regular;
paths = (
{
closed = 1;
nodes = (
"27 -160 LINE",
"51 -171 OFFCURVE",
"69 -176 OFFCURVE",
"92 -176 CURVE SMOOTH",
"105 -176 OFFCURVE",
"121 -174 OFFCURVE",
"133 -168 CURVE SMOOTH",
"145 -162 OFFCURVE",
"153 -152 OFFCURVE",
"153 -135 CURVE SMOOTH",
"153 -110 OFFCURVE",
"130 -97 OFFCURVE",
"107 -97 CURVE SMOOTH",
"92 -97 OFFCURVE",
"79 -100 OFFCURVE",
"68 -107 CURVE",
"46 -88 LINE",
"112 0 LINE",
"160 0 LINE",
"114 -59 LINE",
"115 -60 LINE",
"123 -57 OFFCURVE",
"133 -56 OFFCURVE",
"148 -56 CURVE SMOOTH",
"168 -56 OFFCURVE",
"189 -62 OFFCURVE",
"205 -74 CURVE",
"221 -87 OFFCURVE",
"233 -106 OFFCURVE",
"233 -131 CURVE SMOOTH",
"233 -166 OFFCURVE",
"217 -187 OFFCURVE",
"194 -201 CURVE SMOOTH",
"171 -215 OFFCURVE",
"141 -223 OFFCURVE",
"112 -223 CURVE SMOOTH",
"75 -223 OFFCURVE",
"38 -216 OFFCURVE",
"9 -200 CURVE"
);
}
);
width = 241;
}
);
note = cedilla;
unicode = 00B8;
},
{
glyphname = onesuperior;
layers = (
{
layerId = "54BFC50A-6637-4CB7-8178-55EF9B54D6CA";
name = Regular;
paths = (
{
closed = 1;
nodes = (
"36 635 LINE",
"69 635 OFFCURVE",
"101 640 OFFCURVE",
"126 652 CURVE SMOOTH",
"150 663 OFFCURVE",
"167 680 OFFCURVE",
"174 705 CURVE",
"244 705 LINE",
"244 273 LINE",
"157 273 LINE",
"157 577 LINE",
"36 577 LINE"
);
}
);
width = 360;
}
);
note = onesuperior;
unicode = 00B9;
},
{
glyphname = ordmasculine;
layers = (
{
layerId = "54BFC50A-6637-4CB7-8178-55EF9B54D6CA";
name = Regular;
paths = (
{
closed = 1;
nodes = (
"371 440 OFFCURVE",
"310 373 OFFCURVE",
"193 373 CURVE SMOOTH",
"76 373 OFFCURVE",
"15 440 OFFCURVE",
"15 543 CURVE SMOOTH",
"15 646 OFFCURVE",
"76 714 OFFCURVE",
"193 714 CURVE SMOOTH",
"310 714 OFFCURVE",
"371 646 OFFCURVE",
"371 543 CURVE SMOOTH"
);
},
{
closed = 1;
nodes = (
"284 568 OFFCURVE",
"277 595 OFFCURVE",
"262 615 CURVE SMOOTH",
"246 635 OFFCURVE",
"224 649 OFFCURVE",
"193 649 CURVE SMOOTH",
"162 649 OFFCURVE",
"139 635 OFFCURVE",
"124 615 CURVE SMOOTH",
"109 595 OFFCURVE",
"102 568 OFFCURVE",
"102 543 CURVE SMOOTH",
"102 518 OFFCURVE",
"109 492 OFFCURVE",
"124 472 CURVE SMOOTH",
"139 452 OFFCURVE",
"162 438 OFFCURVE",
"193 438 CURVE SMOOTH",
"225 438 OFFCURVE",
"248 452 OFFCURVE",
"262 472 CURVE SMOOTH",
"276 492 OFFCURVE",
"283 518 OFFCURVE",
"284 543 CURVE"
);
}
);
width = 380;
}
);
note = ordmasculine;
unicode = 00BA;
},
{
glyphname = guillemotright;
layers = (
{
layerId = "54BFC50A-6637-4CB7-8178-55EF9B54D6CA";
name = Regular;
paths = (
{
closed = 1;
nodes = (
"413 328 LINE",
"413 216 LINE",
"258 93 LINE",
"258 196 LINE",
"353 272 LINE",
"258 348 LINE",
"258 451 LINE"
);
},
{
closed = 1;
nodes = (
"215 328 LINE",
"215 216 LINE",
"60 93 LINE",
"60 196 LINE",
"155 272 LINE",
"60 348 LINE",
"60 451 LINE"
);
}
);
width = 463;
}
);
note = guillemotright;
unicode = 00BB;
},
{
glyphname = onequarter;
layers = (
{
layerId = "54BFC50A-6637-4CB7-8178-55EF9B54D6CA";
name = Regular;
paths = (
{
closed = 1;
nodes = (
"560 724 LINE",
"638 724 LINE",
"220 -24 LINE",
"141 -24 LINE"
);
},
{
closed = 1;
nodes = (
"37 635 LINE",
"70 635 OFFCURVE",
"102 640 OFFCURVE",
"127 652 CURVE SMOOTH",
"151 663 OFFCURVE",
"168 680 OFFCURVE",
"175 705 CURVE",
"245 705 LINE",
"245 273 LINE",
"158 273 LINE",
"158 577 LINE",
"37 577 LINE"
);
},
{
closed = 1;
nodes = (
"632 330 LINE",
"630 330 LINE",
"513 172 LINE",
"632 172 LINE"
);
},
{
closed = 1;
nodes = (
"719 0 LINE",
"632 0 LINE",
"632 97 LINE",
"437 97 LINE",
"437 178 LINE",
"622 428 LINE",
"719 428 LINE",
"719 172 LINE",
"766 172 LINE",
"766 97 LINE",
"719 97 LINE"
);
}
);
width = 834;
}
);
note = onequarter;
unicode = 00BC;
},
{
glyphname = onehalf;
layers = (
{
layerId = "54BFC50A-6637-4CB7-8178-55EF9B54D6CA";
name = Regular;
paths = (
{
closed = 1;
nodes = (
"788 0 LINE",
"473 0 LINE",
"473 49 OFFCURVE",
"489 87 OFFCURVE",
"511 116 CURVE SMOOTH",
"533 144 OFFCURVE",
"563 165 OFFCURVE",
"592 184 CURVE",
"607 193 OFFCURVE",
"621 202 OFFCURVE",
"635 210 CURVE SMOOTH",
"663 226 OFFCURVE",
"687 244 OFFCURVE",
"701 268 CURVE",
"708 279 OFFCURVE",
"711 293 OFFCURVE",
"711 309 CURVE SMOOTH",
"711 352 OFFCURVE",
"679 376 OFFCURVE",
"638 376 CURVE SMOOTH",
"610 376 OFFCURVE",
"592 364 OFFCURVE",
"581 345 CURVE SMOOTH",
"570 326 OFFCURVE",
"566 302 OFFCURVE",
"565 278 CURVE",
"478 278 LINE",
"478 382 OFFCURVE",
"537 446 OFFCURVE",
"642 446 CURVE SMOOTH",
"685 446 OFFCURVE",
"724 436 OFFCURVE",
"752 413 CURVE SMOOTH",
"780 390 OFFCURVE",
"798 356 OFFCURVE",
"798 311 CURVE SMOOTH",
"798 278 OFFCURVE",
"786 251 OFFCURVE",
"767 228 CURVE SMOOTH",
"748 205 OFFCURVE",
"723 187 OFFCURVE",
"696 170 CURVE SMOOTH",
"683 162 OFFCURVE",
"670 154 OFFCURVE",
"657 147 CURVE",
"631 131 OFFCURVE",
"608 115 OFFCURVE",
"592 98 CURVE SMOOTH",
"584 89 OFFCURVE",
"578 80 OFFCURVE",
"575 70 CURVE",
"788 70 LINE"
);
},
{
closed = 1;
nodes = (
"36 635 LINE",
"69 635 OFFCURVE",
"101 640 OFFCURVE",
"126 652 CURVE SMOOTH",
"150 663 OFFCURVE",
"167 680 OFFCURVE",
"174 705 CURVE",
"244 705 LINE",
"244 273 LINE",
"157 273 LINE",
"157 577 LINE",
"36 577 LINE"
);
},
{
closed = 1;
nodes = (
"556 724 LINE",
"634 724 LINE",
"216 -24 LINE",
"137 -24 LINE"
);
}
);
width = 834;
}
);
note = onehalf;
unicode = 00BD;
},
{
glyphname = threequarters;
layers = (
{
layerId = "54BFC50A-6637-4CB7-8178-55EF9B54D6CA";
name = Regular;
paths = (
{
closed = 1;
nodes = (
"146 532 LINE",
"171 531 OFFCURVE",
"196 535 OFFCURVE",
"215 545 CURVE SMOOTH",
"234 555 OFFCURVE",
"247 570 OFFCURVE",
"247 594 CURVE SMOOTH",
"247 611 OFFCURVE",
"237 624 OFFCURVE",
"224 632 CURVE SMOOTH",
"211 640 OFFCURVE",
"194 644 OFFCURVE",
"178 644 CURVE SMOOTH",
"134 644 OFFCURVE",
"102 612 OFFCURVE",
"105 568 CURVE",
"25 568 LINE",
"29 660 OFFCURVE",
"87 714 OFFCURVE",
"179 714 CURVE SMOOTH",
"216 714 OFFCURVE",
"253 707 OFFCURVE",
"281 688 CURVE SMOOTH",
"309 669 OFFCURVE",
"327 641 OFFCURVE",
"327 598 CURVE SMOOTH",
"327 555 OFFCURVE",
"306 523 OFFCURVE",
"263 508 CURVE",
"263 506 LINE",
"314 497 OFFCURVE",
"345 457 OFFCURVE",
"345 401 CURVE SMOOTH",
"345 357 OFFCURVE",
"327 323 OFFCURVE",
"297 300 CURVE SMOOTH",
"267 276 OFFCURVE",
"225 264 OFFCURVE",
"180 264 CURVE SMOOTH",
"71 264 OFFCURVE",
"19 322 OFFCURVE",
"16 419 CURVE",
"96 419 LINE",
"93 372 OFFCURVE",
"124 334 OFFCURVE",
"180 334 CURVE SMOOTH",
"227 334 OFFCURVE",
"265 361 OFFCURVE",
"265 405 CURVE SMOOTH",
"265 437 OFFCURVE",
"250 455 OFFCURVE",
"228 464 CURVE SMOOTH",
"206 473 OFFCURVE",
"175 475 OFFCURVE",
"146 474 CURVE"
);
},
{
closed = 1;
nodes = (
"615 724 LINE",
"693 724 LINE",
"275 -24 LINE",
"196 -24 LINE"
);
},
{
closed = 1;
nodes = (
"669 330 LINE",
"667 330 LINE",
"550 172 LINE",
"669 172 LINE"
);
},
{
closed = 1;
nodes = (
"756 0 LINE",
"669 0 LINE",
"669 97 LINE",
"474 97 LINE",
"474 178 LINE",
"657 428 LINE",
"756 428 LINE",
"756 172 LINE",
"803 172 LINE",
"803 97 LINE",
"756 97 LINE"
);
}
);
width = 834;
}
);
note = threequarters;
unicode = 00BE;
},
{
glyphname = questiondown;
layers = (
{
layerId = "54BFC50A-6637-4CB7-8178-55EF9B54D6CA";
name = Regular;
paths = (
{
closed = 1;
nodes = (
"344 531 LINE",
"344 406 LINE",
"210 406 LINE",
"210 531 LINE"
);
},
{
closed = 1;
nodes = (
"507 39 LINE",
"507 -32 OFFCURVE",
"485 -91 OFFCURVE",
"443 -133 CURVE SMOOTH",
"401 -175 OFFCURVE",
"340 -200 OFFCURVE",
"267 -200 CURVE SMOOTH",
"206 -200 OFFCURVE",
"152 -181 OFFCURVE",
"113 -148 CURVE SMOOTH",
"73 -115 OFFCURVE",
"49 -66 OFFCURVE",
"49 -3 CURVE SMOOTH",
"49 44 OFFCURVE",
"60 77 OFFCURVE",
"77 102 CURVE SMOOTH",
"93 126 OFFCURVE",
"114 144 OFFCURVE",
"137 163 CURVE SMOOTH",
"162 184 OFFCURVE",
"184 203 OFFCURVE",
"200 228 CURVE SMOOTH",
"216 252 OFFCURVE",
"225 284 OFFCURVE",
"225 332 CURVE",
"333 332 LINE",
"333 273 OFFCURVE",
"327 235 OFFCURVE",
"314 204 CURVE SMOOTH",
"301 173 OFFCURVE",
"282 152 OFFCURVE",
"255 129 CURVE SMOOTH",
"244 120 OFFCURVE",
"234 111 OFFCURVE",
"225 103 CURVE SMOOTH",
"205 86 OFFCURVE",
"189 68 OFFCURVE",
"181 44 CURVE",
"176 32 OFFCURVE",
"174 18 OFFCURVE",
"174 1 CURVE SMOOTH",
"174 -38 OFFCURVE",
"189 -64 OFFCURVE",
"209 -80 CURVE SMOOTH",
"229 -97 OFFCURVE",
"253 -105 OFFCURVE",
"272 -105 CURVE SMOOTH",
"355 -105 OFFCURVE",
"393 -46 OFFCURVE",
"393 39 CURVE"
);
}
);
width = 556;
}
);
note = questiondown;
unicode = 00BF;
},
{
glyphname = Agrave;
layers = (
{
layerId = "54BFC50A-6637-4CB7-8178-55EF9B54D6CA";
name = Regular;
paths = (
{
closed = 1;
nodes = (
"267 714 LINE",
"400 714 LINE",
"675 0 LINE",
"541 0 LINE",
"474 189 LINE",
"189 189 LINE",
"122 0 LINE",
"-7 0 LINE"
);
},
{
closed = 1;
nodes = (
"223 284 LINE",
"441 284 LINE",
"334 591 LINE",
"331 591 LINE"
);
},
{
closed = 1;
nodes = (
"305 926 LINE",
"396 783 LINE",
"313 783 LINE",
"171 926 LINE"
);
}
);
width = 667;
}
);
note = Agrave;
unicode = 00C0;
},
{
glyphname = Aacute;
layers = (
{
layerId = "54BFC50A-6637-4CB7-8178-55EF9B54D6CA";
name = Regular;
paths = (
{
closed = 1;
nodes = (
"267 714 LINE",
"400 714 LINE",
"675 0 LINE",
"541 0 LINE",
"474 189 LINE",
"189 189 LINE",
"122 0 LINE",
"-7 0 LINE"
);
},
{
closed = 1;
nodes = (
"223 284 LINE",
"441 284 LINE",
"334 591 LINE",
"331 591 LINE"
);
},
{
closed = 1;
nodes = (
"364 926 LINE",
"499 926 LINE",
"357 783 LINE",
"274 783 LINE"
);
}
);
width = 667;
}
);
note = Aacute;
unicode = 00C1;
},
{
glyphname = Acircumflex;
layers = (
{
layerId = "54BFC50A-6637-4CB7-8178-55EF9B54D6CA";
name = Regular;
paths = (
{
closed = 1;
nodes = (
"267 714 LINE",
"400 714 LINE",
"675 0 LINE",
"541 0 LINE",
"474 189 LINE",
"189 189 LINE",
"122 0 LINE",
"-7 0 LINE"
);
},
{
closed = 1;
nodes = (
"223 284 LINE",
"441 284 LINE",
"334 591 LINE",
"331 591 LINE"
);
},
{
closed = 1;
nodes = (
"262 783 LINE",
"170 783 LINE",
"277 926 LINE",
"388 926 LINE",
"496 783 LINE",
"403 783 LINE",
"332 873 LINE"
);
}
);
width = 667;
}
);
note = Acircumflex;
unicode = 00C2;
},
{
glyphname = Atilde;
layers = (
{
layerId = "54BFC50A-6637-4CB7-8178-55EF9B54D6CA";
name = Regular;
paths = (
{
closed = 1;
nodes = (
"267 714 LINE",
"400 714 LINE",
"675 0 LINE",
"541 0 LINE",
"474 189 LINE",
"189 189 LINE",
"122 0 LINE",
"-7 0 LINE"
);
},
{
closed = 1;
nodes = (
"223 284 LINE",
"441 284 LINE",
"334 591 LINE",
"331 591 LINE"
);
},
{
closed = 1;
nodes = (
"511 914 LINE",
"506 882 OFFCURVE",
"497 853 OFFCURVE",
"478 833 CURVE",
"461 812 OFFCURVE",
"436 799 OFFCURVE",
"400 799 CURVE SMOOTH",
"377 799 OFFCURVE",
"351 807 OFFCURVE",
"326 818 CURVE SMOOTH",
"295 831 OFFCURVE",
"281 836 OFFCURVE",
"258 836 CURVE SMOOTH",
"234 836 OFFCURVE",
"220 822 OFFCURVE",
"215 795 CURVE",
"158 795 LINE",
"162 820 OFFCURVE",
"173 849 OFFCURVE",
"190 871 CURVE SMOOTH",
"207 893 OFFCURVE",
"231 908 OFFCURVE",
"262 908 CURVE SMOOTH",
"287 908 OFFCURVE",
"302 905 OFFCURVE",
"343 888 CURVE SMOOTH",
"371 876 OFFCURVE",
"386 870 OFFCURVE",
"405 870 CURVE SMOOTH",
"434 870 OFFCURVE",
"448 887 OFFCURVE",
"455 914 CURVE"
);
}
);
width = 667;
}
);
note = Atilde;
unicode = 00C3;
},
{
glyphname = Adieresis;
layers = (
{
layerId = "54BFC50A-6637-4CB7-8178-55EF9B54D6CA";
name = Regular;
paths = (
{
closed = 1;
nodes = (
"267 714 LINE",
"400 714 LINE",
"675 0 LINE",
"541 0 LINE",
"474 189 LINE",
"189 189 LINE",
"122 0 LINE",
"-7 0 LINE"
);
},
{
closed = 1;
nodes = (
"223 284 LINE",
"441 284 LINE",
"334 591 LINE",
"331 591 LINE"
);
},
{
closed = 1;
nodes = (
"190 796 LINE",
"190 904 LINE",
"304 904 LINE",
"304 796 LINE"
);
},
{
closed = 1;
nodes = (
"476 904 LINE",
"476 796 LINE",
"362 796 LINE",
"362 904 LINE"
);
}
);
width = 667;
}
);
note = Adieresis;
unicode = 00C4;
},
{
glyphname = Aring;
layers = (
{
layerId = "54BFC50A-6637-4CB7-8178-55EF9B54D6CA";
name = Regular;
paths = (
{
closed = 1;
nodes = (
"267 714 LINE",
"400 714 LINE",
"675 0 LINE",
"541 0 LINE",
"474 189 LINE",
"189 189 LINE",
"122 0 LINE",
"-7 0 LINE"
);
},
{
closed = 1;
nodes = (
"223 284 LINE",
"441 284 LINE",
"334 591 LINE",
"331 591 LINE"
);
},
{
closed = 1;
nodes = (
"272 819 OFFCURVE",
"299 793 OFFCURVE",
"332 793 CURVE SMOOTH",
"367 793 OFFCURVE",
"392 819 OFFCURVE",
"392 854 CURVE SMOOTH",
"392 890 OFFCURVE",
"367 915 OFFCURVE",
"332 915 CURVE SMOOTH",
"299 915 OFFCURVE",
"272 890 OFFCURVE",
"272 854 CURVE SMOOTH"
);
},
{
closed = 1;
nodes = (
"304 751 OFFCURVE",
"278 762 OFFCURVE",
"259 780 CURVE SMOOTH",
"239 798 OFFCURVE",
"228 823 OFFCURVE",
"228 854 CURVE SMOOTH",
"228 885 OFFCURVE",
"240 910 OFFCURVE",
"260 929 CURVE SMOOTH",
"279 948 OFFCURVE",
"304 957 OFFCURVE",
"332 957 CURVE SMOOTH",
"360 957 OFFCURVE",
"385 948 OFFCURVE",
"405 929 CURVE SMOOTH",
"425 910 OFFCURVE",
"436 885 OFFCURVE",
"436 854 CURVE SMOOTH",
"436 823 OFFCURVE",
"425 798 OFFCURVE",
"405 780 CURVE SMOOTH",
"385 762 OFFCURVE",
"360 751 OFFCURVE",
"332 751 CURVE SMOOTH"
);
}
);
width = 667;
}
);
note = Aring;
unicode = 00C5;
},
{
glyphname = AE;
layers = (
{
layerId = "54BFC50A-6637-4CB7-8178-55EF9B54D6CA";
name = Regular;
paths = (
{
closed = 1;
nodes = (
"348 714 LINE",
"924 714 LINE",
"924 606 LINE",
"576 606 LINE",
"576 419 LINE",
"902 419 LINE",
"902 317 LINE",
"576 317 LINE",
"576 108 LINE",
"930 108 LINE",
"930 0 LINE",
"457 0 LINE",
"457 183 LINE",
"218 183 LINE",
"132 0 LINE",
"-7 0 LINE"
);
},
{
closed = 1;
nodes = (
"264 278 LINE",
"457 278 LINE",
"457 606 LINE",
"421 606 LINE"
);
}
);
width = 963;
}
);
note = AE;
unicode = 00C6;
},
{
glyphname = Ccedilla;
layers = (
{
layerId = "54BFC50A-6637-4CB7-8178-55EF9B54D6CA";
name = Regular;
paths = (
{
closed = 1;
nodes = (
"684 272 LINE",
"679 188 OFFCURVE",
"647 116 OFFCURVE",
"595 65 CURVE SMOOTH",
"543 14 OFFCURVE",
"471 -15 OFFCURVE",
"387 -16 CURVE",
"355 -58 LINE",
"355 -60 LINE",
"363 -57 OFFCURVE",
"373 -57 OFFCURVE",
"388 -57 CURVE SMOOTH",
"408 -57 OFFCURVE",
"429 -63 OFFCURVE",
"445 -75 CURVE SMOOTH",
"461 -87 OFFCURVE",
"473 -106 OFFCURVE",
"473 -131 CURVE SMOOTH",
"473 -166 OFFCURVE",
"457 -187 OFFCURVE",
"434 -201 CURVE SMOOTH",
"411 -215 OFFCURVE",
"381 -221 OFFCURVE",
"352 -221 CURVE SMOOTH",
"321 -221 OFFCURVE",
"276 -215 OFFCURVE",
"249 -200 CURVE",
"267 -160 LINE",
"278 -163 OFFCURVE",
"288 -167 OFFCURVE",
"299 -170 CURVE",
"310 -174 OFFCURVE",
"321 -176 OFFCURVE",
"332 -176 CURVE SMOOTH",
"345 -176 OFFCURVE",
"361 -174 OFFCURVE",
"373 -168 CURVE SMOOTH",
"385 -162 OFFCURVE",
"393 -152 OFFCURVE",
"393 -135 CURVE SMOOTH",
"393 -110 OFFCURVE",
"370 -97 OFFCURVE",
"347 -97 CURVE SMOOTH",
"332 -97 OFFCURVE",
"319 -100 OFFCURVE",
"308 -107 CURVE",
"286 -88 LINE",
"341 -15 LINE",
"246 -6 OFFCURVE",
"170 39 OFFCURVE",
"118 107 CURVE SMOOTH",
"66 174 OFFCURVE",
"38 261 OFFCURVE",
"38 357 CURVE SMOOTH",
"38 458 OFFCURVE",
"70 552 OFFCURVE",
"129 620 CURVE SMOOTH",
"188 688 OFFCURVE",
"273 731 OFFCURVE",
"380 731 CURVE SMOOTH",
"460 731 OFFCURVE",
"533 709 OFFCURVE",
"587 667 CURVE SMOOTH",
"641 625 OFFCURVE",
"675 564 OFFCURVE",
"683 487 CURVE",
"558 487 LINE",
"547 528 OFFCURVE",
"529 564 OFFCURVE",
"500 589 CURVE SMOOTH",
"471 614 OFFCURVE",
"432 629 OFFCURVE",
"380 629 CURVE SMOOTH",
"304 629 OFFCURVE",
"249 596 OFFCURVE",
"214 545 CURVE SMOOTH",
"179 493 OFFCURVE",
"163 425 OFFCURVE",
"163 357 CURVE SMOOTH",
"163 289 OFFCURVE",
"179 221 OFFCURVE",
"214 170 CURVE SMOOTH",
"249 118 OFFCURVE",
"304 85 OFFCURVE",
"380 85 CURVE SMOOTH",
"436 85 OFFCURVE",
"478 106 OFFCURVE",
"509 140 CURVE SMOOTH",
"540 174 OFFCURVE",
"557 220 OFFCURVE",
"562 272 CURVE"
);
}
);
width = 722;
}
);
note = Ccedilla;
unicode = 00C7;
},
{
glyphname = Egrave;
layers = (
{
layerId = "54BFC50A-6637-4CB7-8178-55EF9B54D6CA";
name = Regular;
paths = (
{
closed = 1;
nodes = (
"76 714 LINE",
"590 714 LINE",
"590 606 LINE",
"201 606 LINE",
"201 419 LINE",
"561 419 LINE",
"561 317 LINE",
"201 317 LINE",
"201 108 LINE",
"597 108 LINE",
"597 0 LINE",
"76 0 LINE"
);
},
{
closed = 1;
nodes = (
"323 926 LINE",
"414 783 LINE",
"331 783 LINE",
"189 926 LINE"
);
}
);
width = 630;
}
);
note = Egrave;
unicode = 00C8;
},
{
glyphname = Eacute;
layers = (
{
layerId = "54BFC50A-6637-4CB7-8178-55EF9B54D6CA";
name = Regular;
paths = (
{
closed = 1;
nodes = (
"76 714 LINE",
"590 714 LINE",
"590 606 LINE",
"201 606 LINE",
"201 419 LINE",
"561 419 LINE",
"561 317 LINE",
"201 317 LINE",
"201 108 LINE",
"597 108 LINE",
"597 0 LINE",
"76 0 LINE"
);
},
{
closed = 1;
nodes = (
"367 926 LINE",
"502 926 LINE",
"360 783 LINE",
"277 783 LINE"
);
}
);
width = 630;
}
);
note = Eacute;
unicode = 00C9;
},
{
glyphname = Ecircumflex;
layers = (
{
layerId = "54BFC50A-6637-4CB7-8178-55EF9B54D6CA";
name = Regular;
paths = (
{
closed = 1;
nodes = (
"76 714 LINE",
"590 714 LINE",
"590 606 LINE",
"201 606 LINE",
"201 419 LINE",
"561 419 LINE",
"561 317 LINE",
"201 317 LINE",
"201 108 LINE",
"597 108 LINE",
"597 0 LINE",
"76 0 LINE"
);
},
{
closed = 1;
nodes = (
"263 783 LINE",
"171 783 LINE",
"278 926 LINE",
"389 926 LINE",
"497 783 LINE",
"404 783 LINE",
"333 873 LINE"
);
}
);
width = 630;
}
);
note = Ecircumflex;
unicode = 00CA;
},
{
glyphname = Edieresis;
layers = (
{
layerId = "54BFC50A-6637-4CB7-8178-55EF9B54D6CA";
name = Regular;
paths = (
{
closed = 1;
nodes = (
"76 714 LINE",
"590 714 LINE",
"590 606 LINE",
"201 606 LINE",
"201 419 LINE",
"561 419 LINE",
"561 317 LINE",
"201 317 LINE",
"201 108 LINE",
"597 108 LINE",
"597 0 LINE",
"76 0 LINE"
);
},
{
closed = 1;
nodes = (
"193 796 LINE",
"193 904 LINE",
"307 904 LINE",
"307 796 LINE"
);
},
{
closed = 1;
nodes = (
"479 904 LINE",
"479 796 LINE",
"365 796 LINE",
"365 904 LINE"
);
}
);
width = 630;
}
);
note = Edieresis;
unicode = 00CB;
},
{
glyphname = Igrave;
layers = (
{
layerId = "54BFC50A-6637-4CB7-8178-55EF9B54D6CA";
name = Regular;
paths = (
{
closed = 1;
nodes = (
"76 714 LINE",
"201 714 LINE",
"201 0 LINE",
"76 0 LINE"
);
},
{
closed = 1;
nodes = (
"110 926 LINE",
"201 783 LINE",
"118 783 LINE",
"-24 926 LINE"
);
}
);
width = 278;
}
);
note = Igrave;
unicode = 00CC;
},
{
glyphname = Iacute;
layers = (
{
layerId = "54BFC50A-6637-4CB7-8178-55EF9B54D6CA";
name = Regular;
paths = (
{
closed = 1;
nodes = (
"76 714 LINE",
"201 714 LINE",
"201 0 LINE",
"76 0 LINE"
);
},
{
closed = 1;
nodes = (
"167 926 LINE",
"302 926 LINE",
"160 783 LINE",
"77 783 LINE"
);
}
);
width = 278;
}
);
note = Iacute;
unicode = 00CD;
},
{
glyphname = Icircumflex;
layers = (
{
layerId = "54BFC50A-6637-4CB7-8178-55EF9B54D6CA";
name = Regular;
paths = (
{
closed = 1;
nodes = (
"76 714 LINE",
"201 714 LINE",
"201 0 LINE",
"76 0 LINE"
);
},
{
closed = 1;
nodes = (
"68 783 LINE",
"-24 783 LINE",
"83 926 LINE",
"194 926 LINE",
"302 783 LINE",
"209 783 LINE",
"138 873 LINE"
);
}
);
width = 278;
}
);
note = Icircumflex;
unicode = 00CE;
},
{
glyphname = Idieresis;
layers = (
{
layerId = "54BFC50A-6637-4CB7-8178-55EF9B54D6CA";
name = Regular;
paths = (
{
closed = 1;
nodes = (
"76 714 LINE",
"201 714 LINE",
"201 0 LINE",
"76 0 LINE"
);
},
{
closed = 1;
nodes = (
"-4 796 LINE",
"-4 904 LINE",
"110 904 LINE",
"110 796 LINE"
);
},
{
closed = 1;
nodes = (
"282 904 LINE",
"282 796 LINE",
"168 796 LINE",
"168 904 LINE"
);
}
);
width = 278;
}
);
note = Idieresis;
unicode = 00CF;
},
{
glyphname = Eth;
layers = (
{
layerId = "54BFC50A-6637-4CB7-8178-55EF9B54D6CA";
name = Regular;
paths = (
{
closed = 1;
nodes = (
"201 419 LINE",
"396 419 LINE",
"396 317 LINE",
"201 317 LINE",
"201 102 LINE",
"324 102 LINE SMOOTH",
"421 102 OFFCURVE",
"481 130 OFFCURVE",
"517 176 CURVE SMOOTH",
"552 222 OFFCURVE",
"562 285 OFFCURVE",
"562 357 CURVE SMOOTH",
"562 429 OFFCURVE",
"552 493 OFFCURVE",
"517 539 CURVE SMOOTH",
"481 585 OFFCURVE",
"421 612 OFFCURVE",
"324 612 CURVE SMOOTH",
"201 612 LINE"
);
},
{
closed = 1;
nodes = (
"76 317 LINE",
"9 317 LINE",
"9 419 LINE",
"76 419 LINE",
"76 714 LINE",
"372 714 LINE SMOOTH",
"481 714 OFFCURVE",
"561 674 OFFCURVE",
"612 610 CURVE SMOOTH",
"663 545 OFFCURVE",
"687 456 OFFCURVE",
"687 357 CURVE SMOOTH",
"687 258 OFFCURVE",
"663 169 OFFCURVE",
"612 105 CURVE SMOOTH",
"561 40 OFFCURVE",
"481 0 OFFCURVE",
"372 0 CURVE SMOOTH",
"76 0 LINE"
);
}
);
width = 722;
}
);
note = Eth;
unicode = 00D0;
},
{
glyphname = Ntilde;
layers = (
{
layerId = "54BFC50A-6637-4CB7-8178-55EF9B54D6CA";
name = Regular;
paths = (
{
closed = 1;
nodes = (
"71 714 LINE",
"203 714 LINE",
"529 188 LINE",
"531 188 LINE",
"531 714 LINE",
"650 714 LINE",
"650 0 LINE",
"518 0 LINE",
"193 525 LINE",
"190 525 LINE",
"190 0 LINE",
"71 0 LINE"
);
},
{
closed = 1;
nodes = (
"538 914 LINE",
"533 882 OFFCURVE",
"524 853 OFFCURVE",
"505 833 CURVE",
"488 812 OFFCURVE",
"463 799 OFFCURVE",
"427 799 CURVE SMOOTH",
"404 799 OFFCURVE",
"378 807 OFFCURVE",
"353 818 CURVE SMOOTH",
"322 831 OFFCURVE",
"308 836 OFFCURVE",
"285 836 CURVE SMOOTH",
"261 836 OFFCURVE",
"247 822 OFFCURVE",
"242 795 CURVE",
"185 795 LINE",
"189 820 OFFCURVE",
"200 849 OFFCURVE",
"217 871 CURVE SMOOTH",
"234 893 OFFCURVE",
"258 908 OFFCURVE",
"289 908 CURVE SMOOTH",
"314 908 OFFCURVE",
"329 905 OFFCURVE",
"370 888 CURVE SMOOTH",
"398 876 OFFCURVE",
"413 870 OFFCURVE",
"432 870 CURVE SMOOTH",
"461 870 OFFCURVE",
"475 887 OFFCURVE",
"482 914 CURVE"
);
}
);
width = 722;
}
);
note = Ntilde;
unicode = 00D1;
},
{
glyphname = Ograve;
layers = (
{
layerId = "54BFC50A-6637-4CB7-8178-55EF9B54D6CA";
name = Regular;
paths = (
{
closed = 1;
nodes = (
"304 629 OFFCURVE",
"249 596 OFFCURVE",
"214 545 CURVE SMOOTH",
"179 493 OFFCURVE",
"163 425 OFFCURVE",
"163 357 CURVE SMOOTH",
"163 289 OFFCURVE",
"179 221 OFFCURVE",
"214 170 CURVE SMOOTH",
"249 118 OFFCURVE",
"304 85 OFFCURVE",
"380 85 CURVE SMOOTH",
"456 85 OFFCURVE",
"511 118 OFFCURVE",
"546 170 CURVE SMOOTH",
"581 221 OFFCURVE",
"597 289 OFFCURVE",
"597 357 CURVE SMOOTH",
"597 425 OFFCURVE",
"581 493 OFFCURVE",
"546 545 CURVE SMOOTH",
"511 596 OFFCURVE",
"456 629 OFFCURVE",
"380 629 CURVE SMOOTH"
);
},
{
closed = 1;
nodes = (
"487 731 OFFCURVE",
"572 688 OFFCURVE",
"631 620 CURVE SMOOTH",
"690 552 OFFCURVE",
"722 458 OFFCURVE",
"722 357 CURVE SMOOTH",
"722 254 OFFCURVE",
"690 161 OFFCURVE",
"631 93 CURVE SMOOTH",
"572 25 OFFCURVE",
"487 -17 OFFCURVE",
"380 -17 CURVE SMOOTH",
"273 -17 OFFCURVE",
"188 25 OFFCURVE",
"129 93 CURVE SMOOTH",
"70 161 OFFCURVE",
"38 254 OFFCURVE",
"38 357 CURVE SMOOTH",
"38 458 OFFCURVE",
"70 552 OFFCURVE",
"129 620 CURVE SMOOTH",
"188 688 OFFCURVE",
"273 731 OFFCURVE",
"380 731 CURVE SMOOTH"
);
},
{
closed = 1;
nodes = (
"323 926 LINE",
"414 783 LINE",
"331 783 LINE",
"189 926 LINE"
);
}
);
width = 760;
}
);
note = Ograve;
unicode = 00D2;
},
{
glyphname = Oacute;
layers = (
{
layerId = "54BFC50A-6637-4CB7-8178-55EF9B54D6CA";
name = Regular;
paths = (
{
closed = 1;
nodes = (
"304 629 OFFCURVE",
"249 596 OFFCURVE",
"214 545 CURVE SMOOTH",
"179 493 OFFCURVE",
"163 425 OFFCURVE",
"163 357 CURVE SMOOTH",
"163 289 OFFCURVE",
"179 221 OFFCURVE",
"214 170 CURVE SMOOTH",
"249 118 OFFCURVE",
"304 85 OFFCURVE",
"380 85 CURVE SMOOTH",
"456 85 OFFCURVE",
"511 118 OFFCURVE",
"546 170 CURVE SMOOTH",
"581 221 OFFCURVE",
"597 289 OFFCURVE",
"597 357 CURVE SMOOTH",
"597 425 OFFCURVE",
"581 493 OFFCURVE",
"546 545 CURVE SMOOTH",
"511 596 OFFCURVE",
"456 629 OFFCURVE",
"380 629 CURVE SMOOTH"
);
},
{
closed = 1;
nodes = (
"487 731 OFFCURVE",
"572 688 OFFCURVE",
"631 620 CURVE SMOOTH",
"690 552 OFFCURVE",
"722 458 OFFCURVE",
"722 357 CURVE SMOOTH",
"722 254 OFFCURVE",
"690 161 OFFCURVE",
"631 93 CURVE SMOOTH",
"572 25 OFFCURVE",
"487 -17 OFFCURVE",
"380 -17 CURVE SMOOTH",
"273 -17 OFFCURVE",
"188 25 OFFCURVE",
"129 93 CURVE SMOOTH",
"70 161 OFFCURVE",
"38 254 OFFCURVE",
"38 357 CURVE SMOOTH",
"38 458 OFFCURVE",
"70 552 OFFCURVE",
"129 620 CURVE SMOOTH",
"188 688 OFFCURVE",
"273 731 OFFCURVE",
"380 731 CURVE SMOOTH"
);
},
{
closed = 1;
nodes = (
"423 926 LINE",
"558 926 LINE",
"416 783 LINE",
"333 783 LINE"
);
}
);
width = 760;
}
);
note = Oacute;
unicode = 00D3;
},
{
glyphname = Ocircumflex;
layers = (
{
layerId = "54BFC50A-6637-4CB7-8178-55EF9B54D6CA";
name = Regular;
paths = (
{
closed = 1;
nodes = (
"304 629 OFFCURVE",
"249 596 OFFCURVE",
"214 545 CURVE SMOOTH",
"179 493 OFFCURVE",
"163 425 OFFCURVE",
"163 357 CURVE SMOOTH",
"163 289 OFFCURVE",
"179 221 OFFCURVE",
"214 170 CURVE SMOOTH",
"249 118 OFFCURVE",
"304 85 OFFCURVE",
"380 85 CURVE SMOOTH",
"456 85 OFFCURVE",
"511 118 OFFCURVE",
"546 170 CURVE SMOOTH",
"581 221 OFFCURVE",
"597 289 OFFCURVE",
"597 357 CURVE SMOOTH",
"597 425 OFFCURVE",
"581 493 OFFCURVE",
"546 545 CURVE SMOOTH",
"511 596 OFFCURVE",
"456 629 OFFCURVE",
"380 629 CURVE SMOOTH"
);
},
{
closed = 1;
nodes = (
"487 731 OFFCURVE",
"572 688 OFFCURVE",
"631 620 CURVE SMOOTH",
"690 552 OFFCURVE",
"722 458 OFFCURVE",
"722 357 CURVE SMOOTH",
"722 254 OFFCURVE",
"690 161 OFFCURVE",
"631 93 CURVE SMOOTH",
"572 25 OFFCURVE",
"487 -17 OFFCURVE",
"380 -17 CURVE SMOOTH",
"273 -17 OFFCURVE",
"188 25 OFFCURVE",
"129 93 CURVE SMOOTH",
"70 161 OFFCURVE",
"38 254 OFFCURVE",
"38 357 CURVE SMOOTH",
"38 458 OFFCURVE",
"70 552 OFFCURVE",
"129 620 CURVE SMOOTH",
"188 688 OFFCURVE",
"273 731 OFFCURVE",
"380 731 CURVE SMOOTH"
);
},
{
closed = 1;
nodes = (
"312 783 LINE",
"220 783 LINE",
"327 926 LINE",
"438 926 LINE",
"546 783 LINE",
"453 783 LINE",
"382 873 LINE"
);
}
);
width = 760;
}
);
note = Ocircumflex;
unicode = 00D4;
},
{
glyphname = Otilde;
layers = (
{
layerId = "54BFC50A-6637-4CB7-8178-55EF9B54D6CA";
name = Regular;
paths = (
{
closed = 1;
nodes = (
"304 629 OFFCURVE",
"249 596 OFFCURVE",
"214 545 CURVE SMOOTH",
"179 493 OFFCURVE",
"163 425 OFFCURVE",
"163 357 CURVE SMOOTH",
"163 289 OFFCURVE",
"179 221 OFFCURVE",
"214 170 CURVE SMOOTH",
"249 118 OFFCURVE",
"304 85 OFFCURVE",
"380 85 CURVE SMOOTH",
"456 85 OFFCURVE",
"511 118 OFFCURVE",
"546 170 CURVE SMOOTH",
"581 221 OFFCURVE",
"597 289 OFFCURVE",
"597 357 CURVE SMOOTH",
"597 425 OFFCURVE",
"581 493 OFFCURVE",
"546 545 CURVE SMOOTH",
"511 596 OFFCURVE",
"456 629 OFFCURVE",
"380 629 CURVE SMOOTH"
);
},
{
closed = 1;
nodes = (
"487 731 OFFCURVE",
"572 688 OFFCURVE",
"631 620 CURVE SMOOTH",
"690 552 OFFCURVE",
"722 458 OFFCURVE",
"722 357 CURVE SMOOTH",
"722 254 OFFCURVE",
"690 161 OFFCURVE",
"631 93 CURVE SMOOTH",
"572 25 OFFCURVE",
"487 -17 OFFCURVE",
"380 -17 CURVE SMOOTH",
"273 -17 OFFCURVE",
"188 25 OFFCURVE",
"129 93 CURVE SMOOTH",
"70 161 OFFCURVE",
"38 254 OFFCURVE",
"38 357 CURVE SMOOTH",
"38 458 OFFCURVE",
"70 552 OFFCURVE",
"129 620 CURVE SMOOTH",
"188 688 OFFCURVE",
"273 731 OFFCURVE",
"380 731 CURVE SMOOTH"
);
},
{
closed = 1;
nodes = (
"561 914 LINE",
"556 882 OFFCURVE",
"547 853 OFFCURVE",
"528 833 CURVE",
"511 812 OFFCURVE",
"486 799 OFFCURVE",
"450 799 CURVE SMOOTH",
"427 799 OFFCURVE",
"401 807 OFFCURVE",
"376 818 CURVE SMOOTH",
"345 831 OFFCURVE",
"331 836 OFFCURVE",
"308 836 CURVE SMOOTH",
"284 836 OFFCURVE",
"270 822 OFFCURVE",
"265 795 CURVE",
"208 795 LINE",
"212 820 OFFCURVE",
"223 849 OFFCURVE",
"240 871 CURVE SMOOTH",
"257 893 OFFCURVE",
"281 908 OFFCURVE",
"312 908 CURVE SMOOTH",
"337 908 OFFCURVE",
"352 905 OFFCURVE",
"393 888 CURVE SMOOTH",
"421 876 OFFCURVE",
"436 870 OFFCURVE",
"455 870 CURVE SMOOTH",
"484 870 OFFCURVE",
"498 887 OFFCURVE",
"505 914 CURVE"
);
}
);
width = 760;
}
);
note = Otilde;
unicode = 00D5;
},
{
glyphname = Odieresis;
layers = (
{
layerId = "54BFC50A-6637-4CB7-8178-55EF9B54D6CA";
name = Regular;
paths = (
{
closed = 1;
nodes = (
"304 629 OFFCURVE",
"249 596 OFFCURVE",
"214 545 CURVE SMOOTH",
"179 493 OFFCURVE",
"163 425 OFFCURVE",
"163 357 CURVE SMOOTH",
"163 289 OFFCURVE",
"179 221 OFFCURVE",
"214 170 CURVE SMOOTH",
"249 118 OFFCURVE",
"304 85 OFFCURVE",
"380 85 CURVE SMOOTH",
"456 85 OFFCURVE",
"511 118 OFFCURVE",
"546 170 CURVE SMOOTH",
"581 221 OFFCURVE",
"597 289 OFFCURVE",
"597 357 CURVE SMOOTH",
"597 425 OFFCURVE",
"581 493 OFFCURVE",
"546 545 CURVE SMOOTH",
"511 596 OFFCURVE",
"456 629 OFFCURVE",
"380 629 CURVE SMOOTH"
);
},
{
closed = 1;
nodes = (
"487 731 OFFCURVE",
"572 688 OFFCURVE",
"631 620 CURVE SMOOTH",
"690 552 OFFCURVE",
"722 458 OFFCURVE",
"722 357 CURVE SMOOTH",
"722 254 OFFCURVE",
"690 161 OFFCURVE",
"631 93 CURVE SMOOTH",
"572 25 OFFCURVE",
"487 -17 OFFCURVE",
"380 -17 CURVE SMOOTH",
"273 -17 OFFCURVE",
"188 25 OFFCURVE",
"129 93 CURVE SMOOTH",
"70 161 OFFCURVE",
"38 254 OFFCURVE",
"38 357 CURVE SMOOTH",
"38 458 OFFCURVE",
"70 552 OFFCURVE",
"129 620 CURVE SMOOTH",
"188 688 OFFCURVE",
"273 731 OFFCURVE",
"380 731 CURVE SMOOTH"
);
},
{
closed = 1;
nodes = (
"238 796 LINE",
"238 904 LINE",
"352 904 LINE",
"352 796 LINE"
);
},
{
closed = 1;
nodes = (
"524 904 LINE",
"524 796 LINE",
"410 796 LINE",
"410 904 LINE"
);
}
);
width = 760;
}
);
note = Odieresis;
unicode = 00D6;
},
{
glyphname = multiply;
layers = (
{
layerId = "54BFC50A-6637-4CB7-8178-55EF9B54D6CA";
name = Regular;
paths = (
{
closed = 1;
nodes = (
"55 427 LINE",
"141 483 LINE",
"299 324 LINE",
"459 483 LINE",
"545 427 LINE",
"370 253 LINE",
"545 79 LINE",
"459 23 LINE",
"299 183 LINE",
"141 23 LINE",
"55 79 LINE",
"229 253 LINE"
);
}
);
width = 600;
}
);
note = multiply;
unicode = 00D7;
},
{
glyphname = Oslash;
layers = (
{
layerId = "54BFC50A-6637-4CB7-8178-55EF9B54D6CA";
name = Regular;
paths = (
{
closed = 1;
nodes = (
"720 698 LINE",
"641 609 LINE",
"693 541 OFFCURVE",
"722 454 OFFCURVE",
"722 357 CURVE SMOOTH",
"722 254 OFFCURVE",
"690 161 OFFCURVE",
"631 93 CURVE SMOOTH",
"572 25 OFFCURVE",
"487 -17 OFFCURVE",
"380 -17 CURVE SMOOTH",
"288 -17 OFFCURVE",
"214 14 OFFCURVE",
"158 65 CURVE",
"82 -20 LINE",
"40 16 LINE",
"119 106 LINE",
"67 173 OFFCURVE",
"38 260 OFFCURVE",
"38 357 CURVE SMOOTH",
"38 458 OFFCURVE",
"70 552 OFFCURVE",
"129 620 CURVE SMOOTH",
"188 688 OFFCURVE",
"273 731 OFFCURVE",
"380 731 CURVE SMOOTH",
"472 731 OFFCURVE",
"546 701 OFFCURVE",
"602 650 CURVE",
"677 734 LINE"
);
},
{
closed = 1;
nodes = (
"232 148 LINE",
"268 109 OFFCURVE",
"316 85 OFFCURVE",
"380 85 CURVE SMOOTH",
"456 85 OFFCURVE",
"511 118 OFFCURVE",
"546 170 CURVE SMOOTH",
"581 221 OFFCURVE",
"597 289 OFFCURVE",
"597 357 CURVE SMOOTH",
"597 414 OFFCURVE",
"587 471 OFFCURVE",
"560 518 CURVE"
);
},
{
closed = 1;
nodes = (
"528 566 LINE",
"495 605 OFFCURVE",
"447 629 OFFCURVE",
"380 629 CURVE SMOOTH",
"304 629 OFFCURVE",
"249 596 OFFCURVE",
"214 545 CURVE SMOOTH",
"179 493 OFFCURVE",
"163 425 OFFCURVE",
"163 357 CURVE SMOOTH",
"163 298 OFFCURVE",
"174 243 OFFCURVE",
"199 196 CURVE"
);
}
);
width = 760;
}
);
note = Oslash;
unicode = 00D8;
},
{
glyphname = Ugrave;
layers = (
{
layerId = "54BFC50A-6637-4CB7-8178-55EF9B54D6CA";
name = Regular;
paths = (
{
closed = 1;
nodes = (
"68 714 LINE",
"193 714 LINE",
"193 298 LINE SMOOTH",
"193 250 OFFCURVE",
"195 198 OFFCURVE",
"217 159 CURVE SMOOTH",
"239 119 OFFCURVE",
"280 91 OFFCURVE",
"361 91 CURVE SMOOTH",
"442 91 OFFCURVE",
"484 119 OFFCURVE",
"506 159 CURVE SMOOTH",
"528 198 OFFCURVE",
"529 250 OFFCURVE",
"529 298 CURVE SMOOTH",
"529 714 LINE",
"654 714 LINE",
"654 257 LINE SMOOTH",
"654 165 OFFCURVE",
"625 98 OFFCURVE",
"574 52 CURVE SMOOTH",
"522 6 OFFCURVE",
"449 -17 OFFCURVE",
"361 -17 CURVE SMOOTH",
"273 -17 OFFCURVE",
"200 6 OFFCURVE",
"149 52 CURVE SMOOTH",
"97 98 OFFCURVE",
"68 165 OFFCURVE",
"68 257 CURVE SMOOTH"
);
},
{
closed = 1;
nodes = (
"324 926 LINE",
"415 783 LINE",
"332 783 LINE",
"190 926 LINE"
);
}
);
width = 722;
}
);
note = Ugrave;
unicode = 00D9;
},
{
glyphname = Uacute;
layers = (
{
layerId = "54BFC50A-6637-4CB7-8178-55EF9B54D6CA";
name = Regular;
paths = (
{
closed = 1;
nodes = (
"68 714 LINE",
"193 714 LINE",
"193 298 LINE SMOOTH",
"193 250 OFFCURVE",
"195 198 OFFCURVE",
"217 159 CURVE SMOOTH",
"239 119 OFFCURVE",
"280 91 OFFCURVE",
"361 91 CURVE SMOOTH",
"442 91 OFFCURVE",
"484 119 OFFCURVE",
"506 159 CURVE SMOOTH",
"528 198 OFFCURVE",
"529 250 OFFCURVE",
"529 298 CURVE SMOOTH",
"529 714 LINE",
"654 714 LINE",
"654 257 LINE SMOOTH",
"654 165 OFFCURVE",
"625 98 OFFCURVE",
"574 52 CURVE SMOOTH",
"522 6 OFFCURVE",
"449 -17 OFFCURVE",
"361 -17 CURVE SMOOTH",
"273 -17 OFFCURVE",
"200 6 OFFCURVE",
"149 52 CURVE SMOOTH",
"97 98 OFFCURVE",
"68 165 OFFCURVE",
"68 257 CURVE SMOOTH"
);
},
{
closed = 1;
nodes = (
"398 926 LINE",
"533 926 LINE",
"391 783 LINE",
"308 783 LINE"
);
}
);
width = 722;
}
);
note = Uacute;
unicode = 00DA;
},
{
glyphname = Ucircumflex;
layers = (
{
layerId = "54BFC50A-6637-4CB7-8178-55EF9B54D6CA";
name = Regular;
paths = (
{
closed = 1;
nodes = (
"68 714 LINE",
"193 714 LINE",
"193 298 LINE SMOOTH",
"193 250 OFFCURVE",
"195 198 OFFCURVE",
"217 159 CURVE SMOOTH",
"239 119 OFFCURVE",
"280 91 OFFCURVE",
"361 91 CURVE SMOOTH",
"442 91 OFFCURVE",
"484 119 OFFCURVE",
"506 159 CURVE SMOOTH",
"528 198 OFFCURVE",
"529 250 OFFCURVE",
"529 298 CURVE SMOOTH",
"529 714 LINE",
"654 714 LINE",
"654 257 LINE SMOOTH",
"654 165 OFFCURVE",
"625 98 OFFCURVE",
"574 52 CURVE SMOOTH",
"522 6 OFFCURVE",
"449 -17 OFFCURVE",
"361 -17 CURVE SMOOTH",
"273 -17 OFFCURVE",
"200 6 OFFCURVE",
"149 52 CURVE SMOOTH",
"97 98 OFFCURVE",
"68 165 OFFCURVE",
"68 257 CURVE SMOOTH"
);
},
{
closed = 1;
nodes = (
"292 783 LINE",
"200 783 LINE",
"307 926 LINE",
"418 926 LINE",
"526 783 LINE",
"433 783 LINE",
"362 873 LINE"
);
}
);
width = 722;
}
);
note = Ucircumflex;
unicode = 00DB;
},
{
glyphname = Udieresis;
layers = (
{
layerId = "54BFC50A-6637-4CB7-8178-55EF9B54D6CA";
name = Regular;
paths = (
{
closed = 1;
nodes = (
"68 714 LINE",
"193 714 LINE",
"193 298 LINE SMOOTH",
"193 250 OFFCURVE",
"195 198 OFFCURVE",
"217 159 CURVE SMOOTH",
"239 119 OFFCURVE",
"280 91 OFFCURVE",
"361 91 CURVE SMOOTH",
"442 91 OFFCURVE",
"484 119 OFFCURVE",
"506 159 CURVE SMOOTH",
"528 198 OFFCURVE",
"529 250 OFFCURVE",
"529 298 CURVE SMOOTH",
"529 714 LINE",
"654 714 LINE",
"654 257 LINE SMOOTH",
"654 165 OFFCURVE",
"625 98 OFFCURVE",
"574 52 CURVE SMOOTH",
"522 6 OFFCURVE",
"449 -17 OFFCURVE",
"361 -17 CURVE SMOOTH",
"273 -17 OFFCURVE",
"200 6 OFFCURVE",
"149 52 CURVE SMOOTH",
"97 98 OFFCURVE",
"68 165 OFFCURVE",
"68 257 CURVE SMOOTH"
);
},
{
closed = 1;
nodes = (
"217 796 LINE",
"217 904 LINE",
"331 904 LINE",
"331 796 LINE"
);
},
{
closed = 1;
nodes = (
"503 904 LINE",
"503 796 LINE",
"389 796 LINE",
"389 904 LINE"
);
}
);
width = 722;
}
);
note = Udieresis;
unicode = 00DC;
},
{
glyphname = Yacute;
layers = (
{
layerId = "54BFC50A-6637-4CB7-8178-55EF9B54D6CA";
name = Regular;
paths = (
{
closed = 1;
nodes = (
"262 280 LINE",
"-6 714 LINE",
"139 714 LINE",
"328 394 LINE",
"514 714 LINE",
"654 714 LINE",
"387 280 LINE",
"387 0 LINE",
"262 0 LINE"
);
},
{
closed = 1;
nodes = (
"373 926 LINE",
"508 926 LINE",
"366 783 LINE",
"283 783 LINE"
);
}
);
width = 648;
}
);
note = Yacute;
unicode = 00DD;
},
{
glyphname = Thorn;
layers = (
{
layerId = "54BFC50A-6637-4CB7-8178-55EF9B54D6CA";
name = Regular;
paths = (
{
closed = 1;
nodes = (
"201 268 LINE",
"384 268 LINE SMOOTH",
"412 268 OFFCURVE",
"443 276 OFFCURVE",
"468 294 CURVE SMOOTH",
"492 312 OFFCURVE",
"509 341 OFFCURVE",
"509 386 CURVE SMOOTH",
"509 433 OFFCURVE",
"495 463 OFFCURVE",
"472 481 CURVE SMOOTH",
"449 499 OFFCURVE",
"419 504 OFFCURVE",
"386 504 CURVE SMOOTH",
"201 504 LINE"
);
},
{
closed = 1;
nodes = (
"76 714 LINE",
"201 714 LINE",
"201 606 LINE",
"391 606 LINE SMOOTH",
"492 606 OFFCURVE",
"554 573 OFFCURVE",
"589 529 CURVE SMOOTH",
"624 485 OFFCURVE",
"634 429 OFFCURVE",
"634 385 CURVE SMOOTH",
"634 341 OFFCURVE",
"624 286 OFFCURVE",
"589 242 CURVE SMOOTH",
"554 198 OFFCURVE",
"492 166 OFFCURVE",
"391 166 CURVE SMOOTH",
"201 166 LINE",
"201 0 LINE",
"76 0 LINE"
);
}
);
width = 667;
}
);
note = Thorn;
unicode = 00DE;
},
{
glyphname = germandbls;
layers = (
{
layerId = "54BFC50A-6637-4CB7-8178-55EF9B54D6CA";
name = Regular;
paths = (
{
closed = 1;
nodes = (
"63 523 LINE SMOOTH",
"63 588 OFFCURVE",
"86 640 OFFCURVE",
"125 676 CURVE SMOOTH",
"164 712 OFFCURVE",
"218 731 OFFCURVE",
"282 731 CURVE SMOOTH",
"335 731 OFFCURVE",
"389 715 OFFCURVE",
"429 684 CURVE SMOOTH",
"469 653 OFFCURVE",
"495 608 OFFCURVE",
"495 551 CURVE SMOOTH",
"495 483 OFFCURVE",
"462 421 OFFCURVE",
"393 400 CURVE",
"393 398 LINE",
"434 393 OFFCURVE",
"468 371 OFFCURVE",
"492 340 CURVE",
"515 308 OFFCURVE",
"527 267 OFFCURVE",
"527 227 CURVE SMOOTH",
"527 158 OFFCURVE",
"505 98 OFFCURVE",
"466 55 CURVE SMOOTH",
"426 11 OFFCURVE",
"369 -14 OFFCURVE",
"298 -14 CURVE SMOOTH",
"279 -14 OFFCURVE",
"261 -13 OFFCURVE",
"242 -11 CURVE",
"242 79 LINE",
"253 76 OFFCURVE",
"262 76 OFFCURVE",
"281 76 CURVE SMOOTH",
"340 76 OFFCURVE",
"374 99 OFFCURVE",
"392 129 CURVE SMOOTH",
"410 159 OFFCURVE",
"413 197 OFFCURVE",
"413 232 CURVE SMOOTH",
"413 281 OFFCURVE",
"391 311 OFFCURVE",
"358 330 CURVE",
"327 350 OFFCURVE",
"282 355 OFFCURVE",
"243 355 CURVE",
"243 430 LINE",
"283 430 OFFCURVE",
"321 437 OFFCURVE",
"342 456 CURVE",
"366 475 OFFCURVE",
"381 501 OFFCURVE",
"381 540 CURVE SMOOTH",
"381 607 OFFCURVE",
"347 641 OFFCURVE",
"280 641 CURVE SMOOTH",
"257 641 OFFCURVE",
"231 635 OFFCURVE",
"211 616 CURVE SMOOTH",
"191 596 OFFCURVE",
"177 564 OFFCURVE",
"177 511 CURVE SMOOTH",
"177 0 LINE",
"63 0 LINE"
);
}
);
width = 574;
}
);
note = germandbls;
unicode = 00DF;
},
{
glyphname = agrave;
lastChange = "2016-01-24 02:55:14 +0000";
layers = (
{
layerId = "54BFC50A-6637-4CB7-8178-55EF9B54D6CA";
name = Regular;
paths = (
{
closed = 1;
nodes = (
"263 732 LINE",
"354 589 LINE",
"271 589 LINE",
"129 732 LINE"
);
},
{
closed = 1;
nodes = (
"493 -3 LINE",
"388 -3 LINE",
"388 49 LINE",
"343 5 OFFCURVE",
"270 -11 OFFCURVE",
"209 -11 CURVE SMOOTH",
"162 -11 OFFCURVE",
"121 2 OFFCURVE",
"89 27 CURVE SMOOTH",
"56 51 OFFCURVE",
"35 86 OFFCURVE",
"35 137 CURVE SMOOTH",
"35 201 OFFCURVE",
"61 239 OFFCURVE",
"99 262 CURVE SMOOTH",
"137 285 OFFCURVE",
"183 293 OFFCURVE",
"231 298 CURVE",
"252 302 OFFCURVE",
"271 305 OFFCURVE",
"290 307 CURVE SMOOTH",
"327 310 OFFCURVE",
"357 317 OFFCURVE",
"374 334 CURVE SMOOTH",
"382 342 OFFCURVE",
"386 354 OFFCURVE",
"386 371 CURVE SMOOTH",
"386 400 OFFCURVE",
"370 419 OFFCURVE",
"350 429 CURVE SMOOTH",
"329 439 OFFCURVE",
"302 441 OFFCURVE",
"279 441 CURVE SMOOTH",
"215 441 OFFCURVE",
"170 425 OFFCURVE",
"165 369 CURVE",
"51 369 LINE",
"55 436 OFFCURVE",
"85 468 OFFCURVE",
"129 495 CURVE SMOOTH",
"172 522 OFFCURVE",
"229 531 OFFCURVE",
"286 531 CURVE SMOOTH",
"337 531 OFFCURVE",
"388 521 OFFCURVE",
"428 497 CURVE SMOOTH",
"467 473 OFFCURVE",
"493 436 OFFCURVE",
"493 381 CURVE SMOOTH"
);
},
{
closed = 1;
nodes = (
"379 259 LINE",
"362 248 OFFCURVE",
"340 241 OFFCURVE",
"315 239 CURVE",
"290 236 OFFCURVE",
"262 233 OFFCURVE",
"237 228 CURVE SMOOTH",
"213 224 OFFCURVE",
"189 217 OFFCURVE",
"172 205 CURVE",
"155 192 OFFCURVE",
"144 171 OFFCURVE",
"144 142 CURVE SMOOTH",
"144 117 OFFCURVE",
"161 100 OFFCURVE",
"182 90 CURVE SMOOTH",
"202 80 OFFCURVE",
"229 76 OFFCURVE",
"249 76 CURVE SMOOTH",
"274 76 OFFCURVE",
"308 82 OFFCURVE",
"334 98 CURVE SMOOTH",
"360 114 OFFCURVE",
"379 138 OFFCURVE",
"379 174 CURVE SMOOTH"
);
}
);
width = 556;
}
);
note = agrave;
unicode = 00E0;
},
{
glyphname = aacute;
lastChange = "2016-01-24 02:55:22 +0000";
layers = (
{
layerId = "54BFC50A-6637-4CB7-8178-55EF9B54D6CA";
name = Regular;
paths = (
{
closed = 1;
nodes = (
"314 732 LINE",
"449 732 LINE",
"307 589 LINE",
"224 589 LINE"
);
},
{
closed = 1;
nodes = (
"493 -3 LINE",
"388 -3 LINE",
"388 49 LINE",
"343 5 OFFCURVE",
"270 -11 OFFCURVE",
"209 -11 CURVE SMOOTH",
"162 -11 OFFCURVE",
"121 2 OFFCURVE",
"89 27 CURVE SMOOTH",
"56 51 OFFCURVE",
"35 86 OFFCURVE",
"35 137 CURVE SMOOTH",
"35 201 OFFCURVE",
"61 239 OFFCURVE",
"99 262 CURVE SMOOTH",
"137 285 OFFCURVE",
"183 293 OFFCURVE",
"231 298 CURVE",
"252 302 OFFCURVE",
"271 305 OFFCURVE",
"290 307 CURVE SMOOTH",
"327 310 OFFCURVE",
"357 317 OFFCURVE",
"374 334 CURVE SMOOTH",
"382 342 OFFCURVE",
"386 354 OFFCURVE",
"386 371 CURVE SMOOTH",
"386 400 OFFCURVE",
"370 419 OFFCURVE",
"350 429 CURVE SMOOTH",
"329 439 OFFCURVE",
"302 441 OFFCURVE",
"279 441 CURVE SMOOTH",
"215 441 OFFCURVE",
"170 425 OFFCURVE",
"165 369 CURVE",
"51 369 LINE",
"55 436 OFFCURVE",
"85 468 OFFCURVE",
"129 495 CURVE SMOOTH",
"172 522 OFFCURVE",
"229 531 OFFCURVE",
"286 531 CURVE SMOOTH",
"337 531 OFFCURVE",
"388 521 OFFCURVE",
"428 497 CURVE SMOOTH",
"467 473 OFFCURVE",
"493 436 OFFCURVE",
"493 381 CURVE SMOOTH"
);
},
{
closed = 1;
nodes = (
"379 259 LINE",
"362 248 OFFCURVE",
"340 241 OFFCURVE",
"315 239 CURVE",
"290 236 OFFCURVE",
"262 233 OFFCURVE",
"237 228 CURVE SMOOTH",
"213 224 OFFCURVE",
"189 217 OFFCURVE",
"172 205 CURVE",
"155 192 OFFCURVE",
"144 171 OFFCURVE",
"144 142 CURVE SMOOTH",
"144 117 OFFCURVE",
"161 100 OFFCURVE",
"182 90 CURVE SMOOTH",
"202 80 OFFCURVE",
"229 76 OFFCURVE",
"249 76 CURVE SMOOTH",
"274 76 OFFCURVE",
"308 82 OFFCURVE",
"334 98 CURVE SMOOTH",
"360 114 OFFCURVE",
"379 138 OFFCURVE",
"379 174 CURVE SMOOTH"
);
}
);
width = 556;
}
);
note = aacute;
unicode = 00E1;
},
{
glyphname = acircumflex;
lastChange = "2016-01-24 02:55:35 +0000";
layers = (
{
layerId = "54BFC50A-6637-4CB7-8178-55EF9B54D6CA";
name = Regular;
paths = (
{
closed = 1;
nodes = (
"214 589 LINE",
"122 589 LINE",
"229 732 LINE",
"340 732 LINE",
"448 589 LINE",
"355 589 LINE",
"284 679 LINE"
);
},
{
closed = 1;
nodes = (
"493 -3 LINE",
"388 -3 LINE",
"388 49 LINE",
"343 5 OFFCURVE",
"270 -11 OFFCURVE",
"209 -11 CURVE SMOOTH",
"162 -11 OFFCURVE",
"121 2 OFFCURVE",
"89 27 CURVE SMOOTH",
"56 51 OFFCURVE",
"35 86 OFFCURVE",
"35 137 CURVE SMOOTH",
"35 201 OFFCURVE",
"61 239 OFFCURVE",
"99 262 CURVE SMOOTH",
"137 285 OFFCURVE",
"183 293 OFFCURVE",
"231 298 CURVE",
"252 302 OFFCURVE",
"271 305 OFFCURVE",
"290 307 CURVE SMOOTH",
"327 310 OFFCURVE",
"357 317 OFFCURVE",
"374 334 CURVE SMOOTH",
"382 342 OFFCURVE",
"386 354 OFFCURVE",
"386 371 CURVE SMOOTH",
"386 400 OFFCURVE",
"370 419 OFFCURVE",
"350 429 CURVE SMOOTH",
"329 439 OFFCURVE",
"302 441 OFFCURVE",
"279 441 CURVE SMOOTH",
"215 441 OFFCURVE",
"170 425 OFFCURVE",
"165 369 CURVE",
"51 369 LINE",
"55 436 OFFCURVE",
"85 468 OFFCURVE",
"129 495 CURVE SMOOTH",
"172 522 OFFCURVE",
"229 531 OFFCURVE",
"286 531 CURVE SMOOTH",
"337 531 OFFCURVE",
"388 521 OFFCURVE",
"428 497 CURVE SMOOTH",
"467 473 OFFCURVE",
"493 436 OFFCURVE",
"493 381 CURVE SMOOTH"
);
},
{
closed = 1;
nodes = (
"379 259 LINE",
"362 248 OFFCURVE",
"340 241 OFFCURVE",
"315 239 CURVE",
"290 236 OFFCURVE",
"262 233 OFFCURVE",
"237 228 CURVE SMOOTH",
"213 224 OFFCURVE",
"189 217 OFFCURVE",
"172 205 CURVE",
"155 192 OFFCURVE",
"144 171 OFFCURVE",
"144 142 CURVE SMOOTH",
"144 117 OFFCURVE",
"161 100 OFFCURVE",
"182 90 CURVE SMOOTH",
"202 80 OFFCURVE",
"229 76 OFFCURVE",
"249 76 CURVE SMOOTH",
"274 76 OFFCURVE",
"308 82 OFFCURVE",
"334 98 CURVE SMOOTH",
"360 114 OFFCURVE",
"379 138 OFFCURVE",
"379 174 CURVE SMOOTH"
);
}
);
width = 556;
}
);
note = acircumflex;
unicode = 00E2;
},
{
glyphname = atilde;
lastChange = "2016-01-24 02:55:43 +0000";
layers = (
{
layerId = "54BFC50A-6637-4CB7-8178-55EF9B54D6CA";
name = Regular;
paths = (
{
closed = 1;
nodes = (
"461 720 LINE",
"456 688 OFFCURVE",
"447 659 OFFCURVE",
"428 639 CURVE",
"411 618 OFFCURVE",
"386 605 OFFCURVE",
"350 605 CURVE SMOOTH",
"327 605 OFFCURVE",
"301 613 OFFCURVE",
"276 624 CURVE SMOOTH",
"245 637 OFFCURVE",
"231 642 OFFCURVE",
"208 642 CURVE SMOOTH",
"184 642 OFFCURVE",
"170 628 OFFCURVE",
"165 601 CURVE",
"108 601 LINE",
"112 626 OFFCURVE",
"123 655 OFFCURVE",
"140 677 CURVE SMOOTH",
"157 699 OFFCURVE",
"181 714 OFFCURVE",
"212 714 CURVE SMOOTH",
"237 714 OFFCURVE",
"252 711 OFFCURVE",
"293 694 CURVE SMOOTH",
"321 682 OFFCURVE",
"336 676 OFFCURVE",
"355 676 CURVE SMOOTH",
"384 676 OFFCURVE",
"398 693 OFFCURVE",
"405 720 CURVE"
);
},
{
closed = 1;
nodes = (
"493 -3 LINE",
"388 -3 LINE",
"388 49 LINE",
"343 5 OFFCURVE",
"270 -11 OFFCURVE",
"209 -11 CURVE SMOOTH",
"162 -11 OFFCURVE",
"121 2 OFFCURVE",
"89 27 CURVE SMOOTH",
"56 51 OFFCURVE",
"35 86 OFFCURVE",
"35 137 CURVE SMOOTH",
"35 201 OFFCURVE",
"61 239 OFFCURVE",
"99 262 CURVE SMOOTH",
"137 285 OFFCURVE",
"183 293 OFFCURVE",
"231 298 CURVE",
"252 302 OFFCURVE",
"271 305 OFFCURVE",
"290 307 CURVE SMOOTH",
"327 310 OFFCURVE",
"357 317 OFFCURVE",
"374 334 CURVE SMOOTH",
"382 342 OFFCURVE",
"386 354 OFFCURVE",
"386 371 CURVE SMOOTH",
"386 400 OFFCURVE",
"370 419 OFFCURVE",
"350 429 CURVE SMOOTH",
"329 439 OFFCURVE",
"302 441 OFFCURVE",
"279 441 CURVE SMOOTH",
"215 441 OFFCURVE",
"170 425 OFFCURVE",
"165 369 CURVE",
"51 369 LINE",
"55 436 OFFCURVE",
"85 468 OFFCURVE",
"129 495 CURVE SMOOTH",
"172 522 OFFCURVE",
"229 531 OFFCURVE",
"286 531 CURVE SMOOTH",
"337 531 OFFCURVE",
"388 521 OFFCURVE",
"428 497 CURVE SMOOTH",
"467 473 OFFCURVE",
"493 436 OFFCURVE",
"493 381 CURVE SMOOTH"
);
},
{
closed = 1;
nodes = (
"379 259 LINE",
"362 248 OFFCURVE",
"340 241 OFFCURVE",
"315 239 CURVE",
"290 236 OFFCURVE",
"262 233 OFFCURVE",
"237 228 CURVE SMOOTH",
"213 224 OFFCURVE",
"189 217 OFFCURVE",
"172 205 CURVE",
"155 192 OFFCURVE",
"144 171 OFFCURVE",
"144 142 CURVE SMOOTH",
"144 117 OFFCURVE",
"161 100 OFFCURVE",
"182 90 CURVE SMOOTH",
"202 80 OFFCURVE",
"229 76 OFFCURVE",
"249 76 CURVE SMOOTH",
"274 76 OFFCURVE",
"308 82 OFFCURVE",
"334 98 CURVE SMOOTH",
"360 114 OFFCURVE",
"379 138 OFFCURVE",
"379 174 CURVE SMOOTH"
);
}
);
width = 556;
}
);
note = atilde;
unicode = 00E3;
},
{
glyphname = adieresis;
lastChange = "2016-01-24 02:55:52 +0000";
layers = (
{
layerId = "54BFC50A-6637-4CB7-8178-55EF9B54D6CA";
name = Regular;
paths = (
{
closed = 1;
nodes = (
"139 602 LINE",
"139 710 LINE",
"253 710 LINE",
"253 602 LINE"
);
},
{
closed = 1;
nodes = (
"425 710 LINE",
"425 602 LINE",
"311 602 LINE",
"311 710 LINE"
);
},
{
closed = 1;
nodes = (
"493 -3 LINE",
"388 -3 LINE",
"388 49 LINE",
"343 5 OFFCURVE",
"270 -11 OFFCURVE",
"209 -11 CURVE SMOOTH",
"162 -11 OFFCURVE",
"121 2 OFFCURVE",
"89 27 CURVE SMOOTH",
"56 51 OFFCURVE",
"35 86 OFFCURVE",
"35 137 CURVE SMOOTH",
"35 201 OFFCURVE",
"61 239 OFFCURVE",
"99 262 CURVE SMOOTH",
"137 285 OFFCURVE",
"183 293 OFFCURVE",
"231 298 CURVE",
"252 302 OFFCURVE",
"271 305 OFFCURVE",
"290 307 CURVE SMOOTH",
"327 310 OFFCURVE",
"357 317 OFFCURVE",
"374 334 CURVE SMOOTH",
"382 342 OFFCURVE",
"386 354 OFFCURVE",
"386 371 CURVE SMOOTH",
"386 400 OFFCURVE",
"370 419 OFFCURVE",
"350 429 CURVE SMOOTH",
"329 439 OFFCURVE",
"302 441 OFFCURVE",
"279 441 CURVE SMOOTH",
"215 441 OFFCURVE",
"170 425 OFFCURVE",
"165 369 CURVE",
"51 369 LINE",
"55 436 OFFCURVE",
"85 468 OFFCURVE",
"129 495 CURVE SMOOTH",
"172 522 OFFCURVE",
"229 531 OFFCURVE",
"286 531 CURVE SMOOTH",
"337 531 OFFCURVE",
"388 521 OFFCURVE",
"428 497 CURVE SMOOTH",
"467 473 OFFCURVE",
"493 436 OFFCURVE",
"493 381 CURVE SMOOTH"
);
},
{
closed = 1;
nodes = (
"379 259 LINE",
"362 248 OFFCURVE",
"340 241 OFFCURVE",
"315 239 CURVE",
"290 236 OFFCURVE",
"262 233 OFFCURVE",
"237 228 CURVE SMOOTH",
"213 224 OFFCURVE",
"189 217 OFFCURVE",
"172 205 CURVE",
"155 192 OFFCURVE",
"144 171 OFFCURVE",
"144 142 CURVE SMOOTH",
"144 117 OFFCURVE",
"161 100 OFFCURVE",
"182 90 CURVE SMOOTH",
"202 80 OFFCURVE",
"229 76 OFFCURVE",
"249 76 CURVE SMOOTH",
"274 76 OFFCURVE",
"308 82 OFFCURVE",
"334 98 CURVE SMOOTH",
"360 114 OFFCURVE",
"379 138 OFFCURVE",
"379 174 CURVE SMOOTH"
);
}
);
width = 556;
}
);
note = adieresis;
unicode = 00E4;
},
{
glyphname = aring;
lastChange = "2016-01-24 02:56:01 +0000";
layers = (
{
layerId = "54BFC50A-6637-4CB7-8178-55EF9B54D6CA";
name = Regular;
paths = (
{
closed = 1;
nodes = (
"222 639 OFFCURVE",
"249 613 OFFCURVE",
"282 613 CURVE SMOOTH",
"317 613 OFFCURVE",
"342 639 OFFCURVE",
"342 674 CURVE SMOOTH",
"342 710 OFFCURVE",
"317 735 OFFCURVE",
"282 735 CURVE SMOOTH",
"249 735 OFFCURVE",
"222 710 OFFCURVE",
"222 674 CURVE SMOOTH"
);
},
{
closed = 1;
nodes = (
"254 571 OFFCURVE",
"228 582 OFFCURVE",
"209 600 CURVE SMOOTH",
"189 618 OFFCURVE",
"178 643 OFFCURVE",
"178 674 CURVE SMOOTH",
"178 705 OFFCURVE",
"190 730 OFFCURVE",
"210 749 CURVE SMOOTH",
"229 768 OFFCURVE",
"254 777 OFFCURVE",
"282 777 CURVE SMOOTH",
"310 777 OFFCURVE",
"335 768 OFFCURVE",
"355 749 CURVE SMOOTH",
"375 730 OFFCURVE",
"386 705 OFFCURVE",
"386 674 CURVE SMOOTH",
"386 643 OFFCURVE",
"375 618 OFFCURVE",
"355 600 CURVE SMOOTH",
"335 582 OFFCURVE",
"310 571 OFFCURVE",
"282 571 CURVE SMOOTH"
);
},
{
closed = 1;
nodes = (
"493 -3 LINE",
"388 -3 LINE",
"388 49 LINE",
"343 5 OFFCURVE",
"270 -11 OFFCURVE",
"209 -11 CURVE SMOOTH",
"162 -11 OFFCURVE",
"121 2 OFFCURVE",
"89 27 CURVE SMOOTH",
"56 51 OFFCURVE",
"35 86 OFFCURVE",
"35 137 CURVE SMOOTH",
"35 201 OFFCURVE",
"61 239 OFFCURVE",
"99 262 CURVE SMOOTH",
"137 285 OFFCURVE",
"183 293 OFFCURVE",
"231 298 CURVE",
"252 302 OFFCURVE",
"271 305 OFFCURVE",
"290 307 CURVE SMOOTH",
"327 310 OFFCURVE",
"357 317 OFFCURVE",
"374 334 CURVE SMOOTH",
"382 342 OFFCURVE",
"386 354 OFFCURVE",
"386 371 CURVE SMOOTH",
"386 400 OFFCURVE",
"370 419 OFFCURVE",
"350 429 CURVE SMOOTH",
"329 439 OFFCURVE",
"302 441 OFFCURVE",
"279 441 CURVE SMOOTH",
"215 441 OFFCURVE",
"170 425 OFFCURVE",
"165 369 CURVE",
"51 369 LINE",
"55 436 OFFCURVE",
"85 468 OFFCURVE",
"129 495 CURVE SMOOTH",
"172 522 OFFCURVE",
"229 531 OFFCURVE",
"286 531 CURVE SMOOTH",
"337 531 OFFCURVE",
"388 521 OFFCURVE",
"428 497 CURVE SMOOTH",
"467 473 OFFCURVE",
"493 436 OFFCURVE",
"493 381 CURVE SMOOTH"
);
},
{
closed = 1;
nodes = (
"379 259 LINE",
"362 248 OFFCURVE",
"340 241 OFFCURVE",
"315 239 CURVE",
"290 236 OFFCURVE",
"262 233 OFFCURVE",
"237 228 CURVE SMOOTH",
"213 224 OFFCURVE",
"189 217 OFFCURVE",
"172 205 CURVE",
"155 192 OFFCURVE",
"144 171 OFFCURVE",
"144 142 CURVE SMOOTH",
"144 117 OFFCURVE",
"161 100 OFFCURVE",
"182 90 CURVE SMOOTH",
"202 80 OFFCURVE",
"229 76 OFFCURVE",
"249 76 CURVE SMOOTH",
"274 76 OFFCURVE",
"308 82 OFFCURVE",
"334 98 CURVE SMOOTH",
"360 114 OFFCURVE",
"379 138 OFFCURVE",
"379 174 CURVE SMOOTH"
);
}
);
width = 556;
}
);
note = aring;
unicode = 00E5;
},
{
glyphname = ae;
layers = (
{
layerId = "54BFC50A-6637-4CB7-8178-55EF9B54D6CA";
name = Regular;
paths = (
{
closed = 1;
nodes = (
"858 163 LINE",
"829 52 OFFCURVE",
"739 -14 OFFCURVE",
"624 -14 CURVE SMOOTH",
"547 -14 OFFCURVE",
"474 10 OFFCURVE",
"434 81 CURVE",
"389 13 OFFCURVE",
"307 -14 OFFCURVE",
"219 -14 CURVE SMOOTH",
"167 -14 OFFCURVE",
"121 -1 OFFCURVE",
"87 24 CURVE SMOOTH",
"53 48 OFFCURVE",
"32 86 OFFCURVE",
"32 137 CURVE SMOOTH",
"32 201 OFFCURVE",
"58 239 OFFCURVE",
"96 262 CURVE SMOOTH",
"134 285 OFFCURVE",
"183 293 OFFCURVE",
"231 298 CURVE",
"252 302 OFFCURVE",
"271 305 OFFCURVE",
"289 307 CURVE SMOOTH",
"325 310 OFFCURVE",
"352 317 OFFCURVE",
"368 334 CURVE SMOOTH",
"376 342 OFFCURVE",
"380 354 OFFCURVE",
"380 371 CURVE SMOOTH",
"380 400 OFFCURVE",
"366 419 OFFCURVE",
"347 429 CURVE SMOOTH",
"327 439 OFFCURVE",
"302 441 OFFCURVE",
"279 441 CURVE SMOOTH",
"215 441 OFFCURVE",
"170 415 OFFCURVE",
"165 359 CURVE",
"51 359 LINE",
"55 426 OFFCURVE",
"85 468 OFFCURVE",
"129 495 CURVE SMOOTH",
"172 522 OFFCURVE",
"227 531 OFFCURVE",
"283 531 CURVE SMOOTH",
"315 531 OFFCURVE",
"349 529 OFFCURVE",
"380 519 CURVE SMOOTH",
"411 509 OFFCURVE",
"438 490 OFFCURVE",
"458 461 CURVE",
"497 512 OFFCURVE",
"559 531 OFFCURVE",
"622 531 CURVE SMOOTH",
"710 531 OFFCURVE",
"773 499 OFFCURVE",
"813 445 CURVE SMOOTH",
"852 391 OFFCURVE",
"867 314 OFFCURVE",
"862 229 CURVE",
"487 229 LINE",
"487 189 OFFCURVE",
"497 151 OFFCURVE",
"519 123 CURVE SMOOTH",
"541 95 OFFCURVE",
"575 76 OFFCURVE",
"622 76 CURVE SMOOTH",
"683 76 OFFCURVE",
"725 108 OFFCURVE",
"744 163 CURVE"
);
},
{
closed = 1;
nodes = (
"379 257 LINE",
"367 245 OFFCURVE",
"345 241 OFFCURVE",
"321 238 CURVE SMOOTH",
"308 236 OFFCURVE",
"295 234 OFFCURVE",
"281 233 CURVE",
"253 230 OFFCURVE",
"227 227 OFFCURVE",
"204 220 CURVE",
"181 212 OFFCURVE",
"164 200 OFFCURVE",
"154 180 CURVE",
"149 169 OFFCURVE",
"146 157 OFFCURVE",
"146 142 CURVE SMOOTH",
"146 115 OFFCURVE",
"160 100 OFFCURVE",
"180 90 CURVE SMOOTH",
"200 80 OFFCURVE",
"226 76 OFFCURVE",
"250 76 CURVE SMOOTH",
"282 76 OFFCURVE",
"314 85 OFFCURVE",
"338 103 CURVE SMOOTH",
"362 121 OFFCURVE",
"379 145 OFFCURVE",
"379 180 CURVE SMOOTH"
);
},
{
closed = 1;
nodes = (
"748 304 LINE",
"749 387 OFFCURVE",
"701 441 OFFCURVE",
"617 441 CURVE SMOOTH",
"577 441 OFFCURVE",
"546 425 OFFCURVE",
"524 400 CURVE SMOOTH",
"502 375 OFFCURVE",
"490 341 OFFCURVE",
"487 304 CURVE"
);
}
);
width = 889;
}
);
note = ae;
unicode = 00E6;
},
{
glyphname = ccedilla;
layers = (
{
layerId = "54BFC50A-6637-4CB7-8178-55EF9B54D6CA";
name = Regular;
paths = (
{
closed = 1;
nodes = (
"191 -160 LINE",
"215 -171 OFFCURVE",
"233 -176 OFFCURVE",
"256 -176 CURVE SMOOTH",
"269 -176 OFFCURVE",
"285 -174 OFFCURVE",
"297 -168 CURVE SMOOTH",
"309 -162 OFFCURVE",
"317 -152 OFFCURVE",
"317 -135 CURVE SMOOTH",
"317 -110 OFFCURVE",
"294 -97 OFFCURVE",
"271 -97 CURVE SMOOTH",
"256 -97 OFFCURVE",
"243 -100 OFFCURVE",
"232 -107 CURVE",
"210 -88 LINE",
"266 -13 LINE",
"201 -9 OFFCURVE",
"143 15 OFFCURVE",
"100 63 CURVE SMOOTH",
"57 110 OFFCURVE",
"35 177 OFFCURVE",
"35 253 CURVE SMOOTH",
"35 330 OFFCURVE",
"56 401 OFFCURVE",
"99 451 CURVE SMOOTH",
"142 501 OFFCURVE",
"205 531 OFFCURVE",
"290 531 CURVE SMOOTH",
"350 531 OFFCURVE",
"406 516 OFFCURVE",
"448 485 CURVE SMOOTH",
"490 454 OFFCURVE",
"518 408 OFFCURVE",
"523 344 CURVE",
"409 344 LINE",
"400 408 OFFCURVE",
"355 441 OFFCURVE",
"291 441 CURVE SMOOTH",
"262 441 OFFCURVE",
"226 433 OFFCURVE",
"198 406 CURVE SMOOTH",
"170 378 OFFCURVE",
"149 332 OFFCURVE",
"149 253 CURVE SMOOTH",
"149 210 OFFCURVE",
"159 165 OFFCURVE",
"181 132 CURVE SMOOTH",
"203 99 OFFCURVE",
"237 76 OFFCURVE",
"286 76 CURVE SMOOTH",
"353 76 OFFCURVE",
"398 119 OFFCURVE",
"409 194 CURVE",
"523 194 LINE",
"502 59 OFFCURVE",
"422 -4 OFFCURVE",
"314 -13 CURVE",
"278 -59 LINE",
"279 -60 LINE",
"287 -57 OFFCURVE",
"297 -56 OFFCURVE",
"312 -56 CURVE SMOOTH",
"332 -56 OFFCURVE",
"353 -62 OFFCURVE",
"369 -74 CURVE",
"385 -87 OFFCURVE",
"397 -106 OFFCURVE",
"397 -131 CURVE SMOOTH",
"397 -166 OFFCURVE",
"381 -187 OFFCURVE",
"358 -201 CURVE SMOOTH",
"335 -215 OFFCURVE",
"305 -223 OFFCURVE",
"276 -223 CURVE SMOOTH",
"239 -223 OFFCURVE",
"202 -216 OFFCURVE",
"173 -200 CURVE"
);
}
);
width = 556;
}
);
note = ccedilla;
unicode = 00E7;
},
{
glyphname = egrave;
lastChange = "2016-01-24 02:58:04 +0000";
layers = (
{
layerId = "54BFC50A-6637-4CB7-8178-55EF9B54D6CA";
name = Regular;
paths = (
{
closed = 1;
nodes = (
"251 732 LINE",
"342 589 LINE",
"259 589 LINE",
"117 732 LINE"
);
},
{
closed = 1;
nodes = (
"415 308 LINE",
"412 344 OFFCURVE",
"400 375 OFFCURVE",
"378 400 CURVE SMOOTH",
"356 424 OFFCURVE",
"324 441 OFFCURVE",
"285 441 CURVE SMOOTH",
"245 441 OFFCURVE",
"212 426 OFFCURVE",
"189 402 CURVE SMOOTH",
"165 377 OFFCURVE",
"150 347 OFFCURVE",
"149 308 CURVE"
);
},
{
closed = 1;
nodes = (
"149 233 LINE",
"149 193 OFFCURVE",
"160 150 OFFCURVE",
"183 122 CURVE SMOOTH",
"206 94 OFFCURVE",
"240 76 OFFCURVE",
"288 76 CURVE SMOOTH",
"355 76 OFFCURVE",
"394 101 OFFCURVE",
"414 158 CURVE",
"522 158 LINE",
"510 102 OFFCURVE",
"479 62 OFFCURVE",
"438 32 CURVE SMOOTH",
"397 2 OFFCURVE",
"344 -14 OFFCURVE",
"288 -14 CURVE SMOOTH",
"207 -14 OFFCURVE",
"144 14 OFFCURVE",
"101 62 CURVE SMOOTH",
"57 110 OFFCURVE",
"35 178 OFFCURVE",
"35 258 CURVE SMOOTH",
"35 331 OFFCURVE",
"59 400 OFFCURVE",
"103 450 CURVE SMOOTH",
"146 500 OFFCURVE",
"208 531 OFFCURVE",
"285 531 CURVE SMOOTH",
"366 531 OFFCURVE",
"432 494 OFFCURVE",
"475 438 CURVE SMOOTH",
"518 382 OFFCURVE",
"538 310 OFFCURVE",
"529 233 CURVE"
);
}
);
width = 556;
}
);
note = egrave;
unicode = 00E8;
},
{
glyphname = eacute;
lastChange = "2016-01-24 02:58:14 +0000";
layers = (
{
layerId = "54BFC50A-6637-4CB7-8178-55EF9B54D6CA";
name = Regular;
paths = (
{
closed = 1;
nodes = (
"329 732 LINE",
"464 732 LINE",
"322 589 LINE",
"239 589 LINE"
);
},
{
closed = 1;
nodes = (
"415 308 LINE",
"412 344 OFFCURVE",
"400 375 OFFCURVE",
"378 400 CURVE SMOOTH",
"356 424 OFFCURVE",
"324 441 OFFCURVE",
"285 441 CURVE SMOOTH",
"245 441 OFFCURVE",
"212 426 OFFCURVE",
"189 402 CURVE SMOOTH",
"165 377 OFFCURVE",
"150 347 OFFCURVE",
"149 308 CURVE"
);
},
{
closed = 1;
nodes = (
"149 233 LINE",
"149 193 OFFCURVE",
"160 150 OFFCURVE",
"183 122 CURVE SMOOTH",
"206 94 OFFCURVE",
"240 76 OFFCURVE",
"288 76 CURVE SMOOTH",
"355 76 OFFCURVE",
"394 101 OFFCURVE",
"414 158 CURVE",
"522 158 LINE",
"510 102 OFFCURVE",
"479 62 OFFCURVE",
"438 32 CURVE SMOOTH",
"397 2 OFFCURVE",
"344 -14 OFFCURVE",
"288 -14 CURVE SMOOTH",
"207 -14 OFFCURVE",
"144 14 OFFCURVE",
"101 62 CURVE SMOOTH",
"57 110 OFFCURVE",
"35 178 OFFCURVE",
"35 258 CURVE SMOOTH",
"35 331 OFFCURVE",
"59 400 OFFCURVE",
"103 450 CURVE SMOOTH",
"146 500 OFFCURVE",
"208 531 OFFCURVE",
"285 531 CURVE SMOOTH",
"366 531 OFFCURVE",
"432 494 OFFCURVE",
"475 438 CURVE SMOOTH",
"518 382 OFFCURVE",
"538 310 OFFCURVE",
"529 233 CURVE"
);
}
);
width = 556;
}
);
note = eacute;
unicode = 00E9;
},
{
glyphname = ecircumflex;
lastChange = "2016-01-24 02:58:22 +0000";
layers = (
{
layerId = "54BFC50A-6637-4CB7-8178-55EF9B54D6CA";
name = Regular;
paths = (
{
closed = 1;
nodes = (
"216 589 LINE",
"124 589 LINE",
"231 732 LINE",
"342 732 LINE",
"450 589 LINE",
"357 589 LINE",
"286 679 LINE"
);
},
{
closed = 1;
nodes = (
"415 308 LINE",
"412 344 OFFCURVE",
"400 375 OFFCURVE",
"378 400 CURVE SMOOTH",
"356 424 OFFCURVE",
"324 441 OFFCURVE",
"285 441 CURVE SMOOTH",
"245 441 OFFCURVE",
"212 426 OFFCURVE",
"189 402 CURVE SMOOTH",
"165 377 OFFCURVE",
"150 347 OFFCURVE",
"149 308 CURVE"
);
},
{
closed = 1;
nodes = (
"149 233 LINE",
"149 193 OFFCURVE",
"160 150 OFFCURVE",
"183 122 CURVE SMOOTH",
"206 94 OFFCURVE",
"240 76 OFFCURVE",
"288 76 CURVE SMOOTH",
"355 76 OFFCURVE",
"394 101 OFFCURVE",
"414 158 CURVE",
"522 158 LINE",
"510 102 OFFCURVE",
"479 62 OFFCURVE",
"438 32 CURVE SMOOTH",
"397 2 OFFCURVE",
"344 -14 OFFCURVE",
"288 -14 CURVE SMOOTH",
"207 -14 OFFCURVE",
"144 14 OFFCURVE",
"101 62 CURVE SMOOTH",
"57 110 OFFCURVE",
"35 178 OFFCURVE",
"35 258 CURVE SMOOTH",
"35 331 OFFCURVE",
"59 400 OFFCURVE",
"103 450 CURVE SMOOTH",
"146 500 OFFCURVE",
"208 531 OFFCURVE",
"285 531 CURVE SMOOTH",
"366 531 OFFCURVE",
"432 494 OFFCURVE",
"475 438 CURVE SMOOTH",
"518 382 OFFCURVE",
"538 310 OFFCURVE",
"529 233 CURVE"
);
}
);
width = 556;
}
);
note = ecircumflex;
unicode = 00EA;
},
{
glyphname = edieresis;
lastChange = "2016-01-24 02:58:29 +0000";
layers = (
{
layerId = "54BFC50A-6637-4CB7-8178-55EF9B54D6CA";
name = Regular;
paths = (
{
closed = 1;
nodes = (
"142 602 LINE",
"142 710 LINE",
"256 710 LINE",
"256 602 LINE"
);
},
{
closed = 1;
nodes = (
"428 710 LINE",
"428 602 LINE",
"314 602 LINE",
"314 710 LINE"
);
},
{
closed = 1;
nodes = (
"415 308 LINE",
"412 344 OFFCURVE",
"400 375 OFFCURVE",
"378 400 CURVE SMOOTH",
"356 424 OFFCURVE",
"324 441 OFFCURVE",
"285 441 CURVE SMOOTH",
"245 441 OFFCURVE",
"212 426 OFFCURVE",
"189 402 CURVE SMOOTH",
"165 377 OFFCURVE",
"150 347 OFFCURVE",
"149 308 CURVE"
);
},
{
closed = 1;
nodes = (
"149 233 LINE",
"149 193 OFFCURVE",
"160 150 OFFCURVE",
"183 122 CURVE SMOOTH",
"206 94 OFFCURVE",
"240 76 OFFCURVE",
"288 76 CURVE SMOOTH",
"355 76 OFFCURVE",
"394 101 OFFCURVE",
"414 158 CURVE",
"522 158 LINE",
"510 102 OFFCURVE",
"479 62 OFFCURVE",
"438 32 CURVE SMOOTH",
"397 2 OFFCURVE",
"344 -14 OFFCURVE",
"288 -14 CURVE SMOOTH",
"207 -14 OFFCURVE",
"144 14 OFFCURVE",
"101 62 CURVE SMOOTH",
"57 110 OFFCURVE",
"35 178 OFFCURVE",
"35 258 CURVE SMOOTH",
"35 331 OFFCURVE",
"59 400 OFFCURVE",
"103 450 CURVE SMOOTH",
"146 500 OFFCURVE",
"208 531 OFFCURVE",
"285 531 CURVE SMOOTH",
"366 531 OFFCURVE",
"432 494 OFFCURVE",
"475 438 CURVE SMOOTH",
"518 382 OFFCURVE",
"538 310 OFFCURVE",
"529 233 CURVE"
);
}
);
width = 556;
}
);
note = edieresis;
unicode = 00EB;
},
{
glyphname = igrave;
layers = (
{
layerId = "54BFC50A-6637-4CB7-8178-55EF9B54D6CA";
name = Regular;
paths = (
{
closed = 1;
nodes = (
"63 0 LINE",
"63 517 LINE",
"177 517 LINE",
"177 0 LINE"
);
},
{
closed = 1;
nodes = (
"88 732 LINE",
"179 589 LINE",
"96 589 LINE",
"-46 732 LINE"
);
}
);
width = 241;
}
);
note = igrave;
unicode = 00EC;
},
{
glyphname = iacute;
layers = (
{
layerId = "54BFC50A-6637-4CB7-8178-55EF9B54D6CA";
name = Regular;
paths = (
{
closed = 1;
nodes = (
"63 0 LINE",
"63 517 LINE",
"177 517 LINE",
"177 0 LINE"
);
},
{
closed = 1;
nodes = (
"153 732 LINE",
"288 732 LINE",
"146 589 LINE",
"63 589 LINE"
);
}
);
width = 241;
}
);
note = iacute;
unicode = 00ED;
},
{
glyphname = icircumflex;
layers = (
{
layerId = "54BFC50A-6637-4CB7-8178-55EF9B54D6CA";
name = Regular;
paths = (
{
closed = 1;
nodes = (
"63 0 LINE",
"63 517 LINE",
"177 517 LINE",
"177 0 LINE"
);
},
{
closed = 1;
nodes = (
"50 589 LINE",
"-42 589 LINE",
"65 732 LINE",
"176 732 LINE",
"284 589 LINE",
"191 589 LINE",
"120 679 LINE"
);
}
);
width = 241;
}
);
note = icircumflex;
unicode = 00EE;
},
{
glyphname = idieresis;
layers = (
{
layerId = "54BFC50A-6637-4CB7-8178-55EF9B54D6CA";
name = Regular;
paths = (
{
closed = 1;
nodes = (
"63 0 LINE",
"63 517 LINE",
"177 517 LINE",
"177 0 LINE"
);
},
{
closed = 1;
nodes = (
"-22 602 LINE",
"-22 710 LINE",
"92 710 LINE",
"92 602 LINE"
);
},
{
closed = 1;
nodes = (
"264 710 LINE",
"264 602 LINE",
"150 602 LINE",
"150 710 LINE"
);
}
);
width = 241;
}
);
note = idieresis;
unicode = 00EF;
},
{
glyphname = eth;
layers = (
{
layerId = "54BFC50A-6637-4CB7-8178-55EF9B54D6CA";
name = Regular;
paths = (
{
closed = 1;
nodes = (
"144 590 LINE",
"240 636 LINE",
"209 649 OFFCURVE",
"182 662 OFFCURVE",
"155 670 CURVE",
"231 731 LINE",
"268 719 OFFCURVE",
"302 702 OFFCURVE",
"335 681 CURVE",
"440 731 LINE",
"489 682 LINE",
"395 637 LINE",
"495 554 OFFCURVE",
"550 438 OFFCURVE",
"550 309 CURVE SMOOTH",
"550 221 OFFCURVE",
"532 140 OFFCURVE",
"489 81 CURVE SMOOTH",
"445 22 OFFCURVE",
"378 -14 OFFCURVE",
"281 -14 CURVE SMOOTH",
"205 -14 OFFCURVE",
"145 13 OFFCURVE",
"105 61 CURVE SMOOTH",
"64 108 OFFCURVE",
"42 173 OFFCURVE",
"42 252 CURVE SMOOTH",
"42 317 OFFCURVE",
"63 381 OFFCURVE",
"102 428 CURVE SMOOTH",
"141 475 OFFCURVE",
"196 506 OFFCURVE",
"265 506 CURVE SMOOTH",
"321 506 OFFCURVE",
"363 494 OFFCURVE",
"408 462 CURVE",
"410 462 LINE",
"387 514 OFFCURVE",
"345 557 OFFCURVE",
"302 593 CURVE",
"194 541 LINE"
);
},
{
closed = 1;
nodes = (
"246 416 OFFCURVE",
"211 396 OFFCURVE",
"188 365 CURVE SMOOTH",
"165 334 OFFCURVE",
"156 290 OFFCURVE",
"156 245 CURVE SMOOTH",
"156 200 OFFCURVE",
"166 158 OFFCURVE",
"188 127 CURVE SMOOTH",
"210 95 OFFCURVE",
"241 76 OFFCURVE",
"288 76 CURVE SMOOTH",
"333 76 OFFCURVE",
"371 97 OFFCURVE",
"397 129 CURVE SMOOTH",
"423 160 OFFCURVE",
"436 202 OFFCURVE",
"436 245 CURVE SMOOTH",
"436 288 OFFCURVE",
"426 331 OFFCURVE",
"404 363 CURVE SMOOTH",
"382 395 OFFCURVE",
"347 416 OFFCURVE",
"299 416 CURVE SMOOTH"
);
}
);
width = 593;
}
);
note = eth;
unicode = 00F0;
},
{
glyphname = ntilde;
layers = (
{
layerId = "54BFC50A-6637-4CB7-8178-55EF9B54D6CA";
name = Regular;
paths = (
{
closed = 1;
nodes = (
"60 517 LINE",
"168 517 LINE",
"168 441 LINE",
"170 439 LINE",
"205 496 OFFCURVE",
"263 531 OFFCURVE",
"331 531 CURVE SMOOTH",
"444 531 OFFCURVE",
"514 472 OFFCURVE",
"514 355 CURVE SMOOTH",
"514 0 LINE",
"400 0 LINE",
"400 325 LINE",
"397 406 OFFCURVE",
"367 441 OFFCURVE",
"299 441 CURVE SMOOTH",
"260 441 OFFCURVE",
"229 426 OFFCURVE",
"208 402 CURVE SMOOTH",
"187 377 OFFCURVE",
"174 342 OFFCURVE",
"174 305 CURVE SMOOTH",
"174 0 LINE",
"60 0 LINE"
);
},
{
closed = 1;
nodes = (
"463 720 LINE",
"458 688 OFFCURVE",
"449 659 OFFCURVE",
"430 639 CURVE",
"413 618 OFFCURVE",
"388 605 OFFCURVE",
"352 605 CURVE SMOOTH",
"329 605 OFFCURVE",
"303 613 OFFCURVE",
"278 624 CURVE SMOOTH",
"247 637 OFFCURVE",
"233 642 OFFCURVE",
"210 642 CURVE SMOOTH",
"186 642 OFFCURVE",
"172 628 OFFCURVE",
"167 601 CURVE",
"110 601 LINE",
"114 626 OFFCURVE",
"125 655 OFFCURVE",
"142 677 CURVE SMOOTH",
"159 699 OFFCURVE",
"183 714 OFFCURVE",
"214 714 CURVE SMOOTH",
"239 714 OFFCURVE",
"254 711 OFFCURVE",
"295 694 CURVE SMOOTH",
"323 682 OFFCURVE",
"338 676 OFFCURVE",
"357 676 CURVE SMOOTH",
"386 676 OFFCURVE",
"400 693 OFFCURVE",
"407 720 CURVE"
);
}
);
width = 574;
}
);
note = ntilde;
unicode = 00F1;
},
{
glyphname = ograve;
layers = (
{
layerId = "54BFC50A-6637-4CB7-8178-55EF9B54D6CA";
name = Regular;
paths = (
{
closed = 1;
nodes = (
"214 -14 OFFCURVE",
"149 15 OFFCURVE",
"105 63 CURVE SMOOTH",
"60 111 OFFCURVE",
"36 179 OFFCURVE",
"36 259 CURVE SMOOTH",
"36 338 OFFCURVE",
"60 406 OFFCURVE",
"105 454 CURVE SMOOTH",
"149 502 OFFCURVE",
"214 531 OFFCURVE",
"297 531 CURVE SMOOTH",
"380 531 OFFCURVE",
"445 502 OFFCURVE",
"490 454 CURVE SMOOTH",
"534 406 OFFCURVE",
"558 338 OFFCURVE",
"558 259 CURVE SMOOTH",
"558 179 OFFCURVE",
"534 111 OFFCURVE",
"490 63 CURVE SMOOTH",
"445 15 OFFCURVE",
"380 -14 OFFCURVE",
"297 -14 CURVE SMOOTH"
);
},
{
closed = 1;
nodes = (
"348 76 OFFCURVE",
"385 99 OFFCURVE",
"409 134 CURVE SMOOTH",
"433 169 OFFCURVE",
"444 214 OFFCURVE",
"444 259 CURVE SMOOTH",
"444 303 OFFCURVE",
"433 350 OFFCURVE",
"409 384 CURVE SMOOTH",
"385 418 OFFCURVE",
"348 441 OFFCURVE",
"297 441 CURVE SMOOTH",
"246 441 OFFCURVE",
"209 418 OFFCURVE",
"185 384 CURVE SMOOTH",
"161 350 OFFCURVE",
"150 303 OFFCURVE",
"150 259 CURVE SMOOTH",
"150 214 OFFCURVE",
"161 169 OFFCURVE",
"185 134 CURVE SMOOTH",
"209 99 OFFCURVE",
"246 76 OFFCURVE",
"297 76 CURVE SMOOTH"
);
},
{
closed = 1;
nodes = (
"258 732 LINE",
"349 589 LINE",
"266 589 LINE",
"124 732 LINE"
);
}
);
width = 593;
}
);
note = ograve;
unicode = 00F2;
},
{
glyphname = oacute;
layers = (
{
layerId = "54BFC50A-6637-4CB7-8178-55EF9B54D6CA";
name = Regular;
paths = (
{
closed = 1;
nodes = (
"214 -14 OFFCURVE",
"149 15 OFFCURVE",
"105 63 CURVE SMOOTH",
"60 111 OFFCURVE",
"36 179 OFFCURVE",
"36 259 CURVE SMOOTH",
"36 338 OFFCURVE",
"60 406 OFFCURVE",
"105 454 CURVE SMOOTH",
"149 502 OFFCURVE",
"214 531 OFFCURVE",
"297 531 CURVE SMOOTH",
"380 531 OFFCURVE",
"445 502 OFFCURVE",
"490 454 CURVE SMOOTH",
"534 406 OFFCURVE",
"558 338 OFFCURVE",
"558 259 CURVE SMOOTH",
"558 179 OFFCURVE",
"534 111 OFFCURVE",
"490 63 CURVE SMOOTH",
"445 15 OFFCURVE",
"380 -14 OFFCURVE",
"297 -14 CURVE SMOOTH"
);
},
{
closed = 1;
nodes = (
"348 76 OFFCURVE",
"385 99 OFFCURVE",
"409 134 CURVE SMOOTH",
"433 169 OFFCURVE",
"444 214 OFFCURVE",
"444 259 CURVE SMOOTH",
"444 303 OFFCURVE",
"433 350 OFFCURVE",
"409 384 CURVE SMOOTH",
"385 418 OFFCURVE",
"348 441 OFFCURVE",
"297 441 CURVE SMOOTH",
"246 441 OFFCURVE",
"209 418 OFFCURVE",
"185 384 CURVE SMOOTH",
"161 350 OFFCURVE",
"150 303 OFFCURVE",
"150 259 CURVE SMOOTH",
"150 214 OFFCURVE",
"161 169 OFFCURVE",
"185 134 CURVE SMOOTH",
"209 99 OFFCURVE",
"246 76 OFFCURVE",
"297 76 CURVE SMOOTH"
);
},
{
closed = 1;
nodes = (
"330 732 LINE",
"465 732 LINE",
"323 589 LINE",
"240 589 LINE"
);
}
);
width = 593;
}
);
note = oacute;
unicode = 00F3;
},
{
glyphname = ocircumflex;
layers = (
{
layerId = "54BFC50A-6637-4CB7-8178-55EF9B54D6CA";
name = Regular;
paths = (
{
closed = 1;
nodes = (
"214 -14 OFFCURVE",
"149 15 OFFCURVE",
"105 63 CURVE SMOOTH",
"60 111 OFFCURVE",
"36 179 OFFCURVE",
"36 259 CURVE SMOOTH",
"36 338 OFFCURVE",
"60 406 OFFCURVE",
"105 454 CURVE SMOOTH",
"149 502 OFFCURVE",
"214 531 OFFCURVE",
"297 531 CURVE SMOOTH",
"380 531 OFFCURVE",
"445 502 OFFCURVE",
"490 454 CURVE SMOOTH",
"534 406 OFFCURVE",
"558 338 OFFCURVE",
"558 259 CURVE SMOOTH",
"558 179 OFFCURVE",
"534 111 OFFCURVE",
"490 63 CURVE SMOOTH",
"445 15 OFFCURVE",
"380 -14 OFFCURVE",
"297 -14 CURVE SMOOTH"
);
},
{
closed = 1;
nodes = (
"348 76 OFFCURVE",
"385 99 OFFCURVE",
"409 134 CURVE SMOOTH",
"433 169 OFFCURVE",
"444 214 OFFCURVE",
"444 259 CURVE SMOOTH",
"444 303 OFFCURVE",
"433 350 OFFCURVE",
"409 384 CURVE SMOOTH",
"385 418 OFFCURVE",
"348 441 OFFCURVE",
"297 441 CURVE SMOOTH",
"246 441 OFFCURVE",
"209 418 OFFCURVE",
"185 384 CURVE SMOOTH",
"161 350 OFFCURVE",
"150 303 OFFCURVE",
"150 259 CURVE SMOOTH",
"150 214 OFFCURVE",
"161 169 OFFCURVE",
"185 134 CURVE SMOOTH",
"209 99 OFFCURVE",
"246 76 OFFCURVE",
"297 76 CURVE SMOOTH"
);
},
{
closed = 1;
nodes = (
"228 589 LINE",
"136 589 LINE",
"243 732 LINE",
"354 732 LINE",
"462 589 LINE",
"369 589 LINE",
"298 679 LINE"
);
}
);
width = 593;
}
);
note = ocircumflex;
unicode = 00F4;
},
{
glyphname = otilde;
layers = (
{
layerId = "54BFC50A-6637-4CB7-8178-55EF9B54D6CA";
name = Regular;
paths = (
{
closed = 1;
nodes = (
"214 -14 OFFCURVE",
"149 15 OFFCURVE",
"105 63 CURVE SMOOTH",
"60 111 OFFCURVE",
"36 179 OFFCURVE",
"36 259 CURVE SMOOTH",
"36 338 OFFCURVE",
"60 406 OFFCURVE",
"105 454 CURVE SMOOTH",
"149 502 OFFCURVE",
"214 531 OFFCURVE",
"297 531 CURVE SMOOTH",
"380 531 OFFCURVE",
"445 502 OFFCURVE",
"490 454 CURVE SMOOTH",
"534 406 OFFCURVE",
"558 338 OFFCURVE",
"558 259 CURVE SMOOTH",
"558 179 OFFCURVE",
"534 111 OFFCURVE",
"490 63 CURVE SMOOTH",
"445 15 OFFCURVE",
"380 -14 OFFCURVE",
"297 -14 CURVE SMOOTH"
);
},
{
closed = 1;
nodes = (
"348 76 OFFCURVE",
"385 99 OFFCURVE",
"409 134 CURVE SMOOTH",
"433 169 OFFCURVE",
"444 214 OFFCURVE",
"444 259 CURVE SMOOTH",
"444 303 OFFCURVE",
"433 350 OFFCURVE",
"409 384 CURVE SMOOTH",
"385 418 OFFCURVE",
"348 441 OFFCURVE",
"297 441 CURVE SMOOTH",
"246 441 OFFCURVE",
"209 418 OFFCURVE",
"185 384 CURVE SMOOTH",
"161 350 OFFCURVE",
"150 303 OFFCURVE",
"150 259 CURVE SMOOTH",
"150 214 OFFCURVE",
"161 169 OFFCURVE",
"185 134 CURVE SMOOTH",
"209 99 OFFCURVE",
"246 76 OFFCURVE",
"297 76 CURVE SMOOTH"
);
},
{
closed = 1;
nodes = (
"476 720 LINE",
"471 688 OFFCURVE",
"462 659 OFFCURVE",
"443 639 CURVE",
"426 618 OFFCURVE",
"401 605 OFFCURVE",
"365 605 CURVE SMOOTH",
"342 605 OFFCURVE",
"316 613 OFFCURVE",
"291 624 CURVE SMOOTH",
"260 637 OFFCURVE",
"246 642 OFFCURVE",
"223 642 CURVE SMOOTH",
"199 642 OFFCURVE",
"185 628 OFFCURVE",
"180 601 CURVE",
"123 601 LINE",
"127 626 OFFCURVE",
"138 655 OFFCURVE",
"155 677 CURVE SMOOTH",
"172 699 OFFCURVE",
"196 714 OFFCURVE",
"227 714 CURVE SMOOTH",
"252 714 OFFCURVE",
"267 711 OFFCURVE",
"308 694 CURVE SMOOTH",
"336 682 OFFCURVE",
"351 676 OFFCURVE",
"370 676 CURVE SMOOTH",
"399 676 OFFCURVE",
"413 693 OFFCURVE",
"420 720 CURVE"
);
}
);
width = 593;
}
);
note = otilde;
unicode = 00F5;
},
{
glyphname = odieresis;
layers = (
{
layerId = "54BFC50A-6637-4CB7-8178-55EF9B54D6CA";
name = Regular;
paths = (
{
closed = 1;
nodes = (
"214 -14 OFFCURVE",
"149 15 OFFCURVE",
"105 63 CURVE SMOOTH",
"60 111 OFFCURVE",
"36 179 OFFCURVE",
"36 259 CURVE SMOOTH",
"36 338 OFFCURVE",
"60 406 OFFCURVE",
"105 454 CURVE SMOOTH",
"149 502 OFFCURVE",
"214 531 OFFCURVE",
"297 531 CURVE SMOOTH",
"380 531 OFFCURVE",
"445 502 OFFCURVE",
"490 454 CURVE SMOOTH",
"534 406 OFFCURVE",
"558 338 OFFCURVE",
"558 259 CURVE SMOOTH",
"558 179 OFFCURVE",
"534 111 OFFCURVE",
"490 63 CURVE SMOOTH",
"445 15 OFFCURVE",
"380 -14 OFFCURVE",
"297 -14 CURVE SMOOTH"
);
},
{
closed = 1;
nodes = (
"348 76 OFFCURVE",
"385 99 OFFCURVE",
"409 134 CURVE SMOOTH",
"433 169 OFFCURVE",
"444 214 OFFCURVE",
"444 259 CURVE SMOOTH",
"444 303 OFFCURVE",
"433 350 OFFCURVE",
"409 384 CURVE SMOOTH",
"385 418 OFFCURVE",
"348 441 OFFCURVE",
"297 441 CURVE SMOOTH",
"246 441 OFFCURVE",
"209 418 OFFCURVE",
"185 384 CURVE SMOOTH",
"161 350 OFFCURVE",
"150 303 OFFCURVE",
"150 259 CURVE SMOOTH",
"150 214 OFFCURVE",
"161 169 OFFCURVE",
"185 134 CURVE SMOOTH",
"209 99 OFFCURVE",
"246 76 OFFCURVE",
"297 76 CURVE SMOOTH"
);
},
{
closed = 1;
nodes = (
"156 602 LINE",
"156 710 LINE",
"270 710 LINE",
"270 602 LINE"
);
},
{
closed = 1;
nodes = (
"442 710 LINE",
"442 602 LINE",
"328 602 LINE",
"328 710 LINE"
);
}
);
width = 593;
}
);
note = odieresis;
unicode = 00F6;
},
{
glyphname = divide;
layers = (
{
layerId = "54BFC50A-6637-4CB7-8178-55EF9B54D6CA";
name = Regular;
paths = (
{
closed = 1;
nodes = (
"262 -25 OFFCURVE",
"228 8 OFFCURVE",
"228 47 CURVE SMOOTH",
"228 87 OFFCURVE",
"261 119 OFFCURVE",
"300 119 CURVE SMOOTH",
"339 119 OFFCURVE",
"372 86 OFFCURVE",
"372 47 CURVE SMOOTH",
"372 28 OFFCURVE",
"363 12 OFFCURVE",
"351 -2 CURVE",
"338 -16 OFFCURVE",
"320 -25 OFFCURVE",
"301 -25 CURVE SMOOTH"
);
},
{
closed = 1;
nodes = (
"262 387 OFFCURVE",
"228 420 OFFCURVE",
"228 459 CURVE SMOOTH",
"228 499 OFFCURVE",
"261 531 OFFCURVE",
"300 531 CURVE SMOOTH",
"339 531 OFFCURVE",
"372 498 OFFCURVE",
"372 459 CURVE SMOOTH",
"372 440 OFFCURVE",
"363 424 OFFCURVE",
"351 410 CURVE",
"338 396 OFFCURVE",
"320 387 OFFCURVE",
"301 387 CURVE SMOOTH"
);
},
{
closed = 1;
nodes = (
"48 202 LINE",
"48 304 LINE",
"552 304 LINE",
"552 202 LINE"
);
}
);
width = 600;
}
);
note = divide;
unicode = 00F7;
},
{
glyphname = oslash;
layers = (
{
layerId = "54BFC50A-6637-4CB7-8178-55EF9B54D6CA";
name = Regular;
paths = (
{
closed = 1;
nodes = (
"396 399 LINE",
"372 426 OFFCURVE",
"340 441 OFFCURVE",
"297 441 CURVE SMOOTH",
"246 441 OFFCURVE",
"209 418 OFFCURVE",
"185 384 CURVE SMOOTH",
"161 350 OFFCURVE",
"150 303 OFFCURVE",
"150 259 CURVE SMOOTH",
"150 223 OFFCURVE",
"157 186 OFFCURVE",
"173 155 CURVE"
);
},
{
closed = 1;
nodes = (
"32 0 LINE",
"97 72 LINE",
"56 121 OFFCURVE",
"36 183 OFFCURVE",
"36 259 CURVE SMOOTH",
"36 338 OFFCURVE",
"60 406 OFFCURVE",
"105 454 CURVE SMOOTH",
"149 502 OFFCURVE",
"214 531 OFFCURVE",
"297 531 CURVE SMOOTH",
"368 531 OFFCURVE",
"424 511 OFFCURVE",
"467 476 CURVE",
"530 545 LINE",
"562 517 LINE",
"497 446 LINE",
"538 396 OFFCURVE",
"558 334 OFFCURVE",
"558 259 CURVE SMOOTH",
"558 179 OFFCURVE",
"534 111 OFFCURVE",
"490 63 CURVE SMOOTH",
"445 15 OFFCURVE",
"380 -14 OFFCURVE",
"297 -14 CURVE SMOOTH",
"228 -14 OFFCURVE",
"171 6 OFFCURVE",
"128 42 CURVE",
"64 -28 LINE"
);
},
{
closed = 1;
nodes = (
"198 118 LINE",
"222 91 OFFCURVE",
"254 76 OFFCURVE",
"297 76 CURVE SMOOTH",
"348 76 OFFCURVE",
"385 99 OFFCURVE",
"409 134 CURVE SMOOTH",
"433 169 OFFCURVE",
"444 214 OFFCURVE",
"444 259 CURVE SMOOTH",
"444 295 OFFCURVE",
"437 331 OFFCURVE",
"421 362 CURVE"
);
}
);
width = 593;
}
);
note = oslash;
unicode = 00F8;
},
{
glyphname = ugrave;
layers = (
{
layerId = "54BFC50A-6637-4CB7-8178-55EF9B54D6CA";
name = Regular;
paths = (
{
closed = 1;
nodes = (
"514 0 LINE",
"402 0 LINE",
"402 72 LINE",
"400 72 LINE",
"372 20 OFFCURVE",
"310 -14 OFFCURVE",
"253 -14 CURVE SMOOTH",
"117 -14 OFFCURVE",
"60 53 OFFCURVE",
"60 189 CURVE SMOOTH",
"60 517 LINE",
"174 517 LINE",
"174 200 LINE SMOOTH",
"174 109 OFFCURVE",
"210 76 OFFCURVE",
"273 76 CURVE SMOOTH",
"321 76 OFFCURVE",
"352 92 OFFCURVE",
"372 117 CURVE SMOOTH",
"392 141 OFFCURVE",
"400 177 OFFCURVE",
"400 217 CURVE SMOOTH",
"400 517 LINE",
"514 517 LINE"
);
},
{
closed = 1;
nodes = (
"247 732 LINE",
"338 589 LINE",
"255 589 LINE",
"113 732 LINE"
);
}
);
width = 574;
}
);
note = ugrave;
unicode = 00F9;
},
{
glyphname = uacute;
layers = (
{
layerId = "54BFC50A-6637-4CB7-8178-55EF9B54D6CA";
name = Regular;
paths = (
{
closed = 1;
nodes = (
"514 0 LINE",
"402 0 LINE",
"402 72 LINE",
"400 72 LINE",
"372 20 OFFCURVE",
"310 -14 OFFCURVE",
"253 -14 CURVE SMOOTH",
"117 -14 OFFCURVE",
"60 53 OFFCURVE",
"60 189 CURVE SMOOTH",
"60 517 LINE",
"174 517 LINE",
"174 200 LINE SMOOTH",
"174 109 OFFCURVE",
"210 76 OFFCURVE",
"273 76 CURVE SMOOTH",
"321 76 OFFCURVE",
"352 92 OFFCURVE",
"372 117 CURVE SMOOTH",
"392 141 OFFCURVE",
"400 177 OFFCURVE",
"400 217 CURVE SMOOTH",
"400 517 LINE",
"514 517 LINE"
);
},
{
closed = 1;
nodes = (
"331 732 LINE",
"466 732 LINE",
"324 589 LINE",
"241 589 LINE"
);
}
);
width = 574;
}
);
note = uacute;
unicode = 00FA;
},
{
glyphname = ucircumflex;
layers = (
{
layerId = "54BFC50A-6637-4CB7-8178-55EF9B54D6CA";
name = Regular;
paths = (
{
closed = 1;
nodes = (
"514 0 LINE",
"402 0 LINE",
"402 72 LINE",
"400 72 LINE",
"372 20 OFFCURVE",
"310 -14 OFFCURVE",
"253 -14 CURVE SMOOTH",
"117 -14 OFFCURVE",
"60 53 OFFCURVE",
"60 189 CURVE SMOOTH",
"60 517 LINE",
"174 517 LINE",
"174 200 LINE SMOOTH",
"174 109 OFFCURVE",
"210 76 OFFCURVE",
"273 76 CURVE SMOOTH",
"321 76 OFFCURVE",
"352 92 OFFCURVE",
"372 117 CURVE SMOOTH",
"392 141 OFFCURVE",
"400 177 OFFCURVE",
"400 217 CURVE SMOOTH",
"400 517 LINE",
"514 517 LINE"
);
},
{
closed = 1;
nodes = (
"217 589 LINE",
"125 589 LINE",
"232 732 LINE",
"343 732 LINE",
"451 589 LINE",
"358 589 LINE",
"287 679 LINE"
);
}
);
width = 574;
}
);
note = ucircumflex;
unicode = 00FB;
},
{
glyphname = udieresis;
layers = (
{
layerId = "54BFC50A-6637-4CB7-8178-55EF9B54D6CA";
name = Regular;
paths = (
{
closed = 1;
nodes = (
"514 0 LINE",
"402 0 LINE",
"402 72 LINE",
"400 72 LINE",
"372 20 OFFCURVE",
"310 -14 OFFCURVE",
"253 -14 CURVE SMOOTH",
"117 -14 OFFCURVE",
"60 53 OFFCURVE",
"60 189 CURVE SMOOTH",
"60 517 LINE",
"174 517 LINE",
"174 200 LINE SMOOTH",
"174 109 OFFCURVE",
"210 76 OFFCURVE",
"273 76 CURVE SMOOTH",
"321 76 OFFCURVE",
"352 92 OFFCURVE",
"372 117 CURVE SMOOTH",
"392 141 OFFCURVE",
"400 177 OFFCURVE",
"400 217 CURVE SMOOTH",
"400 517 LINE",
"514 517 LINE"
);
},
{
closed = 1;
nodes = (
"143 602 LINE",
"143 710 LINE",
"257 710 LINE",
"257 602 LINE"
);
},
{
closed = 1;
nodes = (
"429 710 LINE",
"429 602 LINE",
"315 602 LINE",
"315 710 LINE"
);
}
);
width = 574;
}
);
note = udieresis;
unicode = 00FC;
},
{
glyphname = yacute;
layers = (
{
layerId = "54BFC50A-6637-4CB7-8178-55EF9B54D6CA";
name = Regular;
paths = (
{
closed = 1;
nodes = (
"3 517 LINE",
"128 517 LINE",
"263 131 LINE",
"265 131 LINE",
"396 517 LINE",
"515 517 LINE",
"314 -28 LINE SMOOTH",
"295 -75 OFFCURVE",
"280 -119 OFFCURVE",
"254 -151 CURVE SMOOTH",
"228 -184 OFFCURVE",
"191 -205 OFFCURVE",
"131 -205 CURVE SMOOTH",
"104 -205 OFFCURVE",
"78 -203 OFFCURVE",
"52 -199 CURVE",
"52 -103 LINE",
"61 -104 OFFCURVE",
"70 -106 OFFCURVE",
"79 -107 CURVE",
"88 -109 OFFCURVE",
"97 -110 OFFCURVE",
"106 -110 CURVE SMOOTH",
"133 -110 OFFCURVE",
"149 -103 OFFCURVE",
"161 -90 CURVE SMOOTH",
"172 -78 OFFCURVE",
"179 -61 OFFCURVE",
"186 -38 CURVE SMOOTH",
"199 2 LINE"
);
},
{
closed = 1;
nodes = (
"311 732 LINE",
"446 732 LINE",
"304 589 LINE",
"221 589 LINE"
);
}
);
width = 519;
}
);
note = yacute;
unicode = 00FD;
},
{
glyphname = thorn;
layers = (
{
layerId = "54BFC50A-6637-4CB7-8178-55EF9B54D6CA";
name = Regular;
paths = (
{
closed = 1;
nodes = (
"461 305 OFFCURVE",
"449 351 OFFCURVE",
"425 385 CURVE SMOOTH",
"401 419 OFFCURVE",
"365 441 OFFCURVE",
"318 441 CURVE SMOOTH",
"222 441 OFFCURVE",
"173 369 OFFCURVE",
"173 258 CURVE SMOOTH",
"173 206 OFFCURVE",
"186 160 OFFCURVE",
"211 128 CURVE SMOOTH",
"236 96 OFFCURVE",
"271 76 OFFCURVE",
"318 76 CURVE SMOOTH",
"370 76 OFFCURVE",
"405 100 OFFCURVE",
"429 134 CURVE SMOOTH",
"452 168 OFFCURVE",
"461 213 OFFCURVE",
"461 258 CURVE SMOOTH"
);
},
{
closed = 1;
nodes = (
"63 714 LINE",
"177 714 LINE",
"177 450 LINE",
"179 450 LINE",
"195 475 OFFCURVE",
"218 496 OFFCURVE",
"246 510 CURVE SMOOTH",
"273 524 OFFCURVE",
"304 531 OFFCURVE",
"333 531 CURVE SMOOTH",
"414 531 OFFCURVE",
"475 501 OFFCURVE",
"515 451 CURVE SMOOTH",
"555 401 OFFCURVE",
"575 332 OFFCURVE",
"575 256 CURVE SMOOTH",
"575 187 OFFCURVE",
"557 119 OFFCURVE",
"521 69 CURVE SMOOTH",
"484 19 OFFCURVE",
"428 -14 OFFCURVE",
"352 -14 CURVE SMOOTH",
"320 -14 OFFCURVE",
"286 -8 OFFCURVE",
"255 5 CURVE SMOOTH",
"224 17 OFFCURVE",
"196 38 OFFCURVE",
"179 67 CURVE",
"177 67 LINE",
"177 -191 LINE",
"63 -191 LINE"
);
}
);
width = 611;
}
);
note = thorn;
unicode = 00FE;
},
{
glyphname = ydieresis;
layers = (
{
layerId = "54BFC50A-6637-4CB7-8178-55EF9B54D6CA";
name = Regular;
paths = (
{
closed = 1;
nodes = (
"3 517 LINE",
"128 517 LINE",
"263 131 LINE",
"265 131 LINE",
"396 517 LINE",
"515 517 LINE",
"314 -28 LINE SMOOTH",
"295 -75 OFFCURVE",
"280 -119 OFFCURVE",
"254 -151 CURVE SMOOTH",
"228 -184 OFFCURVE",
"191 -205 OFFCURVE",
"131 -205 CURVE SMOOTH",
"104 -205 OFFCURVE",
"78 -203 OFFCURVE",
"52 -199 CURVE",
"52 -103 LINE",
"61 -104 OFFCURVE",
"70 -106 OFFCURVE",
"79 -107 CURVE",
"88 -109 OFFCURVE",
"97 -110 OFFCURVE",
"106 -110 CURVE SMOOTH",
"133 -110 OFFCURVE",
"149 -103 OFFCURVE",
"161 -90 CURVE SMOOTH",
"172 -78 OFFCURVE",
"179 -61 OFFCURVE",
"186 -38 CURVE SMOOTH",
"199 2 LINE"
);
},
{
closed = 1;
nodes = (
"122 602 LINE",
"122 710 LINE",
"236 710 LINE",
"236 602 LINE"
);
},
{
closed = 1;
nodes = (
"408 710 LINE",
"408 602 LINE",
"294 602 LINE",
"294 710 LINE"
);
}
);
width = 519;
}
);
note = ydieresis;
unicode = 00FF;
},
{
glyphname = Amacron;
layers = (
{
layerId = "54BFC50A-6637-4CB7-8178-55EF9B54D6CA";
name = Regular;
paths = (
{
closed = 1;
nodes = (
"267 714 LINE",
"400 714 LINE",
"675 0 LINE",
"541 0 LINE",
"474 189 LINE",
"189 189 LINE",
"122 0 LINE",
"-7 0 LINE"
);
},
{
closed = 1;
nodes = (
"223 284 LINE",
"441 284 LINE",
"334 591 LINE",
"331 591 LINE"
);
},
{
closed = 1;
nodes = (
"189 818 LINE",
"189 883 LINE",
"477 883 LINE",
"477 818 LINE"
);
}
);
width = 667;
}
);
note = Amacron;
unicode = 0100;
},
{
glyphname = amacron;
layers = (
{
layerId = "54BFC50A-6637-4CB7-8178-55EF9B54D6CA";
name = Regular;
paths = (
{
closed = 1;
nodes = (
"493 115 LINE SMOOTH",
"493 87 OFFCURVE",
"499 76 OFFCURVE",
"520 76 CURVE SMOOTH",
"523 76 OFFCURVE",
"527 76 OFFCURVE",
"532 76 CURVE SMOOTH",
"537 76 OFFCURVE",
"542 77 OFFCURVE",
"548 78 CURVE",
"548 -1 LINE",
"540 -4 OFFCURVE",
"526 -7 OFFCURVE",
"513 -10 CURVE SMOOTH",
"500 -13 OFFCURVE",
"485 -14 OFFCURVE",
"476 -14 CURVE SMOOTH",
"429 -14 OFFCURVE",
"397 2 OFFCURVE",
"388 49 CURVE",
"343 5 OFFCURVE",
"270 -14 OFFCURVE",
"209 -14 CURVE SMOOTH",
"162 -14 OFFCURVE",
"118 -1 OFFCURVE",
"86 24 CURVE SMOOTH",
"53 48 OFFCURVE",
"32 86 OFFCURVE",
"32 137 CURVE SMOOTH",
"32 201 OFFCURVE",
"58 239 OFFCURVE",
"96 262 CURVE SMOOTH",
"134 285 OFFCURVE",
"183 293 OFFCURVE",
"231 298 CURVE",
"252 302 OFFCURVE",
"271 305 OFFCURVE",
"290 307 CURVE SMOOTH",
"327 310 OFFCURVE",
"357 317 OFFCURVE",
"374 334 CURVE SMOOTH",
"382 342 OFFCURVE",
"386 354 OFFCURVE",
"386 371 CURVE SMOOTH",
"386 400 OFFCURVE",
"370 419 OFFCURVE",
"350 429 CURVE SMOOTH",
"329 439 OFFCURVE",
"302 441 OFFCURVE",
"279 441 CURVE SMOOTH",
"215 441 OFFCURVE",
"170 415 OFFCURVE",
"165 359 CURVE",
"51 359 LINE",
"55 426 OFFCURVE",
"85 468 OFFCURVE",
"129 495 CURVE SMOOTH",
"172 522 OFFCURVE",
"229 531 OFFCURVE",
"286 531 CURVE SMOOTH",
"337 531 OFFCURVE",
"388 521 OFFCURVE",
"428 497 CURVE SMOOTH",
"467 473 OFFCURVE",
"493 436 OFFCURVE",
"493 381 CURVE SMOOTH"
);
},
{
closed = 1;
nodes = (
"379 259 LINE",
"362 248 OFFCURVE",
"340 241 OFFCURVE",
"315 239 CURVE",
"290 236 OFFCURVE",
"264 233 OFFCURVE",
"239 228 CURVE SMOOTH",
"215 224 OFFCURVE",
"191 217 OFFCURVE",
"174 205 CURVE",
"157 192 OFFCURVE",
"146 171 OFFCURVE",
"146 142 CURVE SMOOTH",
"146 117 OFFCURVE",
"163 100 OFFCURVE",
"184 90 CURVE SMOOTH",
"204 80 OFFCURVE",
"231 76 OFFCURVE",
"251 76 CURVE SMOOTH",
"276 76 OFFCURVE",
"308 82 OFFCURVE",
"334 98 CURVE SMOOTH",
"360 114 OFFCURVE",
"379 138 OFFCURVE",
"379 174 CURVE SMOOTH"
);
},
{
closed = 1;
nodes = (
"137 624 LINE",
"137 689 LINE",
"425 689 LINE",
"425 624 LINE"
);
}
);
width = 556;
}
);
note = amacron;
unicode = 0101;
},
{
glyphname = Abreve;
layers = (
{
layerId = "54BFC50A-6637-4CB7-8178-55EF9B54D6CA";
name = Regular;
paths = (
{
closed = 1;
nodes = (
"267 714 LINE",
"400 714 LINE",
"675 0 LINE",
"541 0 LINE",
"474 189 LINE",
"189 189 LINE",
"122 0 LINE",
"-7 0 LINE"
);
},
{
closed = 1;
nodes = (
"223 284 LINE",
"441 284 LINE",
"334 591 LINE",
"331 591 LINE"
);
},
{
closed = 1;
nodes = (
"230 925 LINE",
"241 869 OFFCURVE",
"284 849 OFFCURVE",
"337 849 CURVE SMOOTH",
"388 849 OFFCURVE",
"427 874 OFFCURVE",
"438 925 CURVE",
"495 925 LINE",
"484 830 OFFCURVE",
"421 784 OFFCURVE",
"329 784 CURVE SMOOTH",
"237 784 OFFCURVE",
"180 833 OFFCURVE",
"172 925 CURVE"
);
}
);
width = 667;
}
);
note = Abreve;
unicode = 0102;
},
{
glyphname = abreve;
lastChange = "2016-01-24 02:56:11 +0000";
layers = (
{
layerId = "54BFC50A-6637-4CB7-8178-55EF9B54D6CA";
name = Regular;
paths = (
{
closed = 1;
nodes = (
"177 731 LINE",
"188 675 OFFCURVE",
"231 655 OFFCURVE",
"284 655 CURVE SMOOTH",
"335 655 OFFCURVE",
"374 680 OFFCURVE",
"385 731 CURVE",
"442 731 LINE",
"431 636 OFFCURVE",
"368 590 OFFCURVE",
"276 590 CURVE SMOOTH",
"184 590 OFFCURVE",
"127 639 OFFCURVE",
"119 731 CURVE"
);
},
{
closed = 1;
nodes = (
"493 -3 LINE",
"388 -3 LINE",
"388 49 LINE",
"343 5 OFFCURVE",
"270 -11 OFFCURVE",
"209 -11 CURVE SMOOTH",
"162 -11 OFFCURVE",
"121 2 OFFCURVE",
"89 27 CURVE SMOOTH",
"56 51 OFFCURVE",
"35 86 OFFCURVE",
"35 137 CURVE SMOOTH",
"35 201 OFFCURVE",
"61 239 OFFCURVE",
"99 262 CURVE SMOOTH",
"137 285 OFFCURVE",
"183 293 OFFCURVE",
"231 298 CURVE",
"252 302 OFFCURVE",
"271 305 OFFCURVE",
"290 307 CURVE SMOOTH",
"327 310 OFFCURVE",
"357 317 OFFCURVE",
"374 334 CURVE SMOOTH",
"382 342 OFFCURVE",
"386 354 OFFCURVE",
"386 371 CURVE SMOOTH",
"386 400 OFFCURVE",
"370 419 OFFCURVE",
"350 429 CURVE SMOOTH",
"329 439 OFFCURVE",
"302 441 OFFCURVE",
"279 441 CURVE SMOOTH",
"215 441 OFFCURVE",
"170 425 OFFCURVE",
"165 369 CURVE",
"51 369 LINE",
"55 436 OFFCURVE",
"85 468 OFFCURVE",
"129 495 CURVE SMOOTH",
"172 522 OFFCURVE",
"229 531 OFFCURVE",
"286 531 CURVE SMOOTH",
"337 531 OFFCURVE",
"388 521 OFFCURVE",
"428 497 CURVE SMOOTH",
"467 473 OFFCURVE",
"493 436 OFFCURVE",
"493 381 CURVE SMOOTH"
);
},
{
closed = 1;
nodes = (
"379 259 LINE",
"362 248 OFFCURVE",
"340 241 OFFCURVE",
"315 239 CURVE",
"290 236 OFFCURVE",
"262 233 OFFCURVE",
"237 228 CURVE SMOOTH",
"213 224 OFFCURVE",
"189 217 OFFCURVE",
"172 205 CURVE",
"155 192 OFFCURVE",
"144 171 OFFCURVE",
"144 142 CURVE SMOOTH",
"144 117 OFFCURVE",
"161 100 OFFCURVE",
"182 90 CURVE SMOOTH",
"202 80 OFFCURVE",
"229 76 OFFCURVE",
"249 76 CURVE SMOOTH",
"274 76 OFFCURVE",
"308 82 OFFCURVE",
"334 98 CURVE SMOOTH",
"360 114 OFFCURVE",
"379 138 OFFCURVE",
"379 174 CURVE SMOOTH"
);
}
);
width = 556;
}
);
note = abreve;
unicode = 0103;
},
{
glyphname = Aogonek;
layers = (
{
layerId = "54BFC50A-6637-4CB7-8178-55EF9B54D6CA";
name = Regular;
paths = (
{
closed = 1;
nodes = (
"595 0 LINE",
"558 -29 OFFCURVE",
"534 -52 OFFCURVE",
"520 -72 CURVE SMOOTH",
"506 -93 OFFCURVE",
"501 -110 OFFCURVE",
"501 -129 CURVE SMOOTH",
"501 -156 OFFCURVE",
"520 -173 OFFCURVE",
"540 -173 CURVE SMOOTH",
"560 -173 OFFCURVE",
"575 -166 OFFCURVE",
"592 -139 CURVE",
"633 -148 LINE",
"625 -177 OFFCURVE",
"609 -196 OFFCURVE",
"590 -207 CURVE SMOOTH",
"570 -219 OFFCURVE",
"548 -223 OFFCURVE",
"528 -223 CURVE SMOOTH",
"519 -223 OFFCURVE",
"494 -222 OFFCURVE",
"471 -210 CURVE SMOOTH",
"447 -198 OFFCURVE",
"427 -176 OFFCURVE",
"427 -133 CURVE SMOOTH",
"427 -122 OFFCURVE",
"427 -107 OFFCURVE",
"442 -84 CURVE SMOOTH",
"457 -61 OFFCURVE",
"485 -33 OFFCURVE",
"541 0 CURVE",
"474 189 LINE",
"189 189 LINE",
"122 0 LINE",
"-7 0 LINE",
"267 714 LINE",
"400 714 LINE",
"675 0 LINE"
);
},
{
closed = 1;
nodes = (
"223 284 LINE",
"441 284 LINE",
"334 591 LINE",
"331 591 LINE"
);
}
);
width = 667;
}
);
note = Aogonek;
unicode = 0104;
},
{
glyphname = aogonek;
layers = (
{
layerId = "54BFC50A-6637-4CB7-8178-55EF9B54D6CA";
name = Regular;
paths = (
{
closed = 1;
nodes = (
"493 115 LINE SMOOTH",
"493 87 OFFCURVE",
"499 76 OFFCURVE",
"520 76 CURVE SMOOTH",
"532 76 LINE SMOOTH",
"537 76 OFFCURVE",
"542 77 OFFCURVE",
"548 78 CURVE",
"548 -1 LINE",
"540 -4 OFFCURVE",
"526 -7 OFFCURVE",
"513 -10 CURVE SMOOTH",
"500 -13 OFFCURVE",
"485 -14 OFFCURVE",
"476 -14 CURVE SMOOTH",
"475 -14 LINE",
"454 -33 OFFCURVE",
"432 -52 OFFCURVE",
"418 -72 CURVE SMOOTH",
"404 -93 OFFCURVE",
"399 -110 OFFCURVE",
"399 -129 CURVE SMOOTH",
"399 -156 OFFCURVE",
"418 -173 OFFCURVE",
"438 -173 CURVE SMOOTH",
"458 -173 OFFCURVE",
"473 -166 OFFCURVE",
"490 -139 CURVE",
"531 -148 LINE",
"523 -177 OFFCURVE",
"507 -196 OFFCURVE",
"488 -207 CURVE SMOOTH",
"468 -219 OFFCURVE",
"446 -223 OFFCURVE",
"426 -223 CURVE SMOOTH",
"417 -223 OFFCURVE",
"392 -222 OFFCURVE",
"369 -210 CURVE SMOOTH",
"345 -198 OFFCURVE",
"325 -176 OFFCURVE",
"325 -133 CURVE SMOOTH",
"325 -122 OFFCURVE",
"325 -107 OFFCURVE",
"340 -84 CURVE SMOOTH",
"355 -61 OFFCURVE",
"382 -34 OFFCURVE",
"429 -6 CURVE",
"425 -4 OFFCURVE",
"421 -2 OFFCURVE",
"418 0 CURVE",
"403 9 OFFCURVE",
"393 26 OFFCURVE",
"388 49 CURVE",
"343 5 OFFCURVE",
"270 -14 OFFCURVE",
"209 -14 CURVE SMOOTH",
"162 -14 OFFCURVE",
"118 -1 OFFCURVE",
"86 24 CURVE SMOOTH",
"53 48 OFFCURVE",
"32 86 OFFCURVE",
"32 137 CURVE SMOOTH",
"32 201 OFFCURVE",
"58 239 OFFCURVE",
"96 262 CURVE SMOOTH",
"134 285 OFFCURVE",
"183 293 OFFCURVE",
"231 298 CURVE",
"252 302 OFFCURVE",
"271 305 OFFCURVE",
"290 307 CURVE SMOOTH",
"327 310 OFFCURVE",
"357 317 OFFCURVE",
"374 334 CURVE SMOOTH",
"382 342 OFFCURVE",
"386 354 OFFCURVE",
"386 371 CURVE SMOOTH",
"386 400 OFFCURVE",
"370 419 OFFCURVE",
"350 429 CURVE SMOOTH",
"329 439 OFFCURVE",
"302 441 OFFCURVE",
"279 441 CURVE SMOOTH",
"215 441 OFFCURVE",
"170 415 OFFCURVE",
"165 359 CURVE",
"51 359 LINE",
"55 426 OFFCURVE",
"85 468 OFFCURVE",
"129 495 CURVE SMOOTH",
"172 522 OFFCURVE",
"229 531 OFFCURVE",
"286 531 CURVE SMOOTH",
"337 531 OFFCURVE",
"388 521 OFFCURVE",
"428 497 CURVE SMOOTH",
"467 473 OFFCURVE",
"493 436 OFFCURVE",
"493 381 CURVE SMOOTH"
);
},
{
closed = 1;
nodes = (
"379 259 LINE",
"362 248 OFFCURVE",
"340 241 OFFCURVE",
"315 239 CURVE",
"290 236 OFFCURVE",
"264 233 OFFCURVE",
"239 228 CURVE SMOOTH",
"215 224 OFFCURVE",
"191 217 OFFCURVE",
"174 205 CURVE",
"157 192 OFFCURVE",
"146 171 OFFCURVE",
"146 142 CURVE SMOOTH",
"146 117 OFFCURVE",
"163 100 OFFCURVE",
"184 90 CURVE SMOOTH",
"204 80 OFFCURVE",
"231 76 OFFCURVE",
"251 76 CURVE SMOOTH",
"276 76 OFFCURVE",
"308 82 OFFCURVE",
"334 98 CURVE SMOOTH",
"360 114 OFFCURVE",
"379 138 OFFCURVE",
"379 174 CURVE SMOOTH"
);
}
);
width = 556;
}
);
note = aogonek;
unicode = 0105;
},
{
glyphname = Cacute;
layers = (
{
layerId = "54BFC50A-6637-4CB7-8178-55EF9B54D6CA";
name = Regular;
paths = (
{
closed = 1;
nodes = (
"558 487 LINE",
"547 528 OFFCURVE",
"529 564 OFFCURVE",
"500 589 CURVE SMOOTH",
"471 614 OFFCURVE",
"432 629 OFFCURVE",
"380 629 CURVE SMOOTH",
"304 629 OFFCURVE",
"249 596 OFFCURVE",
"214 545 CURVE SMOOTH",
"179 493 OFFCURVE",
"163 425 OFFCURVE",
"163 357 CURVE SMOOTH",
"163 289 OFFCURVE",
"179 221 OFFCURVE",
"214 170 CURVE SMOOTH",
"249 118 OFFCURVE",
"304 85 OFFCURVE",
"380 85 CURVE SMOOTH",
"436 85 OFFCURVE",
"478 106 OFFCURVE",
"509 140 CURVE SMOOTH",
"540 174 OFFCURVE",
"557 220 OFFCURVE",
"562 272 CURVE",
"684 272 LINE",
"679 187 OFFCURVE",
"646 115 OFFCURVE",
"593 64 CURVE SMOOTH",
"540 12 OFFCURVE",
"467 -17 OFFCURVE",
"380 -17 CURVE SMOOTH",
"273 -17 OFFCURVE",
"188 25 OFFCURVE",
"129 93 CURVE SMOOTH",
"70 161 OFFCURVE",
"38 254 OFFCURVE",
"38 357 CURVE SMOOTH",
"38 458 OFFCURVE",
"70 552 OFFCURVE",
"129 620 CURVE SMOOTH",
"188 688 OFFCURVE",
"273 731 OFFCURVE",
"380 731 CURVE SMOOTH",
"460 731 OFFCURVE",
"533 709 OFFCURVE",
"587 667 CURVE SMOOTH",
"641 625 OFFCURVE",
"675 564 OFFCURVE",
"683 487 CURVE"
);
},
{
closed = 1;
nodes = (
"419 926 LINE",
"554 926 LINE",
"412 783 LINE",
"329 783 LINE"
);
}
);
width = 722;
}
);
note = Cacute;
unicode = 0106;
},
{
glyphname = cacute;
layers = (
{
layerId = "54BFC50A-6637-4CB7-8178-55EF9B54D6CA";
name = Regular;
paths = (
{
closed = 1;
nodes = (
"409 344 LINE",
"400 408 OFFCURVE",
"355 441 OFFCURVE",
"291 441 CURVE SMOOTH",
"262 441 OFFCURVE",
"226 433 OFFCURVE",
"198 406 CURVE SMOOTH",
"170 378 OFFCURVE",
"149 332 OFFCURVE",
"149 253 CURVE SMOOTH",
"149 210 OFFCURVE",
"159 165 OFFCURVE",
"181 132 CURVE SMOOTH",
"203 99 OFFCURVE",
"237 76 OFFCURVE",
"286 76 CURVE SMOOTH",
"353 76 OFFCURVE",
"398 119 OFFCURVE",
"409 194 CURVE",
"523 194 LINE",
"502 59 OFFCURVE",
"419 -14 OFFCURVE",
"286 -14 CURVE SMOOTH",
"205 -14 OFFCURVE",
"143 15 OFFCURVE",
"100 63 CURVE SMOOTH",
"57 110 OFFCURVE",
"35 177 OFFCURVE",
"35 253 CURVE SMOOTH",
"35 330 OFFCURVE",
"56 401 OFFCURVE",
"99 451 CURVE SMOOTH",
"142 501 OFFCURVE",
"205 531 OFFCURVE",
"290 531 CURVE SMOOTH",
"350 531 OFFCURVE",
"406 516 OFFCURVE",
"448 485 CURVE SMOOTH",
"490 454 OFFCURVE",
"518 408 OFFCURVE",
"523 344 CURVE"
);
},
{
closed = 1;
nodes = (
"331 732 LINE",
"466 732 LINE",
"324 589 LINE",
"241 589 LINE"
);
}
);
width = 556;
}
);
note = cacute;
unicode = 0107;
},
{
glyphname = Ccircumflex;
layers = (
{
layerId = "54BFC50A-6637-4CB7-8178-55EF9B54D6CA";
name = Regular;
paths = (
{
closed = 1;
nodes = (
"558 487 LINE",
"547 528 OFFCURVE",
"529 564 OFFCURVE",
"500 589 CURVE SMOOTH",
"471 614 OFFCURVE",
"432 629 OFFCURVE",
"380 629 CURVE SMOOTH",
"304 629 OFFCURVE",
"249 596 OFFCURVE",
"214 545 CURVE SMOOTH",
"179 493 OFFCURVE",
"163 425 OFFCURVE",
"163 357 CURVE SMOOTH",
"163 289 OFFCURVE",
"179 221 OFFCURVE",
"214 170 CURVE SMOOTH",
"249 118 OFFCURVE",
"304 85 OFFCURVE",
"380 85 CURVE SMOOTH",
"436 85 OFFCURVE",
"478 106 OFFCURVE",
"509 140 CURVE SMOOTH",
"540 174 OFFCURVE",
"557 220 OFFCURVE",
"562 272 CURVE",
"684 272 LINE",
"679 187 OFFCURVE",
"646 115 OFFCURVE",
"593 64 CURVE SMOOTH",
"540 12 OFFCURVE",
"467 -17 OFFCURVE",
"380 -17 CURVE SMOOTH",
"273 -17 OFFCURVE",
"188 25 OFFCURVE",
"129 93 CURVE SMOOTH",
"70 161 OFFCURVE",
"38 254 OFFCURVE",
"38 357 CURVE SMOOTH",
"38 458 OFFCURVE",
"70 552 OFFCURVE",
"129 620 CURVE SMOOTH",
"188 688 OFFCURVE",
"273 731 OFFCURVE",
"380 731 CURVE SMOOTH",
"460 731 OFFCURVE",
"533 709 OFFCURVE",
"587 667 CURVE SMOOTH",
"641 625 OFFCURVE",
"675 564 OFFCURVE",
"683 487 CURVE"
);
},
{
closed = 1;
nodes = (
"311 783 LINE",
"219 783 LINE",
"326 926 LINE",
"437 926 LINE",
"545 783 LINE",
"452 783 LINE",
"381 873 LINE"
);
}
);
width = 722;
}
);
note = Ccircumflex;
unicode = 0108;
},
{
glyphname = ccircumflex;
layers = (
{
layerId = "54BFC50A-6637-4CB7-8178-55EF9B54D6CA";
name = Regular;
paths = (
{
closed = 1;
nodes = (
"409 344 LINE",
"400 408 OFFCURVE",
"355 441 OFFCURVE",
"291 441 CURVE SMOOTH",
"262 441 OFFCURVE",
"226 433 OFFCURVE",
"198 406 CURVE SMOOTH",
"170 378 OFFCURVE",
"149 332 OFFCURVE",
"149 253 CURVE SMOOTH",
"149 210 OFFCURVE",
"159 165 OFFCURVE",
"181 132 CURVE SMOOTH",
"203 99 OFFCURVE",
"237 76 OFFCURVE",
"286 76 CURVE SMOOTH",
"353 76 OFFCURVE",
"398 119 OFFCURVE",
"409 194 CURVE",
"523 194 LINE",
"502 59 OFFCURVE",
"419 -14 OFFCURVE",
"286 -14 CURVE SMOOTH",
"205 -14 OFFCURVE",
"143 15 OFFCURVE",
"100 63 CURVE SMOOTH",
"57 110 OFFCURVE",
"35 177 OFFCURVE",
"35 253 CURVE SMOOTH",
"35 330 OFFCURVE",
"56 401 OFFCURVE",
"99 451 CURVE SMOOTH",
"142 501 OFFCURVE",
"205 531 OFFCURVE",
"290 531 CURVE SMOOTH",
"350 531 OFFCURVE",
"406 516 OFFCURVE",
"448 485 CURVE SMOOTH",
"490 454 OFFCURVE",
"518 408 OFFCURVE",
"523 344 CURVE"
);
},
{
closed = 1;
nodes = (
"221 589 LINE",
"129 589 LINE",
"236 732 LINE",
"347 732 LINE",
"455 589 LINE",
"362 589 LINE",
"291 679 LINE"
);
}
);
width = 556;
}
);
note = ccircumflex;
unicode = 0109;
},
{
glyphname = Cdotaccent;
layers = (
{
layerId = "54BFC50A-6637-4CB7-8178-55EF9B54D6CA";
name = Regular;
paths = (
{
closed = 1;
nodes = (
"558 487 LINE",
"547 528 OFFCURVE",
"529 564 OFFCURVE",
"500 589 CURVE SMOOTH",
"471 614 OFFCURVE",
"432 629 OFFCURVE",
"380 629 CURVE SMOOTH",
"304 629 OFFCURVE",
"249 596 OFFCURVE",
"214 545 CURVE SMOOTH",
"179 493 OFFCURVE",
"163 425 OFFCURVE",
"163 357 CURVE SMOOTH",
"163 289 OFFCURVE",
"179 221 OFFCURVE",
"214 170 CURVE SMOOTH",
"249 118 OFFCURVE",
"304 85 OFFCURVE",
"380 85 CURVE SMOOTH",
"436 85 OFFCURVE",
"478 106 OFFCURVE",
"509 140 CURVE SMOOTH",
"540 174 OFFCURVE",
"557 220 OFFCURVE",
"562 272 CURVE",
"684 272 LINE",
"679 187 OFFCURVE",
"646 115 OFFCURVE",
"593 64 CURVE SMOOTH",
"540 12 OFFCURVE",
"467 -17 OFFCURVE",
"380 -17 CURVE SMOOTH",
"273 -17 OFFCURVE",
"188 25 OFFCURVE",
"129 93 CURVE SMOOTH",
"70 161 OFFCURVE",
"38 254 OFFCURVE",
"38 357 CURVE SMOOTH",
"38 458 OFFCURVE",
"70 552 OFFCURVE",
"129 620 CURVE SMOOTH",
"188 688 OFFCURVE",
"273 731 OFFCURVE",
"380 731 CURVE SMOOTH",
"460 731 OFFCURVE",
"533 709 OFFCURVE",
"587 667 CURVE SMOOTH",
"641 625 OFFCURVE",
"675 564 OFFCURVE",
"683 487 CURVE"
);
},
{
closed = 1;
nodes = (
"322 796 LINE",
"322 904 LINE",
"436 904 LINE",
"436 796 LINE"
);
}
);
width = 722;
}
);
note = Cdotaccent;
unicode = 010A;
},
{
glyphname = cdotaccent;
layers = (
{
layerId = "54BFC50A-6637-4CB7-8178-55EF9B54D6CA";
name = Regular;
paths = (
{
closed = 1;
nodes = (
"409 344 LINE",
"400 408 OFFCURVE",
"355 441 OFFCURVE",
"291 441 CURVE SMOOTH",
"262 441 OFFCURVE",
"226 433 OFFCURVE",
"198 406 CURVE SMOOTH",
"170 378 OFFCURVE",
"149 332 OFFCURVE",
"149 253 CURVE SMOOTH",
"149 210 OFFCURVE",
"159 165 OFFCURVE",
"181 132 CURVE SMOOTH",
"203 99 OFFCURVE",
"237 76 OFFCURVE",
"286 76 CURVE SMOOTH",
"353 76 OFFCURVE",
"398 119 OFFCURVE",
"409 194 CURVE",
"523 194 LINE",
"502 59 OFFCURVE",
"419 -14 OFFCURVE",
"286 -14 CURVE SMOOTH",
"205 -14 OFFCURVE",
"143 15 OFFCURVE",
"100 63 CURVE SMOOTH",
"57 110 OFFCURVE",
"35 177 OFFCURVE",
"35 253 CURVE SMOOTH",
"35 330 OFFCURVE",
"56 401 OFFCURVE",
"99 451 CURVE SMOOTH",
"142 501 OFFCURVE",
"205 531 OFFCURVE",
"290 531 CURVE SMOOTH",
"350 531 OFFCURVE",
"406 516 OFFCURVE",
"448 485 CURVE SMOOTH",
"490 454 OFFCURVE",
"518 408 OFFCURVE",
"523 344 CURVE"
);
},
{
closed = 1;
nodes = (
"231 602 LINE",
"231 710 LINE",
"345 710 LINE",
"345 602 LINE"
);
}
);
width = 556;
}
);
note = cdotaccent;
unicode = 010B;
},
{
glyphname = Ccaron;
layers = (
{
layerId = "54BFC50A-6637-4CB7-8178-55EF9B54D6CA";
name = Regular;
paths = (
{
closed = 1;
nodes = (
"558 487 LINE",
"547 528 OFFCURVE",
"529 564 OFFCURVE",
"500 589 CURVE SMOOTH",
"471 614 OFFCURVE",
"432 629 OFFCURVE",
"380 629 CURVE SMOOTH",
"304 629 OFFCURVE",
"249 596 OFFCURVE",
"214 545 CURVE SMOOTH",
"179 493 OFFCURVE",
"163 425 OFFCURVE",
"163 357 CURVE SMOOTH",
"163 289 OFFCURVE",
"179 221 OFFCURVE",
"214 170 CURVE SMOOTH",
"249 118 OFFCURVE",
"304 85 OFFCURVE",
"380 85 CURVE SMOOTH",
"436 85 OFFCURVE",
"478 106 OFFCURVE",
"509 140 CURVE SMOOTH",
"540 174 OFFCURVE",
"557 220 OFFCURVE",
"562 272 CURVE",
"684 272 LINE",
"679 187 OFFCURVE",
"646 115 OFFCURVE",
"593 64 CURVE SMOOTH",
"540 12 OFFCURVE",
"467 -17 OFFCURVE",
"380 -17 CURVE SMOOTH",
"273 -17 OFFCURVE",
"188 25 OFFCURVE",
"129 93 CURVE SMOOTH",
"70 161 OFFCURVE",
"38 254 OFFCURVE",
"38 357 CURVE SMOOTH",
"38 458 OFFCURVE",
"70 552 OFFCURVE",
"129 620 CURVE SMOOTH",
"188 688 OFFCURVE",
"273 731 OFFCURVE",
"380 731 CURVE SMOOTH",
"460 731 OFFCURVE",
"533 709 OFFCURVE",
"587 667 CURVE SMOOTH",
"641 625 OFFCURVE",
"675 564 OFFCURVE",
"683 487 CURVE"
);
},
{
closed = 1;
nodes = (
"433 783 LINE",
"322 783 LINE",
"215 926 LINE",
"307 926 LINE",
"377 837 LINE",
"448 926 LINE",
"541 926 LINE"
);
}
);
width = 722;
}
);
note = Ccaron;
unicode = 010C;
},
{
glyphname = ccaron;
layers = (
{
layerId = "54BFC50A-6637-4CB7-8178-55EF9B54D6CA";
name = Regular;
paths = (
{
closed = 1;
nodes = (
"409 344 LINE",
"400 408 OFFCURVE",
"355 441 OFFCURVE",
"291 441 CURVE SMOOTH",
"262 441 OFFCURVE",
"226 433 OFFCURVE",
"198 406 CURVE SMOOTH",
"170 378 OFFCURVE",
"149 332 OFFCURVE",
"149 253 CURVE SMOOTH",
"149 210 OFFCURVE",
"159 165 OFFCURVE",
"181 132 CURVE SMOOTH",
"203 99 OFFCURVE",
"237 76 OFFCURVE",
"286 76 CURVE SMOOTH",
"353 76 OFFCURVE",
"398 119 OFFCURVE",
"409 194 CURVE",
"523 194 LINE",
"502 59 OFFCURVE",
"419 -14 OFFCURVE",
"286 -14 CURVE SMOOTH",
"205 -14 OFFCURVE",
"143 15 OFFCURVE",
"100 63 CURVE SMOOTH",
"57 110 OFFCURVE",
"35 177 OFFCURVE",
"35 253 CURVE SMOOTH",
"35 330 OFFCURVE",
"56 401 OFFCURVE",
"99 451 CURVE SMOOTH",
"142 501 OFFCURVE",
"205 531 OFFCURVE",
"290 531 CURVE SMOOTH",
"350 531 OFFCURVE",
"406 516 OFFCURVE",
"448 485 CURVE SMOOTH",
"490 454 OFFCURVE",
"518 408 OFFCURVE",
"523 344 CURVE"
);
},
{
closed = 1;
nodes = (
"345 589 LINE",
"234 589 LINE",
"127 732 LINE",
"219 732 LINE",
"289 643 LINE",
"360 732 LINE",
"453 732 LINE"
);
}
);
width = 556;
}
);
note = ccaron;
unicode = 010D;
},
{
glyphname = Dcaron;
layers = (
{
layerId = "54BFC50A-6637-4CB7-8178-55EF9B54D6CA";
name = Regular;
paths = (
{
closed = 1;
nodes = (
"76 714 LINE",
"372 714 LINE SMOOTH",
"481 714 OFFCURVE",
"561 674 OFFCURVE",
"612 610 CURVE SMOOTH",
"663 545 OFFCURVE",
"687 456 OFFCURVE",
"687 357 CURVE SMOOTH",
"687 258 OFFCURVE",
"663 169 OFFCURVE",
"612 105 CURVE SMOOTH",
"561 40 OFFCURVE",
"481 0 OFFCURVE",
"372 0 CURVE SMOOTH",
"76 0 LINE"
);
},
{
closed = 1;
nodes = (
"201 102 LINE",
"324 102 LINE SMOOTH",
"421 102 OFFCURVE",
"481 130 OFFCURVE",
"517 176 CURVE SMOOTH",
"552 222 OFFCURVE",
"562 285 OFFCURVE",
"562 357 CURVE SMOOTH",
"562 429 OFFCURVE",
"552 493 OFFCURVE",
"517 539 CURVE SMOOTH",
"481 585 OFFCURVE",
"421 612 OFFCURVE",
"324 612 CURVE SMOOTH",
"201 612 LINE"
);
},
{
closed = 1;
nodes = (
"382 783 LINE",
"271 783 LINE",
"164 926 LINE",
"256 926 LINE",
"326 837 LINE",
"397 926 LINE",
"490 926 LINE"
);
}
);
width = 722;
}
);
note = Dcaron;
unicode = 010E;
},
{
glyphname = dcaron;
layers = (
{
layerId = "54BFC50A-6637-4CB7-8178-55EF9B54D6CA";
name = Regular;
paths = (
{
closed = 1;
nodes = (
"547 0 LINE",
"439 0 LINE",
"439 70 LINE",
"437 70 LINE",
"406 10 OFFCURVE",
"342 -14 OFFCURVE",
"277 -14 CURVE SMOOTH",
"196 -14 OFFCURVE",
"135 17 OFFCURVE",
"95 66 CURVE SMOOTH",
"55 115 OFFCURVE",
"35 185 OFFCURVE",
"35 262 CURVE SMOOTH",
"35 355 OFFCURVE",
"63 423 OFFCURVE",
"105 467 CURVE SMOOTH",
"147 511 OFFCURVE",
"203 531 OFFCURVE",
"259 531 CURVE SMOOTH",
"291 531 OFFCURVE",
"325 525 OFFCURVE",
"356 512 CURVE SMOOTH",
"387 499 OFFCURVE",
"414 478 OFFCURVE",
"431 450 CURVE",
"433 450 LINE",
"433 714 LINE",
"547 714 LINE"
);
},
{
closed = 1;
nodes = (
"149 209 OFFCURVE",
"160 164 OFFCURVE",
"184 131 CURVE SMOOTH",
"207 98 OFFCURVE",
"243 76 OFFCURVE",
"292 76 CURVE SMOOTH",
"343 76 OFFCURVE",
"379 99 OFFCURVE",
"403 134 CURVE SMOOTH",
"426 169 OFFCURVE",
"437 214 OFFCURVE",
"437 259 CURVE SMOOTH",
"437 374 OFFCURVE",
"382 441 OFFCURVE",
"294 441 CURVE SMOOTH",
"241 441 OFFCURVE",
"205 417 OFFCURVE",
"182 382 CURVE SMOOTH",
"158 346 OFFCURVE",
"149 300 OFFCURVE",
"149 253 CURVE SMOOTH"
);
},
{
closed = 1;
nodes = (
"628 714 LINE",
"753 714 LINE",
"672 571 LINE",
"596 571 LINE"
);
}
);
width = 687;
}
);
note = dcaron;
unicode = 010F;
},
{
glyphname = Dcroat;
layers = (
{
layerId = "54BFC50A-6637-4CB7-8178-55EF9B54D6CA";
name = Regular;
paths = (
{
closed = 1;
nodes = (
"201 419 LINE",
"396 419 LINE",
"396 317 LINE",
"201 317 LINE",
"201 102 LINE",
"324 102 LINE SMOOTH",
"421 102 OFFCURVE",
"481 130 OFFCURVE",
"517 176 CURVE SMOOTH",
"552 222 OFFCURVE",
"562 285 OFFCURVE",
"562 357 CURVE SMOOTH",
"562 429 OFFCURVE",
"552 493 OFFCURVE",
"517 539 CURVE SMOOTH",
"481 585 OFFCURVE",
"421 612 OFFCURVE",
"324 612 CURVE SMOOTH",
"201 612 LINE"
);
},
{
closed = 1;
nodes = (
"76 317 LINE",
"9 317 LINE",
"9 419 LINE",
"76 419 LINE",
"76 714 LINE",
"372 714 LINE SMOOTH",
"481 714 OFFCURVE",
"561 674 OFFCURVE",
"612 610 CURVE SMOOTH",
"663 545 OFFCURVE",
"687 456 OFFCURVE",
"687 357 CURVE SMOOTH",
"687 258 OFFCURVE",
"663 169 OFFCURVE",
"612 105 CURVE SMOOTH",
"561 40 OFFCURVE",
"481 0 OFFCURVE",
"372 0 CURVE SMOOTH",
"76 0 LINE"
);
}
);
width = 722;
}
);
note = Dcroat;
unicode = 0110;
},
